HasubiMono-Black.ufo
<glyph name="numbersign" format="2">
  <advance width="512"/>
  <unicode hex="0023"/>
  <outline>
    <contour>
      <point x="148" y="40" type="line"/>
      <point x="204" y="40" type="line"/>
      <point x="212" y="48" type="line"/>
      <point x="212" y="180" type="line"/>
      <point x="220" y="188" type="line"/>
      <point x="292" y="188" type="line"/>
      <point x="300" y="180" type="line"/>
      <point x="300" y="48" type="line"/>
      <point x="308" y="40" type="line"/>
      <point x="364" y="40" type="line"/>
      <point x="372" y="48" type="line"/>
      <point x="372" y="180" type="line"/>
      <point x="380" y="188" type="line"/>
      <point x="464" y="188" type="line"/>
      <point x="472" y="196" type="line"/>
      <point x="472" y="260" type="line"/>
      <point x="464" y="268" type="line"/>
      <point x="380" y="268" type="line"/>
      <point x="372" y="276" type="line"/>
      <point x="372" y="424" type="line"/>
      <point x="380" y="432" type="line"/>
      <point x="464" y="432" type="line"/>
      <point x="472" y="440" type="line"/>
      <point x="472" y="504" type="line"/>
      <point x="464" y="512" type="line"/>
      <point x="380" y="512" type="line"/>
      <point x="372" y="520" type="line"/>
      <point x="372" y="656" type="line"/>
      <point x="364" y="664" type="line"/>
      <point x="308" y="664" type="line"/>
      <point x="300" y="656" type="line"/>
      <point x="300" y="520" type="line"/>
      <point x="292" y="512" type="line"/>
      <point x="220" y="512" type="line"/>
      <point x="212" y="520" type="line"/>
      <point x="212" y="656" type="line"/>
      <point x="204" y="664" type="line"/>
      <point x="148" y="664" type="line"/>
      <point x="140" y="656" type="line"/>
      <point x="140" y="520" type="line"/>
      <point x="132" y="512" type="line"/>
      <point x="48" y="512" type="line"/>
      <point x="40" y="504" type="line"/>
      <point x="40" y="440" type="line"/>
      <point x="48" y="432" type="line"/>
      <point x="132" y="432" type="line"/>
      <point x="140" y="424" type="line"/>
      <point x="140" y="276" type="line"/>
      <point x="132" y="268" type="line"/>
      <point x="48" y="268" type="line"/>
      <point x="40" y="260" type="line"/>
      <point x="40" y="196" type="line"/>
      <point x="48" y="188" type="line"/>
      <point x="132" y="188" type="line"/>
      <point x="140" y="180" type="line"/>
      <point x="140" y="48" type="line"/>
    </contour>
    <contour>
      <point x="220" y="268" type="line"/>
      <point x="212" y="276" type="line"/>
      <point x="212" y="424" type="line"/>
      <point x="220" y="432" type="line"/>
      <point x="292" y="432" type="line"/>
      <point x="300" y="424" type="line"/>
      <point x="300" y="276" type="line"/>
      <point x="292" y="268" type="line"/>
    </contour>
  </outline>
</glyph>
<glyph name="dollar" format="2">
  <advance width="512"/>
  <unicode hex="0024"/>
  <outline>
    <contour>
      <point x="227" y="456" type="line"/>
      <point x="155" y="488"/>
      <point x="129" y="519"/>
      <point x="129" y="580" type="curve" smooth="yes"/>
      <point x="129" y="643"/>
      <point x="162" y="661"/>
      <point x="227" y="665" type="curve"/>
    </contour>
    <contour>
      <point x="294" y="127" type="curve"/>
      <point x="294" y="346" type="line"/>
      <point x="370" y="313"/>
      <point x="397" y="283"/>
      <point x="397" y="224" type="curve" smooth="yes"/>
      <point x="397" y="156"/>
      <point x="355" y="130"/>
    </contour>
    <contour>
      <point x="227" y="-50" type="line"/>
      <point x="294" y="-50" type="line"/>
      <point x="294" y="46" type="line"/>
      <point x="402" y="55"/>
      <point x="463" y="123"/>
      <point x="463" y="236" type="curve" smooth="yes"/>
      <point x="463" y="335"/>
      <point x="426" y="388"/>
      <point x="294" y="437" type="curve"/>
      <point x="294" y="663" type="line"/>
      <point x="374" y="657"/>
      <point x="402" y="657"/>
      <point x="402" y="596" type="curve"/>
      <point x="461" y="596" type="line"/>
      <point x="461" y="710"/>
      <point x="393" y="737"/>
      <point x="294" y="751" type="curve"/>
      <point x="294" y="850" type="line"/>
      <point x="227" y="850" type="line"/>
      <point x="227" y="752" type="line"/>
      <point x="123" y="743"/>
      <point x="64" y="685"/>
      <point x="64" y="569" type="curve" smooth="yes"/>
      <point x="64" y="465"/>
      <point x="99" y="410"/>
      <point x="227" y="365" type="curve"/>
      <point x="227" y="130" type="line"/>
      <point x="174" y="135"/>
      <point x="133" y="130"/>
      <point x="133" y="187" type="curve"/>
      <point x="64" y="187" type="line"/>
      <point x="64" y="65"/>
      <point x="162" y="54"/>
      <point x="227" y="47" type="curve"/>
    </contour>
  </outline>
</glyph>
<glyph name="parenleft" format="2">
  <advance width="512"/>
  <unicode hex="0028"/>
  <outline>
    <contour>
      <point x="360" y="-208" type="line"/>
      <point x="200" y="-208"/>
      <point x="120" y="-112"/>
      <point x="120" y="41" type="curve" smooth="yes"/>
      <point x="120" y="519" type="line" smooth="yes"/>
      <point x="120" y="672"/>
      <point x="200" y="768"/>
      <point x="360" y="768" type="curve"/>
      <point x="384" y="768" type="line"/>
      <point x="392" y="760" type="line"/>
      <point x="392" y="696" type="line"/>
      <point x="384" y="688" type="line"/>
      <point x="360" y="688" type="line"/>
      <point x="248" y="688"/>
      <point x="192" y="624"/>
      <point x="192" y="495" type="curve" smooth="yes"/>
      <point x="192" y="65" type="line" smooth="yes"/>
      <point x="192" y="-64"/>
      <point x="248" y="-128"/>
      <point x="360" y="-128" type="curve"/>
      <point x="384" y="-128" type="line"/>
      <point x="392" y="-136" type="line"/>
      <point x="392" y="-200" type="line"/>
      <point x="384" y="-208" type="line"/>
    </contour>
  </outline>
</glyph>
<glyph name="asterisk" format="2">
  <advance width="512"/>
  <unicode hex="002A"/>
  <outline>
    <contour>
      <point x="248" y="497" type="line"/>
      <point x="260" y="497" type="line"/>
      <point x="319" y="374" type="line"/>
      <point x="328" y="374" type="line"/>
      <point x="390" y="422" type="line"/>
      <point x="390" y="431" type="line"/>
      <point x="290" y="513" type="line"/>
      <point x="291" y="526" type="line"/>
      <point x="408" y="560" type="line"/>
      <point x="408" y="570" type="line"/>
      <point x="368" y="632" type="line"/>
      <point x="359" y="632" type="line"/>
      <point x="275" y="549" type="line"/>
      <point x="269" y="553" type="line"/>
      <point x="291" y="697" type="line"/>
      <point x="285" y="704" type="line"/>
      <point x="219" y="704" type="line"/>
      <point x="212" y="697" type="line"/>
      <point x="237" y="553" type="line"/>
      <point x="229" y="550" type="line"/>
      <point x="147" y="624" type="line"/>
      <point x="138" y="624" type="line"/>
      <point x="104" y="564" type="line"/>
      <point x="104" y="555" type="line"/>
      <point x="214" y="523" type="line"/>
      <point x="214" y="511" type="line"/>
      <point x="121" y="419" type="line"/>
      <point x="121" y="410" type="line"/>
      <point x="168" y="371" type="line"/>
      <point x="177" y="371" type="line"/>
    </contour>
  </outline>
</glyph>
<glyph name="plus" format="2">
  <advance width="512"/>
  <unicode hex="002B"/>
  <outline>
    <contour>
      <point x="228" y="200" type="line"/>
      <point x="284" y="200" type="line"/>
      <point x="292" y="208" type="line"/>
      <point x="292" y="320" type="line"/>
      <point x="404" y="320" type="line"/>
      <point x="412" y="328" type="line"/>
      <point x="412" y="384" type="line"/>
      <point x="404" y="392" type="line"/>
      <point x="292" y="392" type="line"/>
      <point x="292" y="504" type="line"/>
      <point x="284" y="512" type="line"/>
      <point x="228" y="512" type="line"/>
      <point x="220" y="504" type="line"/>
      <point x="220" y="392" type="line"/>
      <point x="108" y="392" type="line"/>
      <point x="100" y="384" type="line"/>
      <point x="100" y="328" type="line"/>
      <point x="108" y="320" type="line"/>
      <point x="220" y="320" type="line"/>
      <point x="220" y="208" type="line"/>
    </contour>
  </outline>
</glyph>
<glyph name="comma" format="2">
  <advance width="512"/>
  <unicode hex="002C"/>
  <outline>
    <contour>
      <point x="188" y="0" type="line"/>
      <point x="255" y="0" type="line"/>
      <point x="263" y="-8" type="line"/>
      <point x="263" y="-27" type="line" smooth="yes"/>
      <point x="263" y="-83"/>
      <point x="244" y="-100"/>
      <point x="204" y="-100" type="curve" smooth="yes"/>
      <point x="188" y="-100" type="line"/>
      <point x="180" y="-108" type="line"/>
      <point x="180" y="-145" type="line"/>
      <point x="188" y="-153" type="line"/>
      <point x="217" y="-153" type="line" smooth="yes"/>
      <point x="313" y="-153"/>
      <point x="332" y="-96"/>
      <point x="332" y="0" type="curve" smooth="yes"/>
      <point x="332" y="144" type="line"/>
      <point x="324" y="152" type="line"/>
      <point x="188" y="152" type="line"/>
      <point x="180" y="144" type="line"/>
      <point x="180" y="8" type="line"/>
    </contour>
  </outline>
</glyph>
<glyph name="hyphen" format="2">
  <advance width="512"/>
  <unicode hex="002D"/>
  <outline>
    <contour>
      <point x="81" y="305" type="line"/>
      <point x="432" y="305" type="line"/>
      <point x="440" y="313" type="line"/>
      <point x="440" y="377" type="line"/>
      <point x="432" y="385" type="line"/>
      <point x="80" y="385" type="line"/>
      <point x="72" y="377" type="line"/>
      <point x="73" y="313" type="line"/>
    </contour>
  </outline>
</glyph>
<glyph name="period" format="2">
  <advance width="512"/>
  <unicode hex="002E"/>
  <outline>
    <contour>
      <point x="188" y="0" type="line"/>
      <point x="324" y="0" type="line"/>
      <point x="332" y="8" type="line"/>
      <point x="332" y="144" type="line"/>
      <point x="324" y="152" type="line"/>
      <point x="188" y="152" type="line"/>
      <point x="180" y="144" type="line"/>
      <point x="180" y="8" type="line"/>
    </contour>
  </outline>
</glyph>
<glyph name="zero" format="2">
  <advance width="512"/>
  <unicode hex="0030"/>
  <outline>
    <contour>
      <point x="256" y="288" type="curve" smooth="yes"/>
      <point x="292" y="288"/>
      <point x="320" y="316"/>
      <point x="320" y="353" type="curve" smooth="yes"/>
      <point x="320" y="389"/>
      <point x="292" y="416"/>
      <point x="256" y="416" type="curve" smooth="yes"/>
      <point x="220" y="416"/>
      <point x="192" y="389"/>
      <point x="192" y="353" type="curve" smooth="yes"/>
      <point x="192" y="316"/>
      <point x="220" y="288"/>
    </contour>
    <contour>
      <point x="256" y="-16" type="curve" smooth="yes"/>
      <point x="384" y="-16"/>
      <point x="440" y="57"/>
      <point x="440" y="161" type="curve" smooth="yes"/>
      <point x="440" y="543" type="line" smooth="yes"/>
      <point x="440" y="647"/>
      <point x="384" y="720"/>
      <point x="256" y="720" type="curve" smooth="yes"/>
      <point x="128" y="720"/>
      <point x="72" y="647"/>
      <point x="72" y="543" type="curve" smooth="yes"/>
      <point x="72" y="161" type="line" smooth="yes"/>
      <point x="72" y="57"/>
      <point x="128" y="-16"/>
    </contour>
    <contour>
      <point x="256" y="64" type="curve" smooth="yes"/>
      <point x="176" y="64"/>
      <point x="144" y="105"/>
      <point x="144" y="193" type="curve" smooth="yes"/>
      <point x="144" y="511" type="line" smooth="yes"/>
      <point x="144" y="599"/>
      <point x="176" y="640"/>
      <point x="256" y="640" type="curve" smooth="yes"/>
      <point x="336" y="640"/>
      <point x="368" y="599"/>
      <point x="368" y="511" type="curve" smooth="yes"/>
      <point x="368" y="193" type="line" smooth="yes"/>
      <point x="368" y="105"/>
      <point x="336" y="64"/>
    </contour>
  </outline>
</glyph>
<glyph name="one" format="2">
  <advance width="512"/>
  <unicode hex="0031"/>
  <outline>
    <contour>
      <point x="48" y="0" type="line"/>
      <point x="464" y="0" type="line"/>
      <point x="472" y="8" type="line"/>
      <point x="472" y="72" type="line"/>
      <point x="464" y="80" type="line"/>
      <point x="306" y="80" type="line"/>
      <point x="298" y="88" type="line"/>
      <point x="298" y="696" type="line"/>
      <point x="290" y="704" type="line"/>
      <point x="234" y="704" type="line"/>
      <point x="226" y="696" type="line"/>
      <point x="226" y="612"/>
      <point x="139" y="585"/>
      <point x="83" y="585" type="curve" smooth="yes"/>
      <point x="61" y="585" type="line"/>
      <point x="53" y="576" type="line"/>
      <point x="53" y="513" type="line"/>
      <point x="61" y="505" type="line"/>
      <point x="83" y="505" type="line" smooth="yes"/>
      <point x="140" y="505"/>
      <point x="175" y="512"/>
      <point x="218" y="553" type="curve"/>
      <point x="226" y="553" type="line"/>
      <point x="226" y="88" type="line"/>
      <point x="218" y="80" type="line"/>
      <point x="48" y="80" type="line"/>
      <point x="40" y="72" type="line"/>
      <point x="40" y="8" type="line"/>
    </contour>
  </outline>
</glyph>
<glyph name="two" format="2">
  <advance width="512"/>
  <unicode hex="0032"/>
  <outline>
    <contour>
      <point x="80" y="0" type="line"/>
      <point x="432" y="0" type="line"/>
      <point x="440" y="8" type="line"/>
      <point x="440" y="72" type="line"/>
      <point x="432" y="80" type="line"/>
      <point x="152" y="80" type="line"/>
      <point x="144" y="88" type="line"/>
      <point x="144" y="136" type="line" smooth="yes"/>
      <point x="144" y="191"/>
      <point x="183" y="215"/>
      <point x="245" y="264" type="curve" smooth="yes"/>
      <point x="309" y="315" type="line" smooth="yes"/>
      <point x="408" y="394"/>
      <point x="440" y="421"/>
      <point x="440" y="543" type="curve" smooth="yes"/>
      <point x="440" y="647"/>
      <point x="384" y="720"/>
      <point x="256" y="720" type="curve" smooth="yes"/>
      <point x="128" y="720"/>
      <point x="72" y="647"/>
      <point x="72" y="543" type="curve" smooth="yes"/>
      <point x="72" y="488" type="line"/>
      <point x="80" y="480" type="line"/>
      <point x="136" y="480" type="line"/>
      <point x="144" y="488" type="line"/>
      <point x="144" y="511" type="line" smooth="yes"/>
      <point x="144" y="599"/>
      <point x="176" y="640"/>
      <point x="256" y="640" type="curve" smooth="yes"/>
      <point x="336" y="640"/>
      <point x="368" y="599"/>
      <point x="368" y="511" type="curve" smooth="yes"/>
      <point x="368" y="441"/>
      <point x="338" y="421"/>
      <point x="278" y="374" type="curve" smooth="yes"/>
      <point x="222" y="330" type="line" smooth="yes"/>
      <point x="130" y="258"/>
      <point x="72" y="207"/>
      <point x="72" y="136" type="curve" smooth="yes"/>
      <point x="72" y="8" type="line"/>
    </contour>
  </outline>
</glyph>
<glyph name="four" format="2">
  <advance width="512"/>
  <unicode hex="0034"/>
  <outline>
    <contour>
      <point x="156" y="292" type="line"/>
      <point x="148" y="300" type="line"/>
      <point x="296" y="616" type="line"/>
      <point x="304" y="616" type="line"/>
      <point x="304" y="300" type="line"/>
      <point x="296" y="292" type="line"/>
    </contour>
    <contour>
      <point x="312" y="0" type="line"/>
      <point x="368" y="0" type="line"/>
      <point x="376" y="8" type="line"/>
      <point x="376" y="204" type="line"/>
      <point x="384" y="212" type="line"/>
      <point x="432" y="212" type="line"/>
      <point x="440" y="220" type="line"/>
      <point x="440" y="284" type="line"/>
      <point x="432" y="292" type="line"/>
      <point x="384" y="292" type="line"/>
      <point x="376" y="300" type="line"/>
      <point x="376" y="696" type="line"/>
      <point x="368" y="704" type="line"/>
      <point x="276" y="704" type="line"/>
      <point x="268" y="696" type="line"/>
      <point x="72" y="292" type="line"/>
      <point x="72" y="220" type="line"/>
      <point x="80" y="212" type="line"/>
      <point x="296" y="212" type="line"/>
      <point x="304" y="204" type="line"/>
      <point x="304" y="8" type="line"/>
    </contour>
  </outline>
</glyph>
<glyph name="five" format="2">
  <advance width="512"/>
  <unicode hex="0035"/>
  <outline>
    <contour>
      <point x="249" y="-16" type="curve" smooth="yes"/>
      <point x="393" y="-16"/>
      <point x="440" y="64"/>
      <point x="440" y="180" type="curve" smooth="yes"/>
      <point x="440" y="291" type="line" smooth="yes"/>
      <point x="440" y="423"/>
      <point x="375" y="483"/>
      <point x="260" y="483" type="curve" smooth="yes"/>
      <point x="190" y="483" type="line"/>
      <point x="182" y="491" type="line"/>
      <point x="182" y="616" type="line"/>
      <point x="190" y="624" type="line"/>
      <point x="379" y="624" type="line"/>
      <point x="387" y="632" type="line"/>
      <point x="387" y="696" type="line"/>
      <point x="379" y="704" type="line"/>
      <point x="118" y="704" type="line"/>
      <point x="110" y="696" type="line"/>
      <point x="110" y="411" type="line"/>
      <point x="118" y="403" type="line"/>
      <point x="249" y="403" type="line" smooth="yes"/>
      <point x="322" y="403"/>
      <point x="368" y="353"/>
      <point x="368" y="286" type="curve" smooth="yes"/>
      <point x="368" y="187" type="line" smooth="yes"/>
      <point x="368" y="103"/>
      <point x="341" y="64"/>
      <point x="249" y="64" type="curve" smooth="yes"/>
      <point x="192" y="64"/>
      <point x="144" y="87"/>
      <point x="144" y="192" type="curve" smooth="yes"/>
      <point x="144" y="216" type="line"/>
      <point x="136" y="224" type="line"/>
      <point x="80" y="224" type="line"/>
      <point x="72" y="216" type="line"/>
      <point x="72" y="186" type="line" smooth="yes"/>
      <point x="72" y="71"/>
      <point x="106" y="-16"/>
    </contour>
  </outline>
</glyph>
<glyph name="nine" format="2">
  <advance width="512"/>
  <unicode hex="0039"/>
  <outline>
    <contour>
      <point x="256" y="720" type="curve" smooth="yes"/>
      <point x="119" y="720"/>
      <point x="72" y="630"/>
      <point x="72" y="523" type="curve" smooth="yes"/>
      <point x="72" y="446" type="line" smooth="yes"/>
      <point x="72" y="347"/>
      <point x="106" y="270"/>
      <point x="234" y="270" type="curve" smooth="yes"/>
      <point x="281" y="270"/>
      <point x="321" y="286"/>
      <point x="356" y="323" type="curve"/>
      <point x="368" y="323" type="line"/>
      <point x="368" y="221" type="line" smooth="yes"/>
      <point x="368" y="127"/>
      <point x="347" y="64"/>
      <point x="264" y="64" type="curve" smooth="yes"/>
      <point x="195" y="64"/>
      <point x="161" y="102"/>
      <point x="161" y="160" type="curve" smooth="yes"/>
      <point x="161" y="184" type="line"/>
      <point x="153" y="192" type="line"/>
      <point x="97" y="192" type="line"/>
      <point x="89" y="184" type="line"/>
      <point x="89" y="144" type="line" smooth="yes"/>
      <point x="89" y="51"/>
      <point x="133" y="-16"/>
      <point x="264" y="-16" type="curve" smooth="yes"/>
      <point x="379" y="-16"/>
      <point x="440" y="37"/>
      <point x="440" y="192" type="curve" smooth="yes"/>
      <point x="440" y="523" type="line" smooth="yes"/>
      <point x="440" y="630"/>
      <point x="393" y="720"/>
    </contour>
    <contour>
      <point x="256" y="640" type="curve" smooth="yes"/>
      <point x="336" y="640"/>
      <point x="368" y="599"/>
      <point x="368" y="499" type="curve" smooth="yes"/>
      <point x="368" y="462" type="line" smooth="yes"/>
      <point x="368" y="403"/>
      <point x="329" y="354"/>
      <point x="256" y="354" type="curve" smooth="yes"/>
      <point x="176" y="354"/>
      <point x="144" y="403"/>
      <point x="144" y="462" type="curve" smooth="yes"/>
      <point x="144" y="499" type="line" smooth="yes"/>
      <point x="144" y="599"/>
      <point x="176" y="640"/>
    </contour>
  </outline>
</glyph>
<glyph name="colon" format="2">
  <advance width="512"/>
  <unicode hex="003A"/>
  <outline>
    <contour>
      <point x="256" y="-16" type="curve" smooth="yes"/>
      <point x="310" y="-16"/>
      <point x="352" y="26"/>
      <point x="352" y="81" type="curve" smooth="yes"/>
      <point x="352" y="135"/>
      <point x="310" y="176"/>
      <point x="256" y="176" type="curve" smooth="yes"/>
      <point x="202" y="176"/>
      <point x="160" y="135"/>
      <point x="160" y="81" type="curve" smooth="yes"/>
      <point x="160" y="26"/>
      <point x="202" y="-16"/>
    </contour>
    <contour>
      <point x="256" y="336" type="curve" smooth="yes"/>
      <point x="310" y="336"/>
      <point x="352" y="378"/>
      <point x="352" y="433" type="curve" smooth="yes"/>
      <point x="352" y="487"/>
      <point x="310" y="528"/>
      <point x="256" y="528" type="curve" smooth="yes"/>
      <point x="202" y="528"/>
      <point x="160" y="487"/>
      <point x="160" y="433" type="curve" smooth="yes"/>
      <point x="160" y="378"/>
      <point x="202" y="336"/>
    </contour>
  </outline>
</glyph>
<glyph name="equal" format="2">
  <advance width="512"/>
  <unicode hex="003D"/>
  <outline>
    <contour>
      <point x="108" y="392" type="line"/>
      <point x="404" y="392" type="line"/>
      <point x="412" y="400" type="line"/>
      <point x="412" y="456" type="line"/>
      <point x="404" y="464" type="line"/>
      <point x="108" y="464" type="line"/>
      <point x="100" y="456" type="line"/>
      <point x="100" y="400" type="line"/>
    </contour>
    <contour>
      <point x="108" y="240" type="line"/>
      <point x="404" y="240" type="line"/>
      <point x="412" y="248" type="line"/>
      <point x="412" y="304" type="line"/>
      <point x="404" y="312" type="line"/>
      <point x="108" y="312" type="line"/>
      <point x="100" y="304" type="line"/>
      <point x="100" y="248" type="line"/>
    </contour>
  </outline>
</glyph>
<glyph name="greater" format="2">
  <advance width="512"/>
  <unicode hex="003E"/>
  <outline>
    <contour>
      <point x="95" y="7" type="line"/>
      <point x="450" y="257" type="line"/>
      <point x="450" y="363" type="line"/>
      <point x="95" y="613" type="line"/>
      <point x="95" y="526" type="line"/>
      <point x="390" y="310" type="line"/>
      <point x="95" y="94" type="line"/>
    </contour>
  </outline>
</glyph>
<glyph name="question" format="2">
  <advance width="512"/>
  <unicode hex="003F"/>
  <outline>
    <contour>
      <point x="256" y="-16" type="curve" smooth="yes"/>
      <point x="292" y="-16"/>
      <point x="320" y="12"/>
      <point x="320" y="49" type="curve" smooth="yes"/>
      <point x="320" y="85"/>
      <point x="292" y="112"/>
      <point x="256" y="112" type="curve" smooth="yes"/>
      <point x="220" y="112"/>
      <point x="192" y="85"/>
      <point x="192" y="49" type="curve" smooth="yes"/>
      <point x="192" y="12"/>
      <point x="220" y="-16"/>
    </contour>
    <contour>
      <point x="209" y="178" type="line"/>
      <point x="237" y="178"/>
      <point x="263" y="179"/>
      <point x="287" y="182" type="curve" smooth="yes"/>
      <point x="296" y="183"/>
      <point x="274" y="327"/>
      <point x="313" y="330" type="curve" smooth="yes"/>
      <point x="385" y="336"/>
      <point x="432" y="378"/>
      <point x="432" y="454" type="curve" smooth="yes"/>
      <point x="432" y="548" type="line" smooth="yes"/>
      <point x="432" y="667"/>
      <point x="364" y="720"/>
      <point x="255" y="720" type="curve" smooth="yes"/>
      <point x="138" y="720"/>
      <point x="80" y="655"/>
      <point x="80" y="552" type="curve" smooth="yes"/>
      <point x="80" y="520" type="line"/>
      <point x="88" y="512" type="line"/>
      <point x="144" y="512" type="line"/>
      <point x="152" y="520" type="line"/>
      <point x="152" y="552" type="line" smooth="yes"/>
      <point x="152" y="615"/>
      <point x="195" y="640"/>
      <point x="256" y="640" type="curve" smooth="yes"/>
      <point x="316" y="640"/>
      <point x="360" y="613"/>
      <point x="360" y="536" type="curve" smooth="yes"/>
      <point x="360" y="467" type="line" smooth="yes"/>
      <point x="360" y="424"/>
      <point x="340" y="402"/>
      <point x="281" y="402" type="curve" smooth="yes"/>
      <point x="209" y="402" type="line"/>
      <point x="201" y="394" type="line"/>
      <point x="201" y="186" type="line"/>
    </contour>
  </outline>
</glyph>
<glyph name="at" format="2">
  <advance width="512"/>
  <unicode hex="0040"/>
  <outline>
    <contour>
      <point x="239" y="-208" type="curve" smooth="yes"/>
      <point x="308" y="-208" type="line"/>
      <point x="316" y="-200" type="line"/>
      <point x="316" y="-136" type="line"/>
      <point x="308" y="-128" type="line"/>
      <point x="239" y="-128" type="line" smooth="yes"/>
      <point x="102" y="-128"/>
      <point x="88" y="-18"/>
      <point x="88" y="119" type="curve" smooth="yes"/>
      <point x="88" y="453" type="line" smooth="yes"/>
      <point x="88" y="610"/>
      <point x="163" y="640"/>
      <point x="255" y="640" type="curve" smooth="yes"/>
      <point x="371" y="640"/>
      <point x="425" y="610"/>
      <point x="425" y="453" type="curve" smooth="yes"/>
      <point x="425" y="125" type="line" smooth="yes"/>
      <point x="425" y="82"/>
      <point x="409" y="66"/>
      <point x="394" y="66" type="curve" smooth="yes"/>
      <point x="370" y="66"/>
      <point x="363" y="81"/>
      <point x="363" y="106" type="curve" smooth="yes"/>
      <point x="363" y="420" type="line" smooth="yes"/>
      <point x="363" y="482"/>
      <point x="323" y="528"/>
      <point x="256" y="528" type="curve" smooth="yes"/>
      <point x="180" y="528"/>
      <point x="150" y="478"/>
      <point x="150" y="399" type="curve" smooth="yes"/>
      <point x="150" y="106" type="line" smooth="yes"/>
      <point x="150" y="29"/>
      <point x="195" y="0"/>
      <point x="239" y="0" type="curve" smooth="yes"/>
      <point x="277" y="0"/>
      <point x="296" y="15"/>
      <point x="315" y="52" type="curve"/>
      <point x="323" y="52" type="line"/>
      <point x="339" y="23"/>
      <point x="359" y="10"/>
      <point x="396" y="10" type="curve" smooth="yes"/>
      <point x="469" y="10"/>
      <point x="497" y="46"/>
      <point x="497" y="150" type="curve" smooth="yes"/>
      <point x="497" y="453" type="line" smooth="yes"/>
      <point x="497" y="686"/>
      <point x="388" y="720"/>
      <point x="256" y="720" type="curve" smooth="yes"/>
      <point x="97" y="720"/>
      <point x="16" y="632"/>
      <point x="16" y="453" type="curve" smooth="yes"/>
      <point x="16" y="119" type="line" smooth="yes"/>
      <point x="16" y="-56"/>
      <point x="65" y="-208"/>
    </contour>
    <contour>
      <point x="251" y="77" type="curve" smooth="yes"/>
      <point x="227" y="77"/>
      <point x="206" y="96"/>
      <point x="206" y="129" type="curve" smooth="yes"/>
      <point x="206" y="386" type="line" smooth="yes"/>
      <point x="206" y="428"/>
      <point x="220" y="448"/>
      <point x="254" y="448" type="curve" smooth="yes"/>
      <point x="283" y="448"/>
      <point x="305" y="432"/>
      <point x="305" y="399" type="curve" smooth="yes"/>
      <point x="305" y="129" type="line" smooth="yes"/>
      <point x="305" y="90"/>
      <point x="286" y="77"/>
    </contour>
  </outline>
</glyph>
<glyph name="A" format="2">
  <advance width="512"/>
  <unicode hex="0041"/>
  <anchor x="256" y="0" name="bottom"/>
  <anchor x="464" y="0" name="ogonek"/>
  <anchor x="256" y="736" name="top"/>
  <outline>
    <contour>
      <point x="172" y="278" type="line"/>
      <point x="164" y="286" type="line"/>
      <point x="240" y="648" type="line"/>
      <point x="248" y="656" type="line"/>
      <point x="264" y="656" type="line"/>
      <point x="272" y="648" type="line"/>
      <point x="349" y="286" type="line"/>
      <point x="341" y="278" type="line"/>
    </contour>
    <contour>
      <point x="40" y="0" type="line"/>
      <point x="97" y="0" type="line"/>
      <point x="105" y="8" type="line"/>
      <point x="144" y="190" type="line"/>
      <point x="152" y="198" type="line"/>
      <point x="360" y="198" type="line"/>
      <point x="368" y="190" type="line"/>
      <point x="407" y="8" type="line"/>
      <point x="415" y="0" type="line"/>
      <point x="472" y="0" type="line"/>
      <point x="480" y="8" type="line"/>
      <point x="312" y="728" type="line"/>
      <point x="304" y="736" type="line"/>
      <point x="208" y="736" type="line"/>
      <point x="200" y="728" type="line"/>
      <point x="32" y="8" type="line"/>
    </contour>
  </outline>
</glyph>
<glyph name="B" format="2">
  <advance width="512"/>
  <unicode hex="0042"/>
  <outline>
    <contour>
      <point x="161" y="424" type="line"/>
      <point x="153" y="432" type="line"/>
      <point x="153" y="648" type="line"/>
      <point x="161" y="656" type="line"/>
      <point x="231" y="656" type="line" smooth="yes"/>
      <point x="311" y="656"/>
      <point x="343" y="624"/>
      <point x="343" y="544" type="curve" smooth="yes"/>
      <point x="343" y="536" type="line" smooth="yes"/>
      <point x="343" y="456"/>
      <point x="311" y="424"/>
      <point x="231" y="424" type="curve" smooth="yes"/>
    </contour>
    <contour>
      <point x="88" y="0" type="line"/>
      <point x="248" y="0" type="line" smooth="yes"/>
      <point x="384" y="0"/>
      <point x="440" y="56"/>
      <point x="440" y="192" type="curve" smooth="yes"/>
      <point x="440" y="232" type="line" smooth="yes"/>
      <point x="440" y="328"/>
      <point x="377" y="364"/>
      <point x="305" y="372" type="curve"/>
      <point x="297" y="380" type="line"/>
      <point x="297" y="388" type="line"/>
      <point x="305" y="396" type="line"/>
      <point x="377" y="412"/>
      <point x="416" y="456"/>
      <point x="416" y="520" type="curve" smooth="yes"/>
      <point x="416" y="560" type="line" smooth="yes"/>
      <point x="416" y="688"/>
      <point x="367" y="736"/>
      <point x="240" y="736" type="curve" smooth="yes"/>
      <point x="88" y="736" type="line"/>
      <point x="80" y="728" type="line"/>
      <point x="80" y="8" type="line"/>
    </contour>
    <contour>
      <point x="161" y="80" type="line"/>
      <point x="153" y="88" type="line"/>
      <point x="153" y="336" type="line"/>
      <point x="161" y="344" type="line"/>
      <point x="239" y="344" type="line" smooth="yes"/>
      <point x="335" y="344"/>
      <point x="367" y="312"/>
      <point x="367" y="216" type="curve" smooth="yes"/>
      <point x="367" y="208" type="line" smooth="yes"/>
      <point x="367" y="112"/>
      <point x="335" y="80"/>
      <point x="239" y="80" type="curve" smooth="yes"/>
    </contour>
  </outline>
</glyph>
<glyph name="D" format="2">
  <advance width="512"/>
  <unicode hex="0044"/>
  <anchor x="223" y="736" name="top"/>
  <outline>
    <contour>
      <point x="88" y="0" type="line"/>
      <point x="232" y="0" type="line" smooth="yes"/>
      <point x="384" y="0"/>
      <point x="440" y="56"/>
      <point x="440" y="208" type="curve" smooth="yes"/>
      <point x="440" y="528" type="line" smooth="yes"/>
      <point x="440" y="680"/>
      <point x="384" y="736"/>
      <point x="232" y="736" type="curve" smooth="yes"/>
      <point x="88" y="736" type="line"/>
      <point x="80" y="728" type="line"/>
      <point x="80" y="8" type="line"/>
    </contour>
    <contour>
      <point x="161" y="80" type="line"/>
      <point x="153" y="88" type="line"/>
      <point x="153" y="648" type="line"/>
      <point x="161" y="656" type="line"/>
      <point x="223" y="656" type="line" smooth="yes"/>
      <point x="335" y="656"/>
      <point x="367" y="624"/>
      <point x="367" y="512" type="curve" smooth="yes"/>
      <point x="367" y="224" type="line" smooth="yes"/>
      <point x="367" y="112"/>
      <point x="335" y="80"/>
      <point x="223" y="80" type="curve" smooth="yes"/>
    </contour>
  </outline>
</glyph>
<glyph name="E" format="2">
  <advance width="512"/>
  <unicode hex="0045"/>
  <anchor x="267" y="736" name="top"/>
  <outline>
    <contour>
      <point x="88" y="0" type="line"/>
      <point x="432" y="0" type="line"/>
      <point x="440" y="8" type="line"/>
      <point x="440" y="72" type="line"/>
      <point x="432" y="80" type="line"/>
      <point x="161" y="80" type="line"/>
      <point x="153" y="88" type="line"/>
      <point x="153" y="344" type="line"/>
      <point x="161" y="352" type="line"/>
      <point x="368" y="352" type="line"/>
      <point x="376" y="360" type="line"/>
      <point x="376" y="424" type="line"/>
      <point x="368" y="432" type="line"/>
      <point x="161" y="432" type="line"/>
      <point x="153" y="440" type="line"/>
      <point x="153" y="648" type="line"/>
      <point x="161" y="656" type="line"/>
      <point x="432" y="656" type="line"/>
      <point x="440" y="664" type="line"/>
      <point x="440" y="728" type="line"/>
      <point x="432" y="736" type="line"/>
      <point x="88" y="736" type="line"/>
      <point x="80" y="728" type="line"/>
      <point x="80" y="8" type="line"/>
    </contour>
  </outline>
</glyph>
<glyph name="H" format="2">
  <advance width="512"/>
  <unicode hex="0048"/>
  <outline>
    <contour>
      <point x="56" y="0" type="line"/>
      <point x="200" y="0" type="line"/>
      <point x="208" y="8" type="line"/>
      <point x="208" y="312" type="line"/>
      <point x="216" y="320" type="line"/>
      <point x="296" y="320" type="line"/>
      <point x="304" y="312" type="line"/>
      <point x="304" y="8" type="line"/>
      <point x="312" y="0" type="line"/>
      <point x="456" y="0" type="line"/>
      <point x="464" y="8" type="line"/>
      <point x="464" y="728" type="line"/>
      <point x="456" y="736" type="line"/>
      <point x="312" y="736" type="line"/>
      <point x="304" y="728" type="line"/>
      <point x="304" y="488" type="line"/>
      <point x="296" y="480" type="line"/>
      <point x="216" y="480" type="line"/>
      <point x="208" y="488" type="line"/>
      <point x="208" y="728" type="line"/>
      <point x="200" y="736" type="line"/>
      <point x="56" y="736" type="line"/>
      <point x="48" y="728" type="line"/>
      <point x="48" y="8" type="line"/>
    </contour>
  </outline>
</glyph>
<glyph name="I" format="2">
  <advance width="512"/>
  <unicode hex="0049"/>
  <anchor x="258" y="704" name="top"/>
  <outline>
    <contour>
      <point x="64" y="0" type="line"/>
      <point x="448" y="0" type="line"/>
      <point x="456" y="8" type="line"/>
      <point x="456" y="136" type="line"/>
      <point x="448" y="144" type="line"/>
      <point x="328" y="144" type="line"/>
      <point x="320" y="152" type="line"/>
      <point x="320" y="552" type="line"/>
      <point x="328" y="560" type="line"/>
      <point x="448" y="560" type="line"/>
      <point x="456" y="568" type="line"/>
      <point x="456" y="696" type="line"/>
      <point x="448" y="704" type="line"/>
      <point x="64" y="704" type="line"/>
      <point x="56" y="696" type="line"/>
      <point x="56" y="568" type="line"/>
      <point x="64" y="560" type="line"/>
      <point x="184" y="560" type="line"/>
      <point x="192" y="552" type="line"/>
      <point x="192" y="152" type="line"/>
      <point x="184" y="144" type="line"/>
      <point x="64" y="144" type="line"/>
      <point x="56" y="136" type="line"/>
      <point x="56" y="8" type="line"/>
    </contour>
  </outline>
</glyph>
<glyph name="K" format="2">
  <advance width="512"/>
  <unicode hex="004B"/>
  <outline>
    <contour>
      <point x="88" y="0" type="line"/>
      <point x="145" y="0" type="line"/>
      <point x="153" y="8" type="line"/>
      <point x="153" y="348" type="line"/>
      <point x="161" y="356" type="line"/>
      <point x="253" y="356" type="line"/>
      <point x="261" y="348" type="line"/>
      <point x="408" y="8" type="line"/>
      <point x="416" y="0" type="line"/>
      <point x="472" y="0" type="line"/>
      <point x="480" y="8" type="line"/>
      <point x="480" y="24" type="line"/>
      <point x="324" y="377" type="line"/>
      <point x="324" y="409" type="line"/>
      <point x="466" y="712" type="line"/>
      <point x="466" y="728" type="line"/>
      <point x="458" y="736" type="line"/>
      <point x="405" y="736" type="line"/>
      <point x="397" y="728" type="line"/>
      <point x="261" y="444" type="line"/>
      <point x="253" y="436" type="line"/>
      <point x="161" y="436" type="line"/>
      <point x="153" y="444" type="line"/>
      <point x="153" y="728" type="line"/>
      <point x="145" y="736" type="line"/>
      <point x="88" y="736" type="line"/>
      <point x="80" y="728" type="line"/>
      <point x="80" y="8" type="line"/>
    </contour>
  </outline>
</glyph>
<glyph name="L" format="2">
  <advance width="512"/>
  <unicode hex="004C"/>
  <anchor x="138" y="736" name="top"/>
  <outline>
    <contour>
      <point x="80" y="0" type="line"/>
      <point x="448" y="0" type="line"/>
      <point x="456" y="8" type="line"/>
      <point x="456" y="136" type="line"/>
      <point x="448" y="144" type="line"/>
      <point x="208" y="144" type="line"/>
      <point x="200" y="152" type="line"/>
      <point x="200" y="728" type="line"/>
      <point x="192" y="736" type="line"/>
      <point x="80" y="736" type="line"/>
      <point x="72" y="728" type="line"/>
      <point x="72" y="8" type="line"/>
    </contour>
  </outline>
</glyph>
<glyph name="M" format="2">
  <advance width="512"/>
  <unicode hex="004D"/>
  <outline>
    <contour>
      <point x="72" y="0" type="line"/>
      <point x="129" y="0" type="line"/>
      <point x="137" y="8" type="line"/>
      <point x="137" y="512" type="line"/>
      <point x="120" y="640" type="line"/>
      <point x="120" y="648" type="line"/>
      <point x="128" y="656" type="line"/>
      <point x="136" y="656" type="line"/>
      <point x="144" y="648" type="line"/>
      <point x="204" y="360" type="line"/>
      <point x="212" y="352" type="line"/>
      <point x="300" y="352" type="line"/>
      <point x="308" y="360" type="line"/>
      <point x="368" y="648" type="line"/>
      <point x="376" y="656" type="line"/>
      <point x="384" y="656" type="line"/>
      <point x="392" y="648" type="line"/>
      <point x="392" y="640" type="line"/>
      <point x="375" y="512" type="line"/>
      <point x="375" y="8" type="line"/>
      <point x="383" y="0" type="line"/>
      <point x="440" y="0" type="line"/>
      <point x="448" y="8" type="line"/>
      <point x="448" y="728" type="line"/>
      <point x="440" y="736" type="line"/>
      <point x="333" y="736" type="line"/>
      <point x="325" y="728" type="line"/>
      <point x="269" y="432" type="line"/>
      <point x="261" y="424" type="line"/>
      <point x="251" y="424" type="line"/>
      <point x="243" y="432" type="line"/>
      <point x="187" y="728" type="line"/>
      <point x="179" y="736" type="line"/>
      <point x="72" y="736" type="line"/>
      <point x="64" y="728" type="line"/>
      <point x="64" y="8" type="line"/>
    </contour>
  </outline>
</glyph>
<glyph name="N" format="2">
  <advance width="512"/>
  <unicode hex="004E"/>
  <anchor x="260" y="736" name="top"/>
  <outline>
    <contour>
      <point x="88" y="0" type="line"/>
      <point x="145" y="0" type="line"/>
      <point x="153" y="8" type="line"/>
      <point x="153" y="512" type="line"/>
      <point x="136" y="640" type="line"/>
      <point x="136" y="648" type="line"/>
      <point x="144" y="656" type="line"/>
      <point x="152" y="656" type="line"/>
      <point x="160" y="648" type="line"/>
      <point x="312" y="8" type="line"/>
      <point x="320" y="0" type="line"/>
      <point x="424" y="0" type="line"/>
      <point x="432" y="8" type="line"/>
      <point x="432" y="728" type="line"/>
      <point x="424" y="736" type="line"/>
      <point x="367" y="736" type="line"/>
      <point x="359" y="728" type="line"/>
      <point x="359" y="224" type="line"/>
      <point x="376" y="96" type="line"/>
      <point x="376" y="88" type="line"/>
      <point x="368" y="80" type="line"/>
      <point x="360" y="80" type="line"/>
      <point x="352" y="88" type="line"/>
      <point x="200" y="728" type="line"/>
      <point x="192" y="736" type="line"/>
      <point x="88" y="736" type="line"/>
      <point x="80" y="728" type="line"/>
      <point x="80" y="8" type="line"/>
    </contour>
  </outline>
</glyph>
<glyph name="O" format="2">
  <advance width="512"/>
  <unicode hex="004F"/>
  <anchor x="256" y="736" name="top"/>
  <outline>
    <contour>
      <point x="256" y="-16" type="curve" smooth="yes"/>
      <point x="384" y="-16"/>
      <point x="440" y="64"/>
      <point x="440" y="192" type="curve" smooth="yes"/>
      <point x="440" y="544" type="line" smooth="yes"/>
      <point x="440" y="672"/>
      <point x="384" y="752"/>
      <point x="256" y="752" type="curve" smooth="yes"/>
      <point x="128" y="752"/>
      <point x="72" y="672"/>
      <point x="72" y="544" type="curve" smooth="yes"/>
      <point x="72" y="192" type="line" smooth="yes"/>
      <point x="72" y="64"/>
      <point x="128" y="-16"/>
    </contour>
    <contour>
      <point x="256" y="64" type="curve" smooth="yes"/>
      <point x="160" y="64"/>
      <point x="145" y="128"/>
      <point x="145" y="224" type="curve" smooth="yes"/>
      <point x="145" y="512" type="line" smooth="yes"/>
      <point x="145" y="608"/>
      <point x="160" y="672"/>
      <point x="256" y="672" type="curve" smooth="yes"/>
      <point x="352" y="672"/>
      <point x="367" y="608"/>
      <point x="367" y="512" type="curve" smooth="yes"/>
      <point x="367" y="224" type="line" smooth="yes"/>
      <point x="367" y="128"/>
      <point x="352" y="64"/>
    </contour>
  </outline>
</glyph>
<glyph name="P" format="2">
  <advance width="512"/>
  <unicode hex="0050"/>
  <outline>
    <contour>
      <point x="161" y="400" type="line"/>
      <point x="153" y="408" type="line"/>
      <point x="153" y="648" type="line"/>
      <point x="161" y="656" type="line"/>
      <point x="247" y="656" type="line" smooth="yes"/>
      <point x="335" y="656"/>
      <point x="375" y="608"/>
      <point x="375" y="528" type="curve" smooth="yes"/>
      <point x="375" y="448"/>
      <point x="335" y="400"/>
      <point x="247" y="400" type="curve" smooth="yes"/>
    </contour>
    <contour>
      <point x="88" y="0" type="line"/>
      <point x="145" y="0" type="line"/>
      <point x="153" y="8" type="line"/>
      <point x="153" y="312" type="line"/>
      <point x="161" y="320" type="line"/>
      <point x="256" y="320" type="line" smooth="yes"/>
      <point x="384" y="320"/>
      <point x="448" y="400"/>
      <point x="448" y="528" type="curve" smooth="yes"/>
      <point x="448" y="656"/>
      <point x="384" y="736"/>
      <point x="256" y="736" type="curve" smooth="yes"/>
      <point x="88" y="736" type="line"/>
      <point x="80" y="728" type="line"/>
      <point x="80" y="8" type="line"/>
    </contour>
  </outline>
</glyph>
<glyph name="Q" format="2">
  <advance width="512"/>
  <unicode hex="0051"/>
  <outline>
    <contour>
      <point x="256" y="64" type="curve" smooth="yes"/>
      <point x="160" y="64"/>
      <point x="145" y="128"/>
      <point x="145" y="224" type="curve" smooth="yes"/>
      <point x="145" y="512" type="line" smooth="yes"/>
      <point x="145" y="608"/>
      <point x="160" y="672"/>
      <point x="256" y="672" type="curve" smooth="yes"/>
      <point x="352" y="672"/>
      <point x="367" y="608"/>
      <point x="367" y="512" type="curve" smooth="yes"/>
      <point x="367" y="224" type="line" smooth="yes"/>
      <point x="367" y="128"/>
      <point x="352" y="64"/>
    </contour>
    <contour>
      <point x="321" y="-208" type="curve" smooth="yes"/>
      <point x="384" y="-208" type="line"/>
      <point x="392" y="-200" type="line"/>
      <point x="392" y="-136" type="line"/>
      <point x="384" y="-128" type="line"/>
      <point x="315" y="-128" type="line" smooth="yes"/>
      <point x="291" y="-128"/>
      <point x="283" y="-120"/>
      <point x="283" y="-96" type="curve" smooth="yes"/>
      <point x="283" y="-22" type="line"/>
      <point x="291" y="-14" type="line"/>
      <point x="396" y="0"/>
      <point x="440" y="80"/>
      <point x="440" y="192" type="curve" smooth="yes"/>
      <point x="440" y="544" type="line" smooth="yes"/>
      <point x="440" y="672"/>
      <point x="384" y="752"/>
      <point x="256" y="752" type="curve" smooth="yes"/>
      <point x="128" y="752"/>
      <point x="72" y="672"/>
      <point x="72" y="544" type="curve" smooth="yes"/>
      <point x="72" y="192" type="line" smooth="yes"/>
      <point x="72" y="80"/>
      <point x="116" y="1"/>
      <point x="217" y="-13" type="curve"/>
      <point x="225" y="-21" type="line"/>
      <point x="225" y="-112" type="line" smooth="yes"/>
      <point x="225" y="-184"/>
      <point x="249" y="-208"/>
    </contour>
  </outline>
</glyph>
<glyph name="R" format="2">
  <advance width="512"/>
  <unicode hex="0052"/>
  <anchor x="248" y="736" name="top"/>
  <outline>
    <contour>
      <point x="161" y="416" type="line"/>
      <point x="153" y="424" type="line"/>
      <point x="153" y="648" type="line"/>
      <point x="161" y="656" type="line"/>
      <point x="223" y="656" type="line" smooth="yes"/>
      <point x="327" y="656"/>
      <point x="367" y="632"/>
      <point x="367" y="536" type="curve" smooth="yes"/>
      <point x="367" y="440"/>
      <point x="327" y="416"/>
      <point x="223" y="416" type="curve" smooth="yes"/>
    </contour>
    <contour>
      <point x="88" y="0" type="line"/>
      <point x="145" y="0" type="line"/>
      <point x="153" y="8" type="line"/>
      <point x="153" y="328" type="line"/>
      <point x="161" y="336" type="line"/>
      <point x="223" y="336" type="line" smooth="yes"/>
      <point x="327" y="336"/>
      <point x="367" y="312"/>
      <point x="367" y="216" type="curve" smooth="yes"/>
      <point x="367" y="7" type="line"/>
      <point x="375" y="0" type="line"/>
      <point x="432" y="0" type="line"/>
      <point x="440" y="8" type="line"/>
      <point x="440" y="232" type="line" smooth="yes"/>
      <point x="440" y="328"/>
      <point x="390" y="360"/>
      <point x="328" y="360" type="curve"/>
      <point x="320" y="368" type="line"/>
      <point x="320" y="376" type="line"/>
      <point x="328" y="384" type="line"/>
      <point x="383" y="392"/>
      <point x="440" y="433"/>
      <point x="440" y="520" type="curve" smooth="yes"/>
      <point x="440" y="552" type="line" smooth="yes"/>
      <point x="440" y="696"/>
      <point x="375" y="736"/>
      <point x="231" y="736" type="curve" smooth="yes"/>
      <point x="88" y="736" type="line"/>
      <point x="80" y="728" type="line"/>
      <point x="80" y="8" type="line"/>
    </contour>
  </outline>
</glyph>
<glyph name="S" format="2">
  <advance width="512"/>
  <unicode hex="0053"/>
  <anchor x="256" y="704" name="top"/>
  <outline>
    <contour>
      <point x="256" y="-16" type="curve" smooth="yes"/>
      <point x="384" y="-16"/>
      <point x="440" y="56"/>
      <point x="440" y="161" type="curve" smooth="yes"/>
      <point x="440" y="289"/>
      <point x="413" y="340"/>
      <point x="256" y="408" type="curve" smooth="yes"/>
      <point x="187" y="438"/>
      <point x="152" y="475"/>
      <point x="152" y="535" type="curve" smooth="yes"/>
      <point x="152" y="616"/>
      <point x="185" y="640"/>
      <point x="256" y="640" type="curve" smooth="yes"/>
      <point x="305" y="640"/>
      <point x="344" y="608"/>
      <point x="344" y="535" type="curve" smooth="yes"/>
      <point x="344" y="510" type="line"/>
      <point x="352" y="502" type="line"/>
      <point x="408" y="502" type="line"/>
      <point x="416" y="510" type="line"/>
      <point x="416" y="567" type="line" smooth="yes"/>
      <point x="416" y="648"/>
      <point x="361" y="720"/>
      <point x="256" y="720" type="curve" smooth="yes"/>
      <point x="129" y="720"/>
      <point x="80" y="648"/>
      <point x="80" y="567" type="curve" smooth="yes"/>
      <point x="80" y="417"/>
      <point x="122" y="387"/>
      <point x="256" y="328" type="curve" smooth="yes"/>
      <point x="343" y="290"/>
      <point x="368" y="234"/>
      <point x="368" y="193" type="curve" smooth="yes"/>
      <point x="368" y="104"/>
      <point x="336" y="64"/>
      <point x="256" y="64" type="curve" smooth="yes"/>
      <point x="176" y="64"/>
      <point x="144" y="104"/>
      <point x="144" y="193" type="curve" smooth="yes"/>
      <point x="144" y="218" type="line"/>
      <point x="136" y="226" type="line"/>
      <point x="80" y="226" type="line"/>
      <point x="72" y="218" type="line"/>
      <point x="72" y="161" type="line" smooth="yes"/>
      <point x="72" y="56"/>
      <point x="128" y="-16"/>
    </contour>
  </outline>
</glyph>
<glyph name="T" format="2">
  <advance width="512"/>
  <unicode hex="0054"/>
  <anchor x="258" y="736" name="top"/>
  <outline>
    <contour>
      <point x="200" y="0" type="line"/>
      <point x="312" y="0" type="line"/>
      <point x="320" y="8" type="line"/>
      <point x="320" y="584" type="line"/>
      <point x="328" y="592" type="line"/>
      <point x="448" y="592" type="line"/>
      <point x="456" y="600" type="line"/>
      <point x="456" y="728" type="line"/>
      <point x="448" y="736" type="line"/>
      <point x="64" y="736" type="line"/>
      <point x="56" y="728" type="line"/>
      <point x="56" y="600" type="line"/>
      <point x="64" y="592" type="line"/>
      <point x="184" y="592" type="line"/>
      <point x="192" y="584" type="line"/>
      <point x="192" y="8" type="line"/>
    </contour>
  </outline>
</glyph>
<glyph name="U" format="2">
  <advance width="512"/>
  <unicode hex="0055"/>
  <anchor x="255" y="736" name="top"/>
  <outline>
    <contour>
      <point x="256" y="-16" type="curve" smooth="yes"/>
      <point x="384" y="-16"/>
      <point x="440" y="64"/>
      <point x="440" y="177" type="curve" smooth="yes"/>
      <point x="440" y="728" type="line"/>
      <point x="432" y="736" type="line"/>
      <point x="376" y="736" type="line"/>
      <point x="368" y="728" type="line"/>
      <point x="368" y="193" type="line" smooth="yes"/>
      <point x="368" y="112"/>
      <point x="336" y="64"/>
      <point x="256" y="64" type="curve" smooth="yes"/>
      <point x="176" y="64"/>
      <point x="144" y="112"/>
      <point x="144" y="193" type="curve" smooth="yes"/>
      <point x="144" y="728" type="line"/>
      <point x="136" y="736" type="line"/>
      <point x="80" y="736" type="line"/>
      <point x="72" y="728" type="line"/>
      <point x="72" y="177" type="line" smooth="yes"/>
      <point x="72" y="64"/>
      <point x="128" y="-16"/>
    </contour>
  </outline>
</glyph>
<glyph name="V" format="2">
  <advance width="512"/>
  <unicode hex="0056"/>
  <outline>
    <contour>
      <point x="172" y="0" type="line"/>
      <point x="340" y="0" type="line"/>
      <point x="348" y="8" type="line"/>
      <point x="464" y="712" type="line"/>
      <point x="464" y="728" type="line"/>
      <point x="456" y="736" type="line"/>
      <point x="394" y="736" type="line"/>
      <point x="386" y="728" type="line"/>
      <point x="284" y="88" type="line"/>
      <point x="276" y="80" type="line"/>
      <point x="236" y="80" type="line"/>
      <point x="228" y="88" type="line"/>
      <point x="126" y="728" type="line"/>
      <point x="118" y="736" type="line"/>
      <point x="56" y="736" type="line"/>
      <point x="48" y="728" type="line"/>
      <point x="48" y="712" type="line"/>
      <point x="164" y="8" type="line"/>
    </contour>
  </outline>
</glyph>
<glyph name="X" format="2">
  <advance width="512"/>
  <unicode hex="0058"/>
  <outline>
    <contour>
      <point x="48" y="0" type="line"/>
      <point x="109" y="0" type="line"/>
      <point x="117" y="8" type="line"/>
      <point x="200" y="224" type="line"/>
      <point x="224" y="320" type="line"/>
      <point x="232" y="328" type="line"/>
      <point x="280" y="328" type="line"/>
      <point x="288" y="320" type="line"/>
      <point x="312" y="224" type="line"/>
      <point x="395" y="8" type="line"/>
      <point x="403" y="0" type="line"/>
      <point x="464" y="0" type="line"/>
      <point x="472" y="8" type="line"/>
      <point x="472" y="24" type="line"/>
      <point x="347" y="352" type="line"/>
      <point x="347" y="392" type="line"/>
      <point x="472" y="712" type="line"/>
      <point x="472" y="728" type="line"/>
      <point x="464" y="736" type="line"/>
      <point x="403" y="736" type="line"/>
      <point x="395" y="728" type="line"/>
      <point x="312" y="512" type="line"/>
      <point x="288" y="416" type="line"/>
      <point x="280" y="408" type="line"/>
      <point x="232" y="408" type="line"/>
      <point x="224" y="416" type="line"/>
      <point x="200" y="512" type="line"/>
      <point x="117" y="728" type="line"/>
      <point x="109" y="736" type="line"/>
      <point x="48" y="736" type="line"/>
      <point x="40" y="728" type="line"/>
      <point x="40" y="712" type="line"/>
      <point x="165" y="392" type="line"/>
      <point x="165" y="352" type="line"/>
      <point x="40" y="24" type="line"/>
      <point x="40" y="8" type="line"/>
    </contour>
  </outline>
</glyph>
<glyph name="Y" format="2">
  <advance width="512"/>
  <unicode hex="0059"/>
  <anchor x="248" y="736" name="top"/>
  <outline>
    <contour>
      <point x="227" y="0" type="line"/>
      <point x="285" y="0" type="line"/>
      <point x="293" y="8" type="line"/>
      <point x="293" y="267" type="line"/>
      <point x="296" y="283" type="line"/>
      <point x="472" y="680" type="line"/>
      <point x="472" y="728" type="line"/>
      <point x="464" y="736" type="line"/>
      <point x="412" y="736" type="line"/>
      <point x="404" y="728" type="line"/>
      <point x="313" y="512" type="line"/>
      <point x="280" y="416" type="line"/>
      <point x="272" y="408" type="line"/>
      <point x="240" y="408" type="line"/>
      <point x="232" y="416" type="line"/>
      <point x="199" y="512" type="line"/>
      <point x="108" y="728" type="line"/>
      <point x="100" y="736" type="line"/>
      <point x="48" y="736" type="line"/>
      <point x="40" y="728" type="line"/>
      <point x="40" y="680" type="line"/>
      <point x="216" y="283" type="line"/>
      <point x="219" y="267" type="line"/>
      <point x="219" y="8" type="line"/>
    </contour>
  </outline>
</glyph>
<glyph name="Z" format="2">
  <advance width="512"/>
  <unicode hex="005A"/>
  <anchor x="265" y="736" name="top"/>
  <outline>
    <contour>
      <point x="72" y="0" type="line"/>
      <point x="440" y="0" type="line"/>
      <point x="448" y="8" type="line"/>
      <point x="448" y="72" type="line"/>
      <point x="440" y="80" type="line"/>
      <point x="220" y="80" type="line"/>
      <point x="156" y="64" type="line"/>
      <point x="148" y="64" type="line"/>
      <point x="140" y="72" type="line"/>
      <point x="140" y="80" type="line"/>
      <point x="444" y="656" type="line"/>
      <point x="448" y="672" type="line"/>
      <point x="448" y="728" type="line"/>
      <point x="440" y="736" type="line"/>
      <point x="80" y="736" type="line"/>
      <point x="72" y="728" type="line"/>
      <point x="72" y="664" type="line"/>
      <point x="80" y="656" type="line"/>
      <point x="284" y="656" type="line"/>
      <point x="348" y="672" type="line"/>
      <point x="356" y="672" type="line"/>
      <point x="364" y="664" type="line"/>
      <point x="364" y="656" type="line"/>
      <point x="68" y="95" type="line"/>
      <point x="64" y="79" type="line"/>
      <point x="64" y="8" type="line"/>
    </contour>
  </outline>
</glyph>
<glyph name="backslash" format="2">
  <advance width="512"/>
  <unicode hex="005C"/>
  <outline>
    <contour>
      <point x="440" y="-208" type="line"/>
      <point x="448" y="-200" type="line"/>
      <point x="149" y="696" type="line"/>
      <point x="141" y="704" type="line"/>
      <point x="72" y="704" type="line"/>
      <point x="64" y="696" type="line"/>
      <point x="363" y="-200" type="line"/>
      <point x="371" y="-208" type="line"/>
    </contour>
  </outline>
</glyph>
<glyph name="underscore" format="2">
  <advance width="512"/>
  <unicode hex="005F"/>
  <outline>
    <contour>
      <point x="41" y="-80" type="line"/>
      <point x="472" y="-80" type="line"/>
      <point x="480" y="-72" type="line"/>
      <point x="480" y="-8" type="line"/>
      <point x="472" y="0" type="line"/>
      <point x="40" y="0" type="line"/>
      <point x="32" y="-8" type="line"/>
      <point x="33" y="-72" type="line"/>
    </contour>
  </outline>
</glyph>
<glyph name="b" format="2">
  <advance width="512"/>
  <unicode hex="0062"/>
  <outline>
    <contour>
      <point x="272" y="-16" type="curve" smooth="yes"/>
      <point x="400" y="-16"/>
      <point x="432" y="56"/>
      <point x="432" y="200" type="curve" smooth="yes"/>
      <point x="432" y="312" type="line" smooth="yes"/>
      <point x="432" y="456"/>
      <point x="384" y="528"/>
      <point x="272" y="528" type="curve" smooth="yes"/>
      <point x="220" y="528"/>
      <point x="175" y="492"/>
      <point x="160" y="456" type="curve"/>
      <point x="152" y="448" type="line"/>
      <point x="144" y="448" type="line"/>
      <point x="136" y="456" type="line"/>
      <point x="136" y="464" type="line"/>
      <point x="152" y="512" type="line"/>
      <point x="152" y="728" type="line"/>
      <point x="144" y="736" type="line"/>
      <point x="88" y="736" type="line"/>
      <point x="80" y="728" type="line"/>
      <point x="80" y="8" type="line"/>
      <point x="88" y="0" type="line"/>
      <point x="120" y="0" type="line"/>
      <point x="128" y="8" type="line"/>
      <point x="144" y="56" type="line"/>
      <point x="152" y="64" type="line"/>
      <point x="160" y="64" type="line"/>
      <point x="168" y="56" type="line"/>
      <point x="184" y="0"/>
      <point x="227" y="-16"/>
    </contour>
    <contour>
      <point x="256" y="64" type="curve" smooth="yes"/>
      <point x="176" y="64"/>
      <point x="152" y="112"/>
      <point x="152" y="216" type="curve" smooth="yes"/>
      <point x="152" y="296" type="line" smooth="yes"/>
      <point x="152" y="400"/>
      <point x="176" y="448"/>
      <point x="256" y="448" type="curve" smooth="yes"/>
      <point x="336" y="448"/>
      <point x="360" y="400"/>
      <point x="360" y="296" type="curve" smooth="yes"/>
      <point x="360" y="216" type="line" smooth="yes"/>
      <point x="360" y="112"/>
      <point x="336" y="64"/>
    </contour>
  </outline>
</glyph>
<glyph name="c" format="2">
  <advance width="512"/>
  <unicode hex="0063"/>
  <anchor x="263" y="512" name="top"/>
  <outline>
    <contour>
      <point x="257" y="-8" type="curve" smooth="yes"/>
      <point x="373" y="-8"/>
      <point x="450" y="53"/>
      <point x="450" y="164" type="curve" smooth="yes"/>
      <point x="450" y="204" type="line"/>
      <point x="442" y="212" type="line"/>
      <point x="330" y="212" type="line"/>
      <point x="322" y="204" type="line"/>
      <point x="322" y="187" type="line" smooth="yes"/>
      <point x="322" y="166"/>
      <point x="292" y="152"/>
      <point x="257" y="152" type="curve" smooth="yes"/>
      <point x="210" y="152"/>
      <point x="190" y="166"/>
      <point x="190" y="203" type="curve" smooth="yes"/>
      <point x="190" y="323" type="line" smooth="yes"/>
      <point x="190" y="350"/>
      <point x="209" y="360"/>
      <point x="256" y="360" type="curve" smooth="yes"/>
      <point x="301" y="360"/>
      <point x="322" y="349"/>
      <point x="322" y="323" type="curve" smooth="yes"/>
      <point x="322" y="306" type="line"/>
      <point x="330" y="298" type="line"/>
      <point x="442" y="298" type="line"/>
      <point x="450" y="306" type="line"/>
      <point x="450" y="327" type="line" smooth="yes"/>
      <point x="450" y="483"/>
      <point x="372" y="528"/>
      <point x="256" y="528" type="curve" smooth="yes"/>
      <point x="143" y="528"/>
      <point x="62" y="476"/>
      <point x="62" y="327" type="curve" smooth="yes"/>
      <point x="62" y="198" type="line" smooth="yes"/>
      <point x="62" y="61"/>
      <point x="137" y="-8"/>
    </contour>
  </outline>
</glyph>
<glyph name="d" format="2">
  <advance width="512"/>
  <unicode hex="0064"/>
  <outline>
    <contour>
      <point x="240" y="-16" type="curve" smooth="yes"/>
      <point x="285" y="-16"/>
      <point x="328" y="0"/>
      <point x="344" y="56" type="curve"/>
      <point x="352" y="64" type="line"/>
      <point x="360" y="64" type="line"/>
      <point x="368" y="56" type="line"/>
      <point x="384" y="8" type="line"/>
      <point x="392" y="0" type="line"/>
      <point x="424" y="0" type="line"/>
      <point x="432" y="8" type="line"/>
      <point x="432" y="728" type="line"/>
      <point x="424" y="736" type="line"/>
      <point x="368" y="736" type="line"/>
      <point x="360" y="728" type="line"/>
      <point x="360" y="512" type="line"/>
      <point x="376" y="464" type="line"/>
      <point x="376" y="456" type="line"/>
      <point x="368" y="448" type="line"/>
      <point x="360" y="448" type="line"/>
      <point x="352" y="456" type="line"/>
      <point x="337" y="492"/>
      <point x="292" y="528"/>
      <point x="240" y="528" type="curve" smooth="yes"/>
      <point x="128" y="528"/>
      <point x="80" y="456"/>
      <point x="80" y="312" type="curve" smooth="yes"/>
      <point x="80" y="200" type="line" smooth="yes"/>
      <point x="80" y="56"/>
      <point x="112" y="-16"/>
    </contour>
    <contour>
      <point x="256" y="64" type="curve" smooth="yes"/>
      <point x="176" y="64"/>
      <point x="152" y="112"/>
      <point x="152" y="216" type="curve" smooth="yes"/>
      <point x="152" y="296" type="line" smooth="yes"/>
      <point x="152" y="400"/>
      <point x="176" y="448"/>
      <point x="256" y="448" type="curve" smooth="yes"/>
      <point x="336" y="448"/>
      <point x="360" y="400"/>
      <point x="360" y="296" type="curve" smooth="yes"/>
      <point x="360" y="216" type="line" smooth="yes"/>
      <point x="360" y="112"/>
      <point x="336" y="64"/>
    </contour>
  </outline>
</glyph>
<glyph name="e" format="2">
  <advance width="512"/>
  <unicode hex="0065"/>
  <outline>
    <contour>
      <point x="256" y="-16" type="curve" smooth="yes"/>
      <point x="384" y="-16"/>
      <point x="464" y="56"/>
      <point x="464" y="168" type="curve" smooth="yes"/>
      <point x="464" y="184" type="line"/>
      <point x="456" y="192" type="line"/>
      <point x="312" y="192" type="line"/>
      <point x="304" y="184" type="line"/>
      <point x="304" y="176" type="line" smooth="yes"/>
      <point x="304" y="160"/>
      <point x="288" y="144"/>
      <point x="256" y="144" type="curve" smooth="yes"/>
      <point x="224" y="144"/>
      <point x="208" y="160"/>
      <point x="208" y="200" type="curve" smooth="yes"/>
      <point x="208" y="232" type="line"/>
      <point x="216" y="240" type="line"/>
      <point x="456" y="240" type="line"/>
      <point x="464" y="248" type="line"/>
      <point x="464" y="320" type="line" smooth="yes"/>
      <point x="464" y="448"/>
      <point x="384" y="528"/>
      <point x="256" y="528" type="curve" smooth="yes"/>
      <point x="128" y="528"/>
      <point x="48" y="448"/>
      <point x="48" y="320" type="curve" smooth="yes"/>
      <point x="48" y="192" type="line" smooth="yes"/>
      <point x="48" y="64"/>
      <point x="128" y="-16"/>
    </contour>
    <contour>
      <point x="216" y="288" type="line"/>
      <point x="208" y="296" type="line"/>
      <point x="208" y="312" type="line" smooth="yes"/>
      <point x="208" y="352"/>
      <point x="224" y="368"/>
      <point x="256" y="368" type="curve" smooth="yes"/>
      <point x="288" y="368"/>
      <point x="304" y="352"/>
      <point x="304" y="312" type="curve" smooth="yes"/>
      <point x="304" y="296" type="line"/>
      <point x="296" y="288" type="line"/>
    </contour>
  </outline>
</glyph>
<glyph name="g" format="2">
  <advance width="512"/>
  <unicode hex="0067"/>
  <anchor x="266" y="512" name="top"/>
  <outline>
    <contour>
      <point x="432" y="-31" type="curve" smooth="yes"/>
      <point x="432" y="504" type="line"/>
      <point x="424" y="512" type="line"/>
      <point x="392" y="512" type="line"/>
      <point x="384" y="504" type="line"/>
      <point x="368" y="456" type="line"/>
      <point x="360" y="448" type="line"/>
      <point x="352" y="448" type="line"/>
      <point x="344" y="456" type="line"/>
      <point x="328" y="512"/>
      <point x="285" y="528"/>
      <point x="240" y="528" type="curve" smooth="yes"/>
      <point x="112" y="528"/>
      <point x="80" y="456"/>
      <point x="80" y="312" type="curve" smooth="yes"/>
      <point x="80" y="200" type="line" smooth="yes"/>
      <point x="80" y="56"/>
      <point x="128" y="-16"/>
      <point x="240" y="-16" type="curve" smooth="yes"/>
      <point x="292" y="-16"/>
      <point x="337" y="20"/>
      <point x="352" y="56" type="curve"/>
      <point x="360" y="64" type="line"/>
      <point x="368" y="64" type="line"/>
      <point x="376" y="56" type="line"/>
      <point x="376" y="48" type="line"/>
      <point x="360" y="0" type="line"/>
      <point x="360" y="-48" type="line" smooth="yes"/>
      <point x="360" y="-105"/>
      <point x="330" y="-128"/>
      <point x="258" y="-128" type="curve" smooth="yes"/>
      <point x="136" y="-128" type="line"/>
      <point x="128" y="-136" type="line"/>
      <point x="128" y="-200" type="line"/>
      <point x="136" y="-208" type="line"/>
      <point x="258" y="-208" type="line" smooth="yes"/>
      <point x="394" y="-208"/>
      <point x="432" y="-144"/>
    </contour>
    <contour>
      <point x="256" y="448" type="curve" smooth="yes"/>
      <point x="336" y="448"/>
      <point x="360" y="400"/>
      <point x="360" y="296" type="curve" smooth="yes"/>
      <point x="360" y="216" type="line" smooth="yes"/>
      <point x="360" y="112"/>
      <point x="336" y="64"/>
      <point x="256" y="64" type="curve" smooth="yes"/>
      <point x="176" y="64"/>
      <point x="152" y="112"/>
      <point x="152" y="216" type="curve" smooth="yes"/>
      <point x="152" y="296" type="line" smooth="yes"/>
      <point x="152" y="400"/>
      <point x="176" y="448"/>
    </contour>
  </outline>
</glyph>
<glyph name="h" format="2">
  <advance width="512"/>
  <unicode hex="0068"/>
  <outline>
    <contour>
      <point x="88" y="0" type="line"/>
      <point x="144" y="0" type="line"/>
      <point x="152" y="8" type="line"/>
      <point x="152" y="321" type="line" smooth="yes"/>
      <point x="152" y="416"/>
      <point x="200" y="448"/>
      <point x="256" y="448" type="curve" smooth="yes"/>
      <point x="312" y="448"/>
      <point x="360" y="416"/>
      <point x="360" y="321" type="curve" smooth="yes"/>
      <point x="360" y="8" type="line"/>
      <point x="368" y="0" type="line"/>
      <point x="424" y="0" type="line"/>
      <point x="432" y="8" type="line"/>
      <point x="432" y="353" type="line" smooth="yes"/>
      <point x="432" y="472"/>
      <point x="377" y="528"/>
      <point x="292" y="528" type="curve" smooth="yes"/>
      <point x="235" y="528"/>
      <point x="200" y="512"/>
      <point x="160" y="456" type="curve"/>
      <point x="152" y="448" type="line"/>
      <point x="144" y="448" type="line"/>
      <point x="136" y="456" type="line"/>
      <point x="136" y="464" type="line"/>
      <point x="152" y="512" type="line"/>
      <point x="152" y="728" type="line"/>
      <point x="144" y="736" type="line"/>
      <point x="88" y="736" type="line"/>
      <point x="80" y="728" type="line"/>
      <point x="80" y="8" type="line"/>
    </contour>
  </outline>
</glyph>
<glyph name="i" format="2">
  <advance width="512"/>
  <unicode hex="0069"/>
  <outline>
    <contour>
      <point x="48" y="0" type="line"/>
      <point x="464" y="0" type="line"/>
      <point x="472" y="8" type="line"/>
      <point x="472" y="72" type="line"/>
      <point x="464" y="80" type="line"/>
      <point x="290" y="80" type="line"/>
      <point x="282" y="88" type="line"/>
      <point x="282" y="504" type="line"/>
      <point x="274" y="512" type="line"/>
      <point x="48" y="512" type="line"/>
      <point x="40" y="504" type="line"/>
      <point x="40" y="440" type="line"/>
      <point x="48" y="432" type="line"/>
      <point x="202" y="432" type="line"/>
      <point x="210" y="424" type="line"/>
      <point x="210" y="88" type="line"/>
      <point x="202" y="80" type="line"/>
      <point x="48" y="80" type="line"/>
      <point x="40" y="72" type="line"/>
      <point x="40" y="8" type="line"/>
    </contour>
    <contour>
      <point x="228" y="605" type="curve" smooth="yes"/>
      <point x="264" y="605"/>
      <point x="292" y="633"/>
      <point x="292" y="670" type="curve" smooth="yes"/>
      <point x="292" y="706"/>
      <point x="264" y="733"/>
      <point x="228" y="733" type="curve" smooth="yes"/>
      <point x="192" y="733"/>
      <point x="164" y="706"/>
      <point x="164" y="670" type="curve" smooth="yes"/>
      <point x="164" y="633"/>
      <point x="192" y="605"/>
    </contour>
  </outline>
</glyph>
<glyph name="k" format="2">
  <advance width="512"/>
  <unicode hex="006B"/>
  <outline>
    <contour>
      <point x="88" y="0" type="line"/>
      <point x="144" y="0" type="line"/>
      <point x="152" y="8" type="line"/>
      <point x="152" y="212" type="line"/>
      <point x="160" y="220" type="line"/>
      <point x="213" y="220" type="line"/>
      <point x="378" y="8" type="line"/>
      <point x="390" y="0" type="line"/>
      <point x="448" y="0" type="line"/>
      <point x="456" y="8" type="line"/>
      <point x="456" y="16" type="line"/>
      <point x="274" y="251" type="line"/>
      <point x="274" y="267" type="line"/>
      <point x="438" y="496" type="line"/>
      <point x="438" y="504" type="line"/>
      <point x="430" y="512" type="line"/>
      <point x="373" y="512" type="line"/>
      <point x="365" y="504" type="line"/>
      <point x="218" y="300" type="line"/>
      <point x="160" y="300" type="line"/>
      <point x="152" y="308" type="line"/>
      <point x="152" y="696" type="line"/>
      <point x="144" y="704" type="line"/>
      <point x="88" y="704" type="line"/>
      <point x="80" y="696" type="line"/>
      <point x="80" y="8" type="line"/>
    </contour>
  </outline>
</glyph>
<glyph name="l" format="2">
  <advance width="512"/>
  <unicode hex="006C"/>
  <anchor x="239" y="736" name="top"/>
  <outline>
    <contour>
      <point x="48" y="0" type="line"/>
      <point x="464" y="0" type="line"/>
      <point x="472" y="8" type="line"/>
      <point x="472" y="152" type="line"/>
      <point x="464" y="160" type="line"/>
      <point x="346" y="160" type="line"/>
      <point x="338" y="168" type="line"/>
      <point x="338" y="728" type="line"/>
      <point x="330" y="736" type="line"/>
      <point x="50" y="736" type="line"/>
      <point x="42" y="728" type="line"/>
      <point x="42" y="584" type="line"/>
      <point x="50" y="576" type="line"/>
      <point x="170" y="576" type="line"/>
      <point x="178" y="568" type="line"/>
      <point x="178" y="168" type="line"/>
      <point x="170" y="160" type="line"/>
      <point x="48" y="160" type="line"/>
      <point x="40" y="152" type="line"/>
      <point x="40" y="8" type="line"/>
    </contour>
  </outline>
</glyph>
<glyph name="m" format="2">
  <advance width="512"/>
  <unicode hex="006D"/>
  <outline>
    <contour>
      <point x="70" y="0" type="line"/>
      <point x="126" y="0" type="line"/>
      <point x="134" y="8" type="line"/>
      <point x="134" y="384" type="line" smooth="yes"/>
      <point x="134" y="424"/>
      <point x="142" y="448"/>
      <point x="180" y="448" type="curve" smooth="yes"/>
      <point x="218" y="448"/>
      <point x="226" y="424"/>
      <point x="226" y="384" type="curve" smooth="yes"/>
      <point x="226" y="8" type="line"/>
      <point x="234" y="0" type="line"/>
      <point x="278" y="0" type="line"/>
      <point x="286" y="8" type="line"/>
      <point x="286" y="384" type="line" smooth="yes"/>
      <point x="286" y="424"/>
      <point x="294" y="448"/>
      <point x="332" y="448" type="curve" smooth="yes"/>
      <point x="370" y="448"/>
      <point x="378" y="424"/>
      <point x="378" y="384" type="curve" smooth="yes"/>
      <point x="378" y="8" type="line"/>
      <point x="386" y="0" type="line"/>
      <point x="442" y="0" type="line"/>
      <point x="450" y="8" type="line"/>
      <point x="450" y="429" type="line" smooth="yes"/>
      <point x="450" y="493"/>
      <point x="432" y="528"/>
      <point x="372" y="528" type="curve" smooth="yes"/>
      <point x="328" y="528"/>
      <point x="307" y="496"/>
      <point x="299" y="456" type="curve"/>
      <point x="291" y="448" type="line"/>
      <point x="283" y="448" type="line"/>
      <point x="275" y="456" type="line"/>
      <point x="267" y="496"/>
      <point x="251" y="528"/>
      <point x="211" y="528" type="curve" smooth="yes"/>
      <point x="171" y="528"/>
      <point x="154" y="496"/>
      <point x="146" y="456" type="curve"/>
      <point x="138" y="448" type="line"/>
      <point x="130" y="448" type="line"/>
      <point x="122" y="456" type="line"/>
      <point x="114" y="504" type="line"/>
      <point x="106" y="512" type="line"/>
      <point x="70" y="512" type="line"/>
      <point x="62" y="504" type="line"/>
      <point x="62" y="8" type="line"/>
    </contour>
  </outline>
</glyph>
<glyph name="n" format="2">
  <advance width="512"/>
  <unicode hex="006E"/>
  <anchor x="260" y="512" name="top"/>
  <outline>
    <contour>
      <point x="88" y="0" type="line"/>
      <point x="144" y="0" type="line"/>
      <point x="152" y="8" type="line"/>
      <point x="152" y="319" type="line" smooth="yes"/>
      <point x="152" y="407"/>
      <point x="176" y="448"/>
      <point x="256" y="448" type="curve" smooth="yes"/>
      <point x="336" y="448"/>
      <point x="360" y="407"/>
      <point x="360" y="319" type="curve" smooth="yes"/>
      <point x="360" y="8" type="line"/>
      <point x="368" y="0" type="line"/>
      <point x="424" y="0" type="line"/>
      <point x="432" y="8" type="line"/>
      <point x="432" y="335" type="line" smooth="yes"/>
      <point x="432" y="471"/>
      <point x="365" y="528"/>
      <point x="288" y="528" type="curve" smooth="yes"/>
      <point x="224" y="528"/>
      <point x="191" y="496"/>
      <point x="168" y="456" type="curve"/>
      <point x="160" y="448" type="line"/>
      <point x="152" y="448" type="line"/>
      <point x="144" y="456" type="line"/>
      <point x="136" y="504" type="line"/>
      <point x="128" y="512" type="line"/>
      <point x="88" y="512" type="line"/>
      <point x="80" y="504" type="line"/>
      <point x="80" y="8" type="line"/>
    </contour>
  </outline>
</glyph>
<glyph name="o" format="2">
  <advance width="512"/>
  <unicode hex="006F"/>
  <outline>
    <contour>
      <point x="256" y="-16" type="curve" smooth="yes"/>
      <point x="384" y="-16"/>
      <point x="464" y="64"/>
      <point x="464" y="192" type="curve" smooth="yes"/>
      <point x="464" y="320" type="line" smooth="yes"/>
      <point x="464" y="448"/>
      <point x="384" y="528"/>
      <point x="256" y="528" type="curve" smooth="yes"/>
      <point x="128" y="528"/>
      <point x="48" y="448"/>
      <point x="48" y="320" type="curve" smooth="yes"/>
      <point x="48" y="192" type="line" smooth="yes"/>
      <point x="48" y="64"/>
      <point x="128" y="-16"/>
    </contour>
    <contour>
      <point x="256" y="144" type="curve" smooth="yes"/>
      <point x="216" y="144"/>
      <point x="208" y="168"/>
      <point x="208" y="208" type="curve" smooth="yes"/>
      <point x="208" y="304" type="line" smooth="yes"/>
      <point x="208" y="344"/>
      <point x="216" y="368"/>
      <point x="256" y="368" type="curve" smooth="yes"/>
      <point x="296" y="368"/>
      <point x="304" y="344"/>
      <point x="304" y="304" type="curve" smooth="yes"/>
      <point x="304" y="208" type="line" smooth="yes"/>
      <point x="304" y="168"/>
      <point x="296" y="144"/>
    </contour>
  </outline>
</glyph>
<glyph name="p" format="2">
  <advance width="512"/>
  <unicode hex="0070"/>
  <outline>
    <contour>
      <point x="272" y="528" type="curve" smooth="yes"/>
      <point x="227" y="528"/>
      <point x="184" y="512"/>
      <point x="168" y="456" type="curve"/>
      <point x="160" y="448" type="line"/>
      <point x="152" y="448" type="line"/>
      <point x="144" y="456" type="line"/>
      <point x="128" y="504" type="line"/>
      <point x="120" y="512" type="line"/>
      <point x="88" y="512" type="line"/>
      <point x="80" y="504" type="line"/>
      <point x="80" y="-216" type="line"/>
      <point x="88" y="-224" type="line"/>
      <point x="144" y="-224" type="line"/>
      <point x="152" y="-216" type="line"/>
      <point x="152" y="0" type="line"/>
      <point x="136" y="48" type="line"/>
      <point x="136" y="56" type="line"/>
      <point x="144" y="64" type="line"/>
      <point x="152" y="64" type="line"/>
      <point x="160" y="56" type="line"/>
      <point x="175" y="20"/>
      <point x="220" y="-16"/>
      <point x="272" y="-16" type="curve" smooth="yes"/>
      <point x="384" y="-16"/>
      <point x="432" y="56"/>
      <point x="432" y="200" type="curve" smooth="yes"/>
      <point x="432" y="312" type="line" smooth="yes"/>
      <point x="432" y="456"/>
      <point x="400" y="528"/>
    </contour>
    <contour>
      <point x="256" y="448" type="curve" smooth="yes"/>
      <point x="336" y="448"/>
      <point x="360" y="400"/>
      <point x="360" y="296" type="curve" smooth="yes"/>
      <point x="360" y="216" type="line" smooth="yes"/>
      <point x="360" y="112"/>
      <point x="336" y="64"/>
      <point x="256" y="64" type="curve" smooth="yes"/>
      <point x="176" y="64"/>
      <point x="152" y="112"/>
      <point x="152" y="216" type="curve" smooth="yes"/>
      <point x="152" y="296" type="line" smooth="yes"/>
      <point x="152" y="400"/>
      <point x="176" y="448"/>
    </contour>
  </outline>
</glyph>
<glyph name="r" format="2">
  <advance width="512"/>
  <unicode hex="0072"/>
  <anchor x="269" y="512" name="top"/>
  <outline>
    <contour>
      <point x="72" y="0" type="line"/>
      <point x="354" y="0" type="line"/>
      <point x="362" y="8" type="line"/>
      <point x="362" y="72" type="line"/>
      <point x="354" y="80" type="line"/>
      <point x="242" y="80" type="line"/>
      <point x="234" y="88" type="line"/>
      <point x="234" y="304" type="line" smooth="yes"/>
      <point x="234" y="400"/>
      <point x="266" y="432"/>
      <point x="362" y="432" type="curve" smooth="yes"/>
      <point x="463" y="432" type="line"/>
      <point x="471" y="440" type="line"/>
      <point x="472" y="504" type="line"/>
      <point x="464" y="512" type="line"/>
      <point x="356" y="512" type="line" smooth="yes"/>
      <point x="292" y="512"/>
      <point x="261" y="474"/>
      <point x="234" y="416" type="curve"/>
      <point x="226" y="408" type="line"/>
      <point x="218" y="408" type="line"/>
      <point x="210" y="416" type="line"/>
      <point x="210" y="424" type="line"/>
      <point x="226" y="472" type="line"/>
      <point x="226" y="504" type="line"/>
      <point x="218" y="512" type="line"/>
      <point x="72" y="512" type="line"/>
      <point x="64" y="504" type="line"/>
      <point x="64" y="440" type="line"/>
      <point x="72" y="432" type="line"/>
      <point x="154" y="432" type="line"/>
      <point x="162" y="424" type="line"/>
      <point x="162" y="88" type="line"/>
      <point x="154" y="80" type="line"/>
      <point x="72" y="80" type="line"/>
      <point x="64" y="72" type="line"/>
      <point x="64" y="8" type="line"/>
    </contour>
  </outline>
</glyph>
<glyph name="s" format="2">
  <advance width="512"/>
  <unicode hex="0073"/>
  <anchor x="256" y="512" name="top"/>
  <outline>
    <contour>
      <point x="264" y="-16" type="curve" smooth="yes"/>
      <point x="360" y="-16"/>
      <point x="432" y="24"/>
      <point x="432" y="121" type="curve" smooth="yes"/>
      <point x="432" y="225"/>
      <point x="378" y="254"/>
      <point x="258" y="296" type="curve" smooth="yes"/>
      <point x="197" y="317"/>
      <point x="164" y="343"/>
      <point x="164" y="375" type="curve" smooth="yes"/>
      <point x="164" y="415"/>
      <point x="176" y="448"/>
      <point x="256" y="448" type="curve" smooth="yes"/>
      <point x="312" y="448"/>
      <point x="340" y="415"/>
      <point x="340" y="375" type="curve" smooth="yes"/>
      <point x="340" y="358" type="line"/>
      <point x="348" y="350" type="line"/>
      <point x="404" y="350" type="line"/>
      <point x="412" y="358" type="line"/>
      <point x="412" y="391" type="line" smooth="yes"/>
      <point x="412" y="479"/>
      <point x="352" y="528"/>
      <point x="248" y="528" type="curve" smooth="yes"/>
      <point x="144" y="528"/>
      <point x="92" y="479"/>
      <point x="92" y="391" type="curve" smooth="yes"/>
      <point x="92" y="313"/>
      <point x="135" y="261"/>
      <point x="256" y="220" type="curve" smooth="yes"/>
      <point x="328" y="196"/>
      <point x="360" y="171"/>
      <point x="360" y="137" type="curve" smooth="yes"/>
      <point x="360" y="105"/>
      <point x="344" y="64"/>
      <point x="256" y="64" type="curve" smooth="yes"/>
      <point x="192" y="64"/>
      <point x="152" y="105"/>
      <point x="152" y="137" type="curve" smooth="yes"/>
      <point x="152" y="162" type="line"/>
      <point x="144" y="170" type="line"/>
      <point x="88" y="170" type="line"/>
      <point x="80" y="162" type="line"/>
      <point x="80" y="121" type="line" smooth="yes"/>
      <point x="80" y="24"/>
      <point x="176" y="-16"/>
    </contour>
  </outline>
</glyph>
<glyph name="t" format="2">
  <advance width="512"/>
  <unicode hex="0074"/>
  <outline>
    <contour>
      <point x="343" y="0" type="curve" smooth="yes"/>
      <point x="392" y="0" type="line"/>
      <point x="400" y="8" type="line"/>
      <point x="401" y="72" type="line"/>
      <point x="393" y="80" type="line"/>
      <point x="343" y="80" type="line" smooth="yes"/>
      <point x="288" y="80"/>
      <point x="282" y="117"/>
      <point x="282" y="193" type="curve" smooth="yes"/>
      <point x="282" y="424" type="line"/>
      <point x="290" y="432" type="line"/>
      <point x="442" y="432" type="line"/>
      <point x="450" y="440" type="line"/>
      <point x="450" y="504" type="line"/>
      <point x="442" y="512" type="line"/>
      <point x="290" y="512" type="line"/>
      <point x="282" y="520" type="line"/>
      <point x="282" y="640" type="line"/>
      <point x="274" y="648" type="line"/>
      <point x="218" y="648" type="line"/>
      <point x="210" y="640" type="line"/>
      <point x="210" y="520" type="line"/>
      <point x="202" y="512" type="line"/>
      <point x="103" y="512" type="line"/>
      <point x="95" y="504" type="line"/>
      <point x="95" y="440" type="line"/>
      <point x="103" y="432" type="line"/>
      <point x="202" y="432" type="line"/>
      <point x="210" y="424" type="line"/>
      <point x="210" y="181" type="line" smooth="yes"/>
      <point x="210" y="65"/>
      <point x="222" y="0"/>
    </contour>
  </outline>
</glyph>
<glyph name="u" format="2">
  <advance width="512"/>
  <unicode hex="0075"/>
  <outline>
    <contour>
      <point x="424" y="512" type="line"/>
      <point x="368" y="512" type="line"/>
      <point x="360" y="504" type="line"/>
      <point x="360" y="193" type="line" smooth="yes"/>
      <point x="360" y="105"/>
      <point x="336" y="64"/>
      <point x="256" y="64" type="curve" smooth="yes"/>
      <point x="176" y="64"/>
      <point x="152" y="105"/>
      <point x="152" y="193" type="curve" smooth="yes"/>
      <point x="152" y="504" type="line"/>
      <point x="144" y="512" type="line"/>
      <point x="88" y="512" type="line"/>
      <point x="80" y="504" type="line"/>
      <point x="80" y="177" type="line" smooth="yes"/>
      <point x="80" y="41"/>
      <point x="135" y="-16"/>
      <point x="220" y="-16" type="curve" smooth="yes"/>
      <point x="284" y="-16"/>
      <point x="313" y="8"/>
      <point x="344" y="56" type="curve"/>
      <point x="352" y="64" type="line"/>
      <point x="360" y="64" type="line"/>
      <point x="368" y="56" type="line"/>
      <point x="376" y="8" type="line"/>
      <point x="384" y="0" type="line"/>
      <point x="424" y="0" type="line"/>
      <point x="432" y="8" type="line"/>
      <point x="432" y="504" type="line"/>
    </contour>
  </outline>
</glyph>
<glyph name="v" format="2">
  <advance width="512"/>
  <unicode hex="0076"/>
  <outline>
    <contour>
      <point x="184" y="0" type="line"/>
      <point x="328" y="0" type="line"/>
      <point x="336" y="8" type="line"/>
      <point x="456" y="472" type="line"/>
      <point x="456" y="504" type="line"/>
      <point x="448" y="512" type="line"/>
      <point x="392" y="512" type="line"/>
      <point x="384" y="504" type="line"/>
      <point x="284" y="88" type="line"/>
      <point x="276" y="80" type="line"/>
      <point x="236" y="80" type="line"/>
      <point x="228" y="88" type="line"/>
      <point x="128" y="504" type="line"/>
      <point x="120" y="512" type="line"/>
      <point x="64" y="512" type="line"/>
      <point x="56" y="504" type="line"/>
      <point x="56" y="472" type="line"/>
      <point x="176" y="8" type="line"/>
    </contour>
  </outline>
</glyph>
<glyph name="w" format="2">
  <advance width="512"/>
  <unicode hex="0077"/>
  <anchor x="253" y="512" name="top"/>
  <outline>
    <contour>
      <point x="83" y="0" type="line"/>
      <point x="179" y="0" type="line"/>
      <point x="187" y="8" type="line"/>
      <point x="248" y="182" type="line"/>
      <point x="264" y="182" type="line"/>
      <point x="325" y="8" type="line"/>
      <point x="333" y="0" type="line"/>
      <point x="429" y="0" type="line"/>
      <point x="437" y="8" type="line"/>
      <point x="495" y="504" type="line"/>
      <point x="487" y="512" type="line"/>
      <point x="427" y="512" type="line"/>
      <point x="419" y="504" type="line"/>
      <point x="382" y="102" type="line"/>
      <point x="366" y="102" type="line"/>
      <point x="296" y="312" type="line"/>
      <point x="288" y="320" type="line"/>
      <point x="224" y="320" type="line"/>
      <point x="216" y="312" type="line"/>
      <point x="146" y="102" type="line"/>
      <point x="130" y="102" type="line"/>
      <point x="93" y="496" type="line"/>
      <point x="93" y="504" type="line"/>
      <point x="85" y="512" type="line"/>
      <point x="25" y="512" type="line"/>
      <point x="17" y="504" type="line"/>
      <point x="17" y="496" type="line"/>
      <point x="75" y="8" type="line"/>
    </contour>
  </outline>
</glyph>
<glyph name="y" format="2">
  <advance width="512"/>
  <unicode hex="0079"/>
  <anchor x="263" y="512" name="top"/>
  <outline>
    <contour>
      <point x="200" y="0" type="line"/>
      <point x="232" y="0" type="line"/>
      <point x="240" y="-8" type="line"/>
      <point x="240" y="-16" type="line"/>
      <point x="229" y="-56" type="line" smooth="yes"/>
      <point x="214" y="-110"/>
      <point x="197" y="-128"/>
      <point x="157" y="-128" type="curve" smooth="yes"/>
      <point x="40" y="-128" type="line"/>
      <point x="32" y="-136" type="line"/>
      <point x="32" y="-200" type="line"/>
      <point x="40" y="-208" type="line"/>
      <point x="165" y="-208" type="line" smooth="yes"/>
      <point x="245" y="-208"/>
      <point x="271" y="-156"/>
      <point x="293" y="-80" type="curve" smooth="yes"/>
      <point x="448" y="456" type="line"/>
      <point x="448" y="504" type="line"/>
      <point x="440" y="512" type="line"/>
      <point x="384" y="512" type="line"/>
      <point x="376" y="504" type="line"/>
      <point x="288" y="184" type="line"/>
      <point x="276" y="88" type="line"/>
      <point x="268" y="80" type="line"/>
      <point x="244" y="80" type="line"/>
      <point x="236" y="88" type="line"/>
      <point x="224" y="184" type="line"/>
      <point x="136" y="504" type="line"/>
      <point x="128" y="512" type="line"/>
      <point x="72" y="512" type="line"/>
      <point x="64" y="504" type="line"/>
      <point x="64" y="456" type="line"/>
      <point x="192" y="8" type="line"/>
    </contour>
  </outline>
</glyph>
<glyph name="z" format="2">
  <advance width="512"/>
  <unicode hex="007A"/>
  <anchor x="259" y="512" name="top"/>
  <outline>
    <contour>
      <point x="80" y="0" type="line"/>
      <point x="432" y="0" type="line"/>
      <point x="440" y="8" type="line"/>
      <point x="440" y="72" type="line"/>
      <point x="432" y="80" type="line"/>
      <point x="166" y="80" type="line"/>
      <point x="158" y="88" type="line"/>
      <point x="440" y="432" type="line"/>
      <point x="440" y="504" type="line"/>
      <point x="432" y="512" type="line"/>
      <point x="80" y="512" type="line"/>
      <point x="72" y="504" type="line"/>
      <point x="72" y="440" type="line"/>
      <point x="80" y="432" type="line"/>
      <point x="351" y="432" type="line"/>
      <point x="359" y="424" type="line"/>
      <point x="72" y="80" type="line"/>
      <point x="72" y="8" type="line"/>
    </contour>
  </outline>
</glyph>
<glyph name="bar" format="2">
  <advance width="512"/>
  <unicode hex="007C"/>
  <outline>
    <contour>
      <point x="217" y="-208" type="line"/>
      <point x="296" y="-208" type="line"/>
      <point x="296" y="704" type="line"/>
      <point x="217" y="704" type="line"/>
    </contour>
  </outline>
</glyph>
<glyph name="asciitilde" format="2">
  <advance width="512"/>
  <unicode hex="007E"/>
  <outline>
    <contour>
      <point x="353" y="302" type="curve" smooth="yes"/>
      <point x="419" y="302"/>
      <point x="466" y="370"/>
      <point x="466" y="471" type="curve" smooth="yes"/>
      <point x="466" y="606" type="line"/>
      <point x="395" y="606" type="line"/>
      <point x="395" y="476" type="line" smooth="yes"/>
      <point x="395" y="440"/>
      <point x="391" y="376"/>
      <point x="352" y="376" type="curve" smooth="yes"/>
      <point x="327" y="376"/>
      <point x="299" y="447"/>
      <point x="281" y="498" type="curve" smooth="yes"/>
      <point x="249" y="582"/>
      <point x="216" y="612"/>
      <point x="161" y="612" type="curve" smooth="yes"/>
      <point x="95" y="612"/>
      <point x="47" y="544"/>
      <point x="47" y="450" type="curve" smooth="yes"/>
      <point x="47" y="310" type="line"/>
      <point x="118" y="310" type="line"/>
      <point x="118" y="444" type="line" smooth="yes"/>
      <point x="118" y="485"/>
      <point x="119" y="538"/>
      <point x="162" y="538" type="curve" smooth="yes"/>
      <point x="175" y="538"/>
      <point x="215" y="467"/>
      <point x="233" y="416" type="curve" smooth="yes"/>
      <point x="264" y="332"/>
      <point x="296" y="302"/>
    </contour>
  </outline>
</glyph>
<glyph name="brokenbar" format="2">
  <advance width="512"/>
  <unicode hex="00A6"/>
  <outline>
    <contour>
      <point x="221" y="368" type="line"/>
      <point x="300" y="368" type="line"/>
      <point x="300" y="768" type="line"/>
      <point x="221" y="768" type="line"/>
    </contour>
    <contour>
      <point x="221" y="-208" type="line"/>
      <point x="300" y="-208" type="line"/>
      <point x="300" y="192" type="line"/>
      <point x="221" y="192" type="line"/>
    </contour>
  </outline>
</glyph>
<glyph name="guillemetleft" format="2">
  <advance width="600"/>
  <unicode hex="00AB"/>
  <outline>
    <contour>
      <point x="503" y="112" type="line"/>
      <point x="503" y="210" type="line"/>
      <point x="351" y="349" type="line"/>
      <point x="503" y="488" type="line"/>
      <point x="503" y="586" type="line"/>
      <point x="302" y="391" type="line"/>
      <point x="302" y="307" type="line"/>
    </contour>
    <contour>
      <point x="270" y="112" type="line"/>
      <point x="270" y="210" type="line"/>
      <point x="118" y="349" type="line"/>
      <point x="270" y="488" type="line"/>
      <point x="270" y="586" type="line"/>
      <point x="69" y="391" type="line"/>
      <point x="69" y="307" type="line"/>
    </contour>
  </outline>
</glyph>
<glyph name="registered" format="2">
  <advance width="512"/>
  <unicode hex="00AE"/>
  <outline>
    <contour>
      <point x="256" y="97" type="curve" smooth="yes"/>
      <point x="404" y="97"/>
      <point x="478" y="189"/>
      <point x="478" y="353" type="curve" smooth="yes"/>
      <point x="478" y="494" type="line" smooth="yes"/>
      <point x="478" y="661"/>
      <point x="404" y="768"/>
      <point x="256" y="768" type="curve" smooth="yes"/>
      <point x="107" y="768"/>
      <point x="34" y="661"/>
      <point x="34" y="494" type="curve" smooth="yes"/>
      <point x="34" y="353" type="line" smooth="yes"/>
      <point x="34" y="189"/>
      <point x="107" y="97"/>
    </contour>
    <contour>
      <point x="256" y="147" type="curve" smooth="yes"/>
      <point x="131" y="147"/>
      <point x="98" y="217"/>
      <point x="98" y="364" type="curve" smooth="yes"/>
      <point x="98" y="482" type="line" smooth="yes"/>
      <point x="98" y="625"/>
      <point x="131" y="719"/>
      <point x="256" y="719" type="curve" smooth="yes"/>
      <point x="380" y="719"/>
      <point x="414" y="625"/>
      <point x="414" y="482" type="curve" smooth="yes"/>
      <point x="414" y="364" type="line" smooth="yes"/>
      <point x="414" y="217"/>
      <point x="380" y="147"/>
    </contour>
    <contour>
      <point x="220" y="531" type="line"/>
      <point x="254" y="531" type="line" smooth="yes"/>
      <point x="271" y="531"/>
      <point x="298" y="520"/>
      <point x="298" y="479" type="curve" smooth="yes"/>
      <point x="298" y="446"/>
      <point x="279" y="443"/>
      <point x="262" y="440" type="curve" smooth="yes"/>
      <point x="220" y="432" type="line"/>
    </contour>
    <contour>
      <point x="220" y="384" type="line"/>
      <point x="249" y="384" type="line"/>
      <point x="291" y="269" type="line"/>
      <point x="365" y="269" type="line"/>
      <point x="307" y="392" type="line"/>
      <point x="339" y="404"/>
      <point x="358" y="438"/>
      <point x="358" y="479" type="curve" smooth="yes"/>
      <point x="358" y="546"/>
      <point x="314" y="586"/>
      <point x="257" y="586" type="curve" smooth="yes"/>
      <point x="160" y="586" type="line"/>
      <point x="152" y="269" type="line"/>
      <point x="220" y="269" type="line"/>
    </contour>
  </outline>
</glyph>
<glyph name="plusminus" format="2">
  <advance width="512"/>
  <unicode hex="00B1"/>
  <outline>
    <contour>
      <point x="213" y="232" type="line"/>
      <point x="298" y="232" type="line"/>
      <point x="298" y="422" type="line"/>
      <point x="466" y="422" type="line"/>
      <point x="466" y="512" type="line"/>
      <point x="298" y="512" type="line"/>
      <point x="298" y="704" type="line"/>
      <point x="213" y="704" type="line"/>
      <point x="213" y="512" type="line"/>
      <point x="44" y="512" type="line"/>
      <point x="44" y="422" type="line"/>
      <point x="213" y="422" type="line"/>
    </contour>
    <contour>
      <point x="44" y="0" type="line"/>
      <point x="466" y="0" type="line"/>
      <point x="466" y="82" type="line"/>
      <point x="44" y="82" type="line"/>
    </contour>
  </outline>
</glyph>
<glyph name="twosuperior" format="2">
  <advance width="512"/>
  <unicode hex="00B2"/>
  <outline>
    <contour>
      <point x="188" y="433" type="line"/>
      <point x="328" y="433" type="line"/>
      <point x="332" y="436" type="line"/>
      <point x="332" y="462" type="line"/>
      <point x="328" y="465" type="line"/>
      <point x="217" y="465" type="line"/>
      <point x="213" y="468" type="line"/>
      <point x="213" y="487" type="line" smooth="yes"/>
      <point x="213" y="509"/>
      <point x="229" y="519"/>
      <point x="254" y="538" type="curve" smooth="yes"/>
      <point x="279" y="559" type="line" smooth="yes"/>
      <point x="319" y="590"/>
      <point x="332" y="601"/>
      <point x="332" y="650" type="curve" smooth="yes"/>
      <point x="332" y="691"/>
      <point x="309" y="720"/>
      <point x="258" y="720" type="curve" smooth="yes"/>
      <point x="207" y="720"/>
      <point x="185" y="691"/>
      <point x="185" y="650" type="curve" smooth="yes"/>
      <point x="185" y="628" type="line"/>
      <point x="188" y="625" type="line"/>
      <point x="210" y="625" type="line"/>
      <point x="213" y="628" type="line"/>
      <point x="213" y="637" type="line" smooth="yes"/>
      <point x="213" y="672"/>
      <point x="226" y="688"/>
      <point x="258" y="688" type="curve" smooth="yes"/>
      <point x="290" y="688"/>
      <point x="303" y="672"/>
      <point x="303" y="637" type="curve" smooth="yes"/>
      <point x="303" y="609"/>
      <point x="291" y="601"/>
      <point x="267" y="582" type="curve" smooth="yes"/>
      <point x="245" y="565" type="line" smooth="yes"/>
      <point x="208" y="536"/>
      <point x="185" y="516"/>
      <point x="185" y="487" type="curve" smooth="yes"/>
      <point x="185" y="436" type="line"/>
    </contour>
  </outline>
</glyph>
<glyph name="paragraph" format="2">
  <advance width="512"/>
  <unicode hex="00B6"/>
  <outline>
    <contour>
      <point x="245" y="-208" type="line"/>
      <point x="317" y="-208" type="line"/>
      <point x="317" y="332" type="line"/>
      <point x="397" y="332" type="line"/>
      <point x="397" y="-208" type="line"/>
      <point x="469" y="-208" type="line"/>
      <point x="469" y="768" type="line"/>
      <point x="211" y="768" type="line" smooth="yes"/>
      <point x="106" y="768"/>
      <point x="40" y="688"/>
      <point x="40" y="557" type="curve" smooth="yes"/>
      <point x="40" y="392"/>
      <point x="138" y="332"/>
      <point x="245" y="332" type="curve"/>
    </contour>
  </outline>
</glyph>
<glyph name="periodcentered" format="2">
  <advance width="512"/>
  <unicode hex="00B7"/>
  <outline>
    <contour>
      <point x="256" y="304" type="curve" smooth="yes"/>
      <point x="302" y="304"/>
      <point x="338" y="340"/>
      <point x="338" y="387" type="curve" smooth="yes"/>
      <point x="338" y="433"/>
      <point x="302" y="468"/>
      <point x="256" y="468" type="curve" smooth="yes"/>
      <point x="210" y="468"/>
      <point x="174" y="433"/>
      <point x="174" y="387" type="curve" smooth="yes"/>
      <point x="174" y="340"/>
      <point x="210" y="304"/>
    </contour>
  </outline>
</glyph>
<glyph name="cedilla" format="2">
  <advance width="512"/>
  <unicode hex="00B8"/>
  <outline>
    <contour>
      <point x="228" y="-179" type="line"/>
      <point x="234" y="-140" type="line"/>
      <point x="294" y="-126" type="line"/>
      <point x="232" y="-96" type="line"/>
      <point x="234" y="3" type="line"/>
      <point x="292" y="4" type="line"/>
      <point x="274" y="-67" type="line"/>
      <point x="362" y="-88" type="line"/>
      <point x="354" y="-155" type="line"/>
    </contour>
  </outline>
</glyph>
<glyph name="onesuperior" format="2">
  <advance width="512"/>
  <unicode hex="00B9"/>
  <outline>
    <contour>
      <point x="189" y="449" type="line"/>
      <point x="323" y="449" type="line"/>
      <point x="326" y="452" type="line"/>
      <point x="326" y="475" type="line"/>
      <point x="323" y="478" type="line"/>
      <point x="274" y="478" type="line"/>
      <point x="272" y="481" type="line"/>
      <point x="272" y="701" type="line"/>
      <point x="269" y="704" type="line"/>
      <point x="248" y="704" type="line"/>
      <point x="245" y="701" type="line"/>
      <point x="245" y="676"/>
      <point x="219" y="664"/>
      <point x="199" y="664" type="curve" smooth="yes"/>
      <point x="191" y="664" type="line"/>
      <point x="188" y="661" type="line"/>
      <point x="188" y="638" type="line"/>
      <point x="191" y="635" type="line"/>
      <point x="199" y="635" type="line" smooth="yes"/>
      <point x="217" y="635"/>
      <point x="231" y="640"/>
      <point x="242" y="655" type="curve"/>
      <point x="245" y="655" type="line"/>
      <point x="245" y="481" type="line"/>
      <point x="242" y="478" type="line"/>
      <point x="189" y="478" type="line"/>
      <point x="186" y="475" type="line"/>
      <point x="186" y="452" type="line"/>
    </contour>
  </outline>
</glyph>
<glyph name="questiondown" format="2">
  <advance width="512"/>
  <unicode hex="00BF"/>
  <outline>
    <contour>
      <point x="256" y="720" type="curve" smooth="yes"/>
      <point x="220" y="720"/>
      <point x="192" y="692"/>
      <point x="192" y="655" type="curve" smooth="yes"/>
      <point x="192" y="619"/>
      <point x="220" y="592"/>
      <point x="256" y="592" type="curve" smooth="yes"/>
      <point x="292" y="592"/>
      <point x="320" y="619"/>
      <point x="320" y="655" type="curve" smooth="yes"/>
      <point x="320" y="692"/>
      <point x="292" y="720"/>
    </contour>
    <contour>
      <point x="303" y="526" type="line"/>
      <point x="275" y="526"/>
      <point x="249" y="525"/>
      <point x="225" y="522" type="curve" smooth="yes"/>
      <point x="216" y="521"/>
      <point x="238" y="377"/>
      <point x="199" y="374" type="curve" smooth="yes"/>
      <point x="127" y="368"/>
      <point x="80" y="326"/>
      <point x="80" y="250" type="curve" smooth="yes"/>
      <point x="80" y="156" type="line" smooth="yes"/>
      <point x="80" y="37"/>
      <point x="148" y="-16"/>
      <point x="257" y="-16" type="curve" smooth="yes"/>
      <point x="374" y="-16"/>
      <point x="432" y="49"/>
      <point x="432" y="152" type="curve" smooth="yes"/>
      <point x="432" y="184" type="line"/>
      <point x="424" y="192" type="line"/>
      <point x="368" y="192" type="line"/>
      <point x="360" y="184" type="line"/>
      <point x="360" y="152" type="line" smooth="yes"/>
      <point x="360" y="89"/>
      <point x="317" y="64"/>
      <point x="256" y="64" type="curve" smooth="yes"/>
      <point x="196" y="64"/>
      <point x="152" y="91"/>
      <point x="152" y="168" type="curve" smooth="yes"/>
      <point x="152" y="237" type="line" smooth="yes"/>
      <point x="152" y="280"/>
      <point x="172" y="302"/>
      <point x="231" y="302" type="curve" smooth="yes"/>
      <point x="303" y="302" type="line"/>
      <point x="311" y="310" type="line"/>
      <point x="311" y="518" type="line"/>
    </contour>
  </outline>
</glyph>
<glyph name="AE" format="2">
  <advance width="600"/>
  <unicode hex="00C6"/>
  <outline>
    <contour>
      <point x="162" y="252" type="line"/>
      <point x="254" y="624" type="line"/>
      <point x="295" y="624" type="line"/>
      <point x="295" y="252" type="line"/>
    </contour>
    <contour>
      <point x="32" y="0" type="line"/>
      <point x="105" y="0" type="line"/>
      <point x="148" y="172" type="line"/>
      <point x="295" y="172" type="line"/>
      <point x="295" y="0" type="line"/>
      <point x="546" y="0" type="line"/>
      <point x="546" y="80" type="line"/>
      <point x="375" y="80" type="line"/>
      <point x="375" y="323" type="line"/>
      <point x="537" y="323" type="line"/>
      <point x="537" y="403" type="line"/>
      <point x="375" y="403" type="line"/>
      <point x="375" y="624" type="line"/>
      <point x="546" y="624" type="line"/>
      <point x="546" y="704" type="line"/>
      <point x="208" y="704" type="line"/>
    </contour>
  </outline>
</glyph>
<glyph name="Thorn" format="2">
  <advance width="512"/>
  <unicode hex="00DE"/>
  <outline>
    <contour>
      <point x="88" y="0" type="line"/>
      <point x="144" y="0" type="line"/>
      <point x="152" y="8" type="line"/>
      <point x="152" y="170" type="line"/>
      <point x="160" y="170" type="line"/>
      <point x="188" y="130"/>
      <point x="232" y="106"/>
      <point x="280" y="106" type="curve" smooth="yes"/>
      <point x="368" y="106"/>
      <point x="432" y="162"/>
      <point x="432" y="282" type="curve" smooth="yes"/>
      <point x="432" y="410" type="line" smooth="yes"/>
      <point x="432" y="530"/>
      <point x="368" y="586"/>
      <point x="280" y="586" type="curve" smooth="yes"/>
      <point x="232" y="586"/>
      <point x="188" y="562"/>
      <point x="160" y="527" type="curve"/>
      <point x="152" y="527" type="line"/>
      <point x="152" y="696" type="line"/>
      <point x="144" y="704" type="line"/>
      <point x="88" y="704" type="line"/>
      <point x="80" y="696" type="line"/>
      <point x="80" y="8" type="line"/>
    </contour>
    <contour>
      <point x="256" y="186" type="curve" smooth="yes"/>
      <point x="192" y="186"/>
      <point x="152" y="218"/>
      <point x="152" y="314" type="curve" smooth="yes"/>
      <point x="152" y="378" type="line" smooth="yes"/>
      <point x="152" y="474"/>
      <point x="192" y="506"/>
      <point x="256" y="506" type="curve" smooth="yes"/>
      <point x="320" y="506"/>
      <point x="360" y="474"/>
      <point x="360" y="378" type="curve" smooth="yes"/>
      <point x="360" y="314" type="line" smooth="yes"/>
      <point x="360" y="218"/>
      <point x="320" y="186"/>
    </contour>
  </outline>
</glyph>
<glyph name="germandbls" format="2">
  <advance width="512"/>
  <unicode hex="00DF"/>
  <outline>
    <contour>
      <point x="153" y="8" type="line"/>
      <point x="153" y="616" type="line"/>
      <point x="161" y="624" type="line"/>
      <point x="256" y="624" type="line" smooth="yes"/>
      <point x="312" y="624"/>
      <point x="343" y="592"/>
      <point x="343" y="543" type="curve" smooth="yes"/>
      <point x="343" y="497" type="line" smooth="yes"/>
      <point x="343" y="440"/>
      <point x="328" y="407"/>
      <point x="256" y="407" type="curve"/>
      <point x="248" y="399" type="line"/>
      <point x="248" y="343" type="line"/>
      <point x="256" y="335" type="line"/>
      <point x="336" y="335"/>
      <point x="367" y="305"/>
      <point x="367" y="239" type="curve" smooth="yes"/>
      <point x="367" y="161" type="line" smooth="yes"/>
      <point x="367" y="102"/>
      <point x="351" y="80"/>
      <point x="272" y="80" type="curve"/>
      <point x="264" y="72" type="line"/>
      <point x="264" y="9" type="line"/>
      <point x="272" y="0" type="line"/>
      <point x="384" y="0"/>
      <point x="440" y="40"/>
      <point x="440" y="129" type="curve" smooth="yes"/>
      <point x="440" y="271" type="line" smooth="yes"/>
      <point x="440" y="315"/>
      <point x="414" y="354"/>
      <point x="353" y="368" type="curve"/>
      <point x="353" y="376" type="line"/>
      <point x="392" y="384"/>
      <point x="416" y="411"/>
      <point x="416" y="465" type="curve" smooth="yes"/>
      <point x="416" y="575" type="line" smooth="yes"/>
      <point x="416" y="664"/>
      <point x="358" y="704"/>
      <point x="272" y="704" type="curve" smooth="yes"/>
      <point x="88" y="704" type="line"/>
      <point x="80" y="696" type="line"/>
      <point x="80" y="8" type="line"/>
      <point x="88" y="0" type="line"/>
      <point x="145" y="0" type="line"/>
    </contour>
  </outline>
</glyph>
<glyph name="ccedilla" format="2">
  <advance width="512"/>
  <unicode hex="00E7"/>
  <outline>
    <contour>
      <point x="221" y="-179" type="line"/>
      <point x="347" y="-155" type="line"/>
      <point x="355" y="-88" type="line"/>
      <point x="267" y="-67" type="line"/>
      <point x="280" y="-15" type="line"/>
      <point x="371" y="-8"/>
      <point x="432" y="40"/>
      <point x="432" y="128" type="curve" smooth="yes"/>
      <point x="432" y="171" type="line"/>
      <point x="424" y="179" type="line"/>
      <point x="368" y="179" type="line"/>
      <point x="360" y="171" type="line"/>
      <point x="360" y="144" type="line" smooth="yes"/>
      <point x="360" y="96"/>
      <point x="320" y="64"/>
      <point x="256" y="64" type="curve" smooth="yes"/>
      <point x="192" y="64"/>
      <point x="152" y="96"/>
      <point x="152" y="192" type="curve" smooth="yes"/>
      <point x="152" y="320" type="line" smooth="yes"/>
      <point x="152" y="416"/>
      <point x="192" y="448"/>
      <point x="256" y="448" type="curve" smooth="yes"/>
      <point x="320" y="448"/>
      <point x="360" y="416"/>
      <point x="360" y="368" type="curve" smooth="yes"/>
      <point x="360" y="335" type="line"/>
      <point x="368" y="327" type="line"/>
      <point x="425" y="327" type="line"/>
      <point x="432" y="335" type="line"/>
      <point x="432" y="384" type="line" smooth="yes"/>
      <point x="432" y="480"/>
      <point x="360" y="528"/>
      <point x="256" y="528" type="curve" smooth="yes"/>
      <point x="152" y="528"/>
      <point x="80" y="472"/>
      <point x="80" y="352" type="curve" smooth="yes"/>
      <point x="80" y="160" type="line" smooth="yes"/>
      <point x="80" y="52"/>
      <point x="139" y="-5"/>
      <point x="227" y="-14" type="curve"/>
      <point x="225" y="-96" type="line"/>
      <point x="287" y="-126" type="line"/>
      <point x="227" y="-140" type="line"/>
    </contour>
  </outline>
</glyph>
<glyph name="eth" format="2">
  <advance width="512"/>
  <unicode hex="00F0"/>
  <outline>
    <contour>
      <point x="424" y="0" type="line"/>
      <point x="432" y="8" type="line"/>
      <point x="432" y="564" type="line"/>
      <point x="497" y="564" type="line"/>
      <point x="497" y="635" type="line"/>
      <point x="432" y="635" type="line"/>
      <point x="432" y="696" type="line"/>
      <point x="424" y="704" type="line"/>
      <point x="368" y="704" type="line"/>
      <point x="360" y="696" type="line"/>
      <point x="360" y="635" type="line"/>
      <point x="289" y="635" type="line"/>
      <point x="289" y="564" type="line"/>
      <point x="360" y="564" type="line"/>
      <point x="360" y="469" type="line"/>
      <point x="352" y="469" type="line"/>
      <point x="324" y="504"/>
      <point x="280" y="528"/>
      <point x="232" y="528" type="curve" smooth="yes"/>
      <point x="144" y="528"/>
      <point x="80" y="472"/>
      <point x="80" y="352" type="curve" smooth="yes"/>
      <point x="80" y="160" type="line" smooth="yes"/>
      <point x="80" y="40"/>
      <point x="144" y="-16"/>
      <point x="232" y="-16" type="curve" smooth="yes"/>
      <point x="280" y="-16"/>
      <point x="324" y="8"/>
      <point x="352" y="48" type="curve"/>
      <point x="360" y="48" type="line"/>
      <point x="368" y="8" type="line"/>
      <point x="376" y="0" type="line"/>
    </contour>
    <contour>
      <point x="152" y="192" type="curve" smooth="yes"/>
      <point x="152" y="320" type="line" smooth="yes"/>
      <point x="152" y="416"/>
      <point x="192" y="448"/>
      <point x="256" y="448" type="curve" smooth="yes"/>
      <point x="320" y="448"/>
      <point x="360" y="416"/>
      <point x="360" y="320" type="curve" smooth="yes"/>
      <point x="360" y="192" type="line" smooth="yes"/>
      <point x="360" y="96"/>
      <point x="320" y="64"/>
      <point x="256" y="64" type="curve" smooth="yes"/>
      <point x="192" y="64"/>
      <point x="152" y="96"/>
    </contour>
  </outline>
</glyph>
<glyph name="oslash" format="2">
  <advance width="512"/>
  <unicode hex="00F8"/>
  <outline>
    <contour>
      <point x="256" y="-16" type="curve" smooth="yes"/>
      <point x="360" y="-16"/>
      <point x="432" y="40"/>
      <point x="432" y="160" type="curve" smooth="yes"/>
      <point x="432" y="352" type="line" smooth="yes"/>
      <point x="432" y="472"/>
      <point x="360" y="528"/>
      <point x="256" y="528" type="curve" smooth="yes"/>
      <point x="152" y="528"/>
      <point x="80" y="472"/>
      <point x="80" y="352" type="curve" smooth="yes"/>
      <point x="80" y="160" type="line" smooth="yes"/>
      <point x="80" y="40"/>
      <point x="152" y="-16"/>
    </contour>
    <contour>
      <point x="256" y="64" type="curve" smooth="yes"/>
      <point x="192" y="64"/>
      <point x="152" y="96"/>
      <point x="152" y="192" type="curve" smooth="yes"/>
      <point x="152" y="320" type="line" smooth="yes"/>
      <point x="152" y="416"/>
      <point x="192" y="448"/>
      <point x="256" y="448" type="curve" smooth="yes"/>
      <point x="320" y="448"/>
      <point x="360" y="416"/>
      <point x="360" y="320" type="curve" smooth="yes"/>
      <point x="360" y="192" type="line" smooth="yes"/>
      <point x="360" y="96"/>
      <point x="320" y="64"/>
    </contour>
  </outline>
</glyph>
<glyph name="thorn" format="2">
  <advance width="512"/>
  <unicode hex="00FE"/>
  <outline>
    <contour>
      <point x="88" y="-122" type="line"/>
      <point x="144" y="-122" type="line"/>
      <point x="152" y="-114" type="line"/>
      <point x="152" y="48" type="line"/>
      <point x="160" y="48" type="line"/>
      <point x="188" y="8"/>
      <point x="232" y="-16"/>
      <point x="280" y="-16" type="curve" smooth="yes"/>
      <point x="368" y="-16"/>
      <point x="432" y="40"/>
      <point x="432" y="160" type="curve" smooth="yes"/>
      <point x="432" y="288" type="line" smooth="yes"/>
      <point x="432" y="408"/>
      <point x="368" y="464"/>
      <point x="280" y="464" type="curve" smooth="yes"/>
      <point x="232" y="464"/>
      <point x="188" y="440"/>
      <point x="160" y="405" type="curve"/>
      <point x="152" y="405" type="line"/>
      <point x="152" y="574" type="line"/>
      <point x="144" y="582" type="line"/>
      <point x="88" y="582" type="line"/>
      <point x="80" y="574" type="line"/>
      <point x="80" y="-114" type="line"/>
    </contour>
    <contour>
      <point x="256" y="64" type="curve" smooth="yes"/>
      <point x="192" y="64"/>
      <point x="152" y="96"/>
      <point x="152" y="192" type="curve" smooth="yes"/>
      <point x="152" y="256" type="line" smooth="yes"/>
      <point x="152" y="352"/>
      <point x="192" y="384"/>
      <point x="256" y="384" type="curve" smooth="yes"/>
      <point x="320" y="384"/>
      <point x="360" y="352"/>
      <point x="360" y="256" type="curve" smooth="yes"/>
      <point x="360" y="192" type="line" smooth="yes"/>
      <point x="360" y="96"/>
      <point x="320" y="64"/>
    </contour>
  </outline>
</glyph>
<glyph name="Eogonek" format="2">
  <advance width="512"/>
  <unicode hex="0118"/>
  <outline>
    <contour>
      <point x="88" y="0" type="line"/>
      <point x="361" y="0" type="line"/>
      <point x="361" y="-8" type="line"/>
      <point x="331" y="-43"/>
      <point x="304" y="-64"/>
      <point x="304" y="-114" type="curve" smooth="yes"/>
      <point x="304" y="-146"/>
      <point x="326" y="-186"/>
      <point x="372" y="-186" type="curve" smooth="yes"/>
      <point x="421" y="-186" type="line"/>
      <point x="429" y="-178" type="line"/>
      <point x="429" y="-130" type="line"/>
      <point x="421" y="-122" type="line"/>
      <point x="378" y="-122" type="line" smooth="yes"/>
      <point x="362" y="-122"/>
      <point x="358" y="-115"/>
      <point x="358" y="-102" type="curve" smooth="yes"/>
      <point x="358" y="-69"/>
      <point x="394" y="-32"/>
      <point x="432" y="0" type="curve"/>
      <point x="440" y="8" type="line"/>
      <point x="440" y="72" type="line"/>
      <point x="432" y="80" type="line"/>
      <point x="161" y="80" type="line"/>
      <point x="153" y="88" type="line"/>
      <point x="153" y="344" type="line"/>
      <point x="368" y="344" type="line"/>
      <point x="376" y="352" type="line"/>
      <point x="376" y="408" type="line"/>
      <point x="368" y="416" type="line"/>
      <point x="161" y="416" type="line"/>
      <point x="153" y="424" type="line"/>
      <point x="153" y="616" type="line"/>
      <point x="161" y="624" type="line"/>
      <point x="432" y="624" type="line"/>
      <point x="440" y="632" type="line"/>
      <point x="440" y="696" type="line"/>
      <point x="432" y="704" type="line"/>
      <point x="88" y="704" type="line"/>
      <point x="80" y="696" type="line"/>
      <point x="80" y="8" type="line"/>
    </contour>
  </outline>
</glyph>
<glyph name="OE" format="2">
  <advance width="512"/>
  <unicode hex="0152"/>
  <outline>
    <contour>
      <point x="160" y="-16" type="curve" smooth="yes"/>
      <point x="199" y="-16"/>
      <point x="230" y="-9"/>
      <point x="253" y="3" type="curve"/>
      <point x="256" y="0" type="line"/>
      <point x="504" y="0" type="line"/>
      <point x="512" y="8" type="line"/>
      <point x="512" y="72" type="line"/>
      <point x="504" y="80" type="line"/>
      <point x="329" y="80" type="line"/>
      <point x="321" y="88" type="line"/>
      <point x="321" y="344" type="line"/>
      <point x="440" y="344" type="line"/>
      <point x="448" y="352" type="line"/>
      <point x="448" y="408" type="line"/>
      <point x="440" y="416" type="line"/>
      <point x="329" y="416" type="line"/>
      <point x="321" y="424" type="line"/>
      <point x="321" y="616" type="line"/>
      <point x="329" y="624" type="line"/>
      <point x="504" y="624" type="line"/>
      <point x="512" y="632" type="line"/>
      <point x="512" y="696" type="line"/>
      <point x="504" y="704" type="line"/>
      <point x="256" y="704" type="line"/>
      <point x="253" y="701" type="line"/>
      <point x="230" y="713"/>
      <point x="199" y="720"/>
      <point x="160" y="720" type="curve" smooth="yes"/>
      <point x="32" y="720"/>
      <point x="0" y="647"/>
      <point x="0" y="543" type="curve" smooth="yes"/>
      <point x="0" y="161" type="line" smooth="yes"/>
      <point x="0" y="57"/>
      <point x="32" y="-16"/>
    </contour>
    <contour>
      <point x="73" y="193" type="curve" smooth="yes"/>
      <point x="73" y="511" type="line" smooth="yes"/>
      <point x="73" y="599"/>
      <point x="80" y="640"/>
      <point x="160" y="640" type="curve" smooth="yes"/>
      <point x="240" y="640"/>
      <point x="247" y="599"/>
      <point x="247" y="511" type="curve" smooth="yes"/>
      <point x="247" y="193" type="line" smooth="yes"/>
      <point x="247" y="105"/>
      <point x="240" y="64"/>
      <point x="160" y="64" type="curve" smooth="yes"/>
      <point x="80" y="64"/>
      <point x="73" y="105"/>
    </contour>
  </outline>
</glyph>
<glyph name="jdotless" format="2">
  <advance width="512"/>
  <unicode hex="0237"/>
  <outline>
    <contour>
      <point x="40" y="-208" type="line"/>
      <point x="160" y="-208" type="line" smooth="yes"/>
      <point x="296" y="-208"/>
      <point x="334" y="-144"/>
      <point x="334" y="-31" type="curve" smooth="yes"/>
      <point x="334" y="504" type="line"/>
      <point x="326" y="512" type="line"/>
      <point x="126" y="512" type="line"/>
      <point x="118" y="504" type="line"/>
      <point x="118" y="440" type="line"/>
      <point x="126" y="432" type="line"/>
      <point x="254" y="432" type="line"/>
      <point x="262" y="424" type="line"/>
      <point x="262" y="-47" type="line" smooth="yes"/>
      <point x="262" y="-104"/>
      <point x="232" y="-128"/>
      <point x="160" y="-128" type="curve" smooth="yes"/>
      <point x="40" y="-128" type="line"/>
      <point x="32" y="-136" type="line"/>
      <point x="32" y="-200" type="line"/>
    </contour>
  </outline>
</glyph>
<glyph name="breve" format="2">
  <advance width="512"/>
  <unicode hex="02D8"/>
  <outline>
    <contour>
      <point x="256" y="590" type="curve" smooth="yes"/>
      <point x="344" y="590"/>
      <point x="366" y="649"/>
      <point x="366" y="706" type="curve" smooth="yes"/>
      <point x="366" y="716"/>
      <point x="359" y="725"/>
      <point x="347" y="725" type="curve" smooth="yes"/>
      <point x="332" y="725" type="line" smooth="yes"/>
      <point x="320" y="725"/>
      <point x="313" y="716"/>
      <point x="313" y="706" type="curve" smooth="yes"/>
      <point x="313" y="674"/>
      <point x="302" y="640"/>
      <point x="256" y="640" type="curve" smooth="yes"/>
      <point x="210" y="640"/>
      <point x="199" y="674"/>
      <point x="199" y="706" type="curve" smooth="yes"/>
      <point x="199" y="716"/>
      <point x="192" y="725"/>
      <point x="180" y="725" type="curve" smooth="yes"/>
      <point x="165" y="725" type="line" smooth="yes"/>
      <point x="153" y="725"/>
      <point x="146" y="716"/>
      <point x="146" y="706" type="curve" smooth="yes"/>
      <point x="146" y="649"/>
      <point x="168" y="590"/>
    </contour>
  </outline>
</glyph>
<glyph name="dotaccent" format="2">
  <advance width="512"/>
  <unicode hex="02D9"/>
  <outline>
    <contour>
      <point x="232" y="617" type="curve" smooth="yes"/>
      <point x="279" y="617" type="line" smooth="yes"/>
      <point x="292" y="617"/>
      <point x="302" y="626"/>
      <point x="302" y="639" type="curve" smooth="yes"/>
      <point x="302" y="687" type="line" smooth="yes"/>
      <point x="302" y="700"/>
      <point x="292" y="710"/>
      <point x="279" y="710" type="curve" smooth="yes"/>
      <point x="232" y="710" type="line" smooth="yes"/>
      <point x="219" y="710"/>
      <point x="210" y="700"/>
      <point x="210" y="687" type="curve" smooth="yes"/>
      <point x="210" y="639" type="line" smooth="yes"/>
      <point x="210" y="626"/>
      <point x="219" y="617"/>
    </contour>
  </outline>
</glyph>
<glyph name="hungarumlaut" format="2">
  <advance width="512"/>
  <unicode hex="02DD"/>
  <outline>
    <contour>
      <point x="277" y="595" type="curve" smooth="yes"/>
      <point x="287" y="595" type="line" smooth="yes"/>
      <point x="300" y="595"/>
      <point x="309" y="600"/>
      <point x="317" y="609" type="curve" smooth="yes"/>
      <point x="388" y="693" type="line" smooth="yes"/>
      <point x="392" y="697"/>
      <point x="394" y="701"/>
      <point x="394" y="706" type="curve" smooth="yes"/>
      <point x="394" y="718"/>
      <point x="386" y="725"/>
      <point x="374" y="725" type="curve" smooth="yes"/>
      <point x="339" y="725" type="line" smooth="yes"/>
      <point x="318" y="725"/>
      <point x="308" y="719"/>
      <point x="302" y="706" type="curve" smooth="yes"/>
      <point x="266" y="626" type="line" smooth="yes"/>
      <point x="264" y="622"/>
      <point x="261" y="616"/>
      <point x="261" y="611" type="curve" smooth="yes"/>
      <point x="261" y="601"/>
      <point x="267" y="595"/>
    </contour>
    <contour>
      <point x="134" y="595" type="curve" smooth="yes"/>
      <point x="144" y="595" type="line" smooth="yes"/>
      <point x="157" y="595"/>
      <point x="166" y="600"/>
      <point x="174" y="609" type="curve" smooth="yes"/>
      <point x="245" y="693" type="line" smooth="yes"/>
      <point x="249" y="697"/>
      <point x="251" y="701"/>
      <point x="251" y="706" type="curve" smooth="yes"/>
      <point x="251" y="718"/>
      <point x="243" y="725"/>
      <point x="231" y="725" type="curve" smooth="yes"/>
      <point x="196" y="725" type="line" smooth="yes"/>
      <point x="175" y="725"/>
      <point x="165" y="719"/>
      <point x="159" y="706" type="curve" smooth="yes"/>
      <point x="123" y="626" type="line" smooth="yes"/>
      <point x="121" y="622"/>
      <point x="118" y="616"/>
      <point x="118" y="611" type="curve" smooth="yes"/>
      <point x="118" y="601"/>
      <point x="124" y="595"/>
    </contour>
  </outline>
</glyph>
<glyph name="gravecomb" format="2">
  <unicode hex="0300"/>
  <anchor x="256" y="512" name="_top"/>
  <anchor x="212" y="670" name="top"/>
  <outline>
    <contour>
      <point x="233" y="576" type="line"/>
      <point x="279" y="576" type="line"/>
      <point x="205" y="670" type="line"/>
      <point x="129" y="670" type="line"/>
    </contour>
  </outline>
</glyph>
<glyph name="dieresiscomb" format="2">
  <unicode hex="0308"/>
  <anchor x="256" y="512" name="_top"/>
  <anchor x="256" y="674" name="top"/>
  <outline>
    <contour>
      <point x="328" y="576" type="curve" smooth="yes"/>
      <point x="366" y="576" type="line" smooth="yes"/>
      <point x="379" y="576"/>
      <point x="389" y="585"/>
      <point x="389" y="598" type="curve" smooth="yes"/>
      <point x="389" y="636" type="line" smooth="yes"/>
      <point x="389" y="649"/>
      <point x="379" y="659"/>
      <point x="366" y="659" type="curve" smooth="yes"/>
      <point x="328" y="659" type="line" smooth="yes"/>
      <point x="315" y="659"/>
      <point x="306" y="649"/>
      <point x="306" y="636" type="curve" smooth="yes"/>
      <point x="306" y="598" type="line" smooth="yes"/>
      <point x="306" y="585"/>
      <point x="315" y="576"/>
    </contour>
    <contour>
      <point x="145" y="576" type="curve" smooth="yes"/>
      <point x="183" y="576" type="line" smooth="yes"/>
      <point x="196" y="576"/>
      <point x="206" y="585"/>
      <point x="206" y="598" type="curve" smooth="yes"/>
      <point x="206" y="636" type="line" smooth="yes"/>
      <point x="206" y="649"/>
      <point x="196" y="659"/>
      <point x="183" y="659" type="curve" smooth="yes"/>
      <point x="145" y="659" type="line" smooth="yes"/>
      <point x="132" y="659"/>
      <point x="123" y="649"/>
      <point x="123" y="636" type="curve" smooth="yes"/>
      <point x="123" y="598" type="line" smooth="yes"/>
      <point x="123" y="585"/>
      <point x="132" y="576"/>
    </contour>
  </outline>
</glyph>
<glyph name="ringcomb" format="2">
  <unicode hex="030A"/>
  <anchor x="256" y="512" name="_top"/>
  <anchor x="256" y="739" name="top"/>
  <outline>
    <contour>
      <point x="256" y="576" type="curve" smooth="yes"/>
      <point x="300" y="576"/>
      <point x="336" y="607"/>
      <point x="336" y="651" type="curve" smooth="yes"/>
      <point x="336" y="695"/>
      <point x="300" y="726"/>
      <point x="256" y="726" type="curve" smooth="yes"/>
      <point x="212" y="726"/>
      <point x="176" y="695"/>
      <point x="176" y="651" type="curve" smooth="yes"/>
      <point x="176" y="607"/>
      <point x="212" y="576"/>
    </contour>
    <contour>
      <point x="256" y="621" type="curve" smooth="yes"/>
      <point x="239" y="621"/>
      <point x="226" y="634"/>
      <point x="226" y="651" type="curve" smooth="yes"/>
      <point x="226" y="668"/>
      <point x="239" y="681"/>
      <point x="256" y="681" type="curve" smooth="yes"/>
      <point x="273" y="681"/>
      <point x="286" y="668"/>
      <point x="286" y="651" type="curve" smooth="yes"/>
      <point x="286" y="634"/>
      <point x="273" y="621"/>
    </contour>
  </outline>
</glyph>
<glyph name="alef-ar" format="2">
  <advance width="512"/>
  <unicode hex="0627"/>
  <anchor x="256" y="0" name="bottom"/>
  <anchor x="256" y="704" name="top"/>
  <outline>
    <contour>
      <point x="200" y="0" type="line"/>
      <point x="312" y="0" type="line"/>
      <point x="320" y="8" type="line"/>
      <point x="320" y="696" type="line"/>
      <point x="312" y="704" type="line"/>
      <point x="200" y="704" type="line"/>
      <point x="192" y="696" type="line"/>
      <point x="192" y="8" type="line"/>
    </contour>
  </outline>
</glyph>
<glyph name="hah-ar" format="2">
  <advance width="512"/>
  <unicode hex="062D"/>
  <anchor x="328" y="0" name="bottom"/>
  <anchor x="255" y="336" name="top"/>
  <outline>
    <contour>
      <point x="296" y="0" type="curve" smooth="yes"/>
      <point x="384" y="0" type="line" smooth="yes"/>
      <point x="432" y="0"/>
      <point x="448" y="16"/>
      <point x="448" y="64" type="curve" smooth="yes"/>
      <point x="448" y="208" type="line" smooth="yes"/>
      <point x="448" y="304"/>
      <point x="416" y="336"/>
      <point x="320" y="336" type="curve" smooth="yes"/>
      <point x="136" y="336" type="line"/>
      <point x="128" y="328" type="line"/>
      <point x="128" y="264" type="line"/>
      <point x="136" y="256" type="line"/>
      <point x="312" y="256" type="line" smooth="yes"/>
      <point x="360" y="256"/>
      <point x="376" y="240"/>
      <point x="376" y="192" type="curve" smooth="yes"/>
      <point x="376" y="96" type="line" smooth="yes"/>
      <point x="376" y="84"/>
      <point x="372" y="80"/>
      <point x="360" y="80" type="curve" smooth="yes"/>
      <point x="288" y="80" type="line" smooth="yes"/>
      <point x="144" y="80"/>
      <point x="64" y="0"/>
      <point x="64" y="-144" type="curve" smooth="yes"/>
      <point x="64" y="-176" type="line" smooth="yes"/>
      <point x="64" y="-320"/>
      <point x="136" y="-408"/>
      <point x="288" y="-408" type="curve" smooth="yes"/>
      <point x="392" y="-408" type="line"/>
      <point x="400" y="-400" type="line"/>
      <point x="400" y="-336" type="line"/>
      <point x="392" y="-328" type="line"/>
      <point x="296" y="-328" type="line" smooth="yes"/>
      <point x="176" y="-328"/>
      <point x="136" y="-272"/>
      <point x="136" y="-160" type="curve" smooth="yes"/>
      <point x="136" y="-48"/>
      <point x="184" y="0"/>
    </contour>
  </outline>
</glyph>
<glyph name="dal-ar" format="2">
  <advance width="512"/>
  <unicode hex="062F"/>
  <anchor x="396" y="384" name="top"/>
  <outline>
    <contour>
      <point x="360" y="376" type="line"/>
      <point x="360" y="112" type="line" smooth="yes"/>
      <point x="360" y="88"/>
      <point x="352" y="80"/>
      <point x="328" y="80" type="curve" smooth="yes"/>
      <point x="184" y="80" type="line" smooth="yes"/>
      <point x="156" y="80"/>
      <point x="152" y="92"/>
      <point x="152" y="112" type="curve" smooth="yes"/>
      <point x="152" y="136" type="line"/>
      <point x="144" y="144" type="line"/>
      <point x="88" y="144" type="line"/>
      <point x="80" y="136" type="line"/>
      <point x="80" y="96" type="line" smooth="yes"/>
      <point x="80" y="32"/>
      <point x="112" y="0"/>
      <point x="176" y="0" type="curve" smooth="yes"/>
      <point x="336" y="0" type="line" smooth="yes"/>
      <point x="408" y="0"/>
      <point x="432" y="32"/>
      <point x="432" y="96" type="curve" smooth="yes"/>
      <point x="432" y="376" type="line"/>
      <point x="424" y="384" type="line"/>
      <point x="368" y="384" type="line"/>
    </contour>
  </outline>
</glyph>
<glyph name="reh-ar" format="2">
  <advance width="512"/>
  <unicode hex="0631"/>
  <anchor x="340" y="192" name="top"/>
  <outline>
    <contour>
      <point x="48" y="-256" type="line"/>
      <point x="248" y="-256" type="line" smooth="yes"/>
      <point x="344" y="-256"/>
      <point x="376" y="-224"/>
      <point x="376" y="-128" type="curve" smooth="yes"/>
      <point x="376" y="184" type="line"/>
      <point x="368" y="192" type="line"/>
      <point x="312" y="192" type="line"/>
      <point x="304" y="184" type="line"/>
      <point x="304" y="-112" type="line" smooth="yes"/>
      <point x="304" y="-160"/>
      <point x="288" y="-176"/>
      <point x="240" y="-176" type="curve" smooth="yes"/>
      <point x="48" y="-176" type="line"/>
      <point x="40" y="-184" type="line"/>
      <point x="40" y="-248" type="line"/>
    </contour>
  </outline>
</glyph>
<glyph name="seen-ar" format="2">
  <advance width="512"/>
  <unicode hex="0633"/>
  <anchor x="313" y="0" name="bottom"/>
  <anchor x="315" y="336" name="top"/>
  <outline>
    <contour>
      <point x="136" y="328" type="line"/>
      <point x="136" y="-129" type="line" smooth="yes"/>
      <point x="136" y="-177"/>
      <point x="120" y="-193"/>
      <point x="72" y="-193" type="curve" smooth="yes"/>
      <point x="64" y="-193" type="line" smooth="yes"/>
      <point x="16" y="-193"/>
      <point x="0" y="-177"/>
      <point x="0" y="-129" type="curve" smooth="yes"/>
      <point x="0" y="-8" type="line"/>
      <point x="-8" y="0" type="line"/>
      <point x="-64" y="0" type="line"/>
      <point x="-72" y="-8" type="line"/>
      <point x="-72" y="-145" type="line" smooth="yes"/>
      <point x="-72" y="-241"/>
      <point x="-40" y="-273"/>
      <point x="56" y="-273" type="curve" smooth="yes"/>
      <point x="80" y="-273" type="line" smooth="yes"/>
      <point x="176" y="-273"/>
      <point x="208" y="-241"/>
      <point x="208" y="-145" type="curve" smooth="yes"/>
      <point x="208" y="0" type="line"/>
      <point x="360" y="0" type="line" smooth="yes"/>
      <point x="456" y="0"/>
      <point x="488" y="32"/>
      <point x="488" y="128" type="curve" smooth="yes"/>
      <point x="488" y="328" type="line"/>
      <point x="480" y="336" type="line"/>
      <point x="424" y="336" type="line"/>
      <point x="416" y="328" type="line"/>
      <point x="416" y="144" type="line" smooth="yes"/>
      <point x="416" y="96"/>
      <point x="400" y="80"/>
      <point x="352" y="80" type="curve"/>
      <point x="344" y="88" type="line"/>
      <point x="344" y="328" type="line"/>
      <point x="336" y="336" type="line"/>
      <point x="288" y="336" type="line"/>
      <point x="280" y="328" type="line"/>
      <point x="280" y="88" type="line"/>
      <point x="272" y="80" type="line"/>
      <point x="216" y="80" type="line"/>
      <point x="208" y="88" type="line"/>
      <point x="208" y="328" type="line"/>
      <point x="200" y="336" type="line"/>
      <point x="144" y="336" type="line"/>
    </contour>
  </outline>
</glyph>
<glyph name="tah-ar" format="2">
  <advance width="512"/>
  <unicode hex="0637"/>
  <anchor x="360" y="336" name="top"/>
  <outline>
    <contour>
      <point x="40" y="0" type="line"/>
      <point x="360" y="0" type="line" smooth="yes"/>
      <point x="456" y="0"/>
      <point x="480" y="32"/>
      <point x="480" y="128" type="curve" smooth="yes"/>
      <point x="480" y="176" type="line" smooth="yes"/>
      <point x="480" y="280"/>
      <point x="456" y="336"/>
      <point x="360" y="336" type="curve" smooth="yes"/>
      <point x="264" y="336"/>
      <point x="240" y="280"/>
      <point x="240" y="176" type="curve" smooth="yes"/>
      <point x="240" y="80" type="line"/>
      <point x="160" y="80" type="line"/>
      <point x="152" y="88" type="line"/>
      <point x="152" y="696" type="line"/>
      <point x="144" y="704" type="line"/>
      <point x="88" y="704" type="line"/>
      <point x="80" y="696" type="line"/>
      <point x="80" y="88" type="line"/>
      <point x="72" y="80" type="line"/>
      <point x="40" y="80" type="line"/>
      <point x="32" y="72" type="line"/>
      <point x="32" y="8" type="line"/>
    </contour>
    <contour>
      <point x="312" y="80" type="line"/>
      <point x="312" y="168" type="line" smooth="yes"/>
      <point x="312" y="224"/>
      <point x="312" y="256"/>
      <point x="360" y="256" type="curve" smooth="yes"/>
      <point x="408" y="256"/>
      <point x="408" y="208"/>
      <point x="408" y="152" type="curve" smooth="yes"/>
      <point x="408" y="104"/>
      <point x="400" y="80"/>
      <point x="352" y="80" type="curve" smooth="yes"/>
    </contour>
  </outline>
</glyph>
<glyph name="lam-ar" format="2">
  <advance width="512"/>
  <unicode hex="0644"/>
  <outline>
    <contour>
      <point x="112" y="-232" type="curve" smooth="yes"/>
      <point x="400" y="-232" type="line" smooth="yes"/>
      <point x="464" y="-232"/>
      <point x="480" y="-192"/>
      <point x="480" y="-136" type="curve"/>
      <point x="480" y="616" type="line"/>
      <point x="472" y="624" type="line"/>
      <point x="416" y="624" type="line"/>
      <point x="408" y="616" type="line"/>
      <point x="408" y="-112" type="line" smooth="yes"/>
      <point x="408" y="-144"/>
      <point x="400" y="-152"/>
      <point x="368" y="-152" type="curve" smooth="yes"/>
      <point x="144" y="-152" type="line" smooth="yes"/>
      <point x="112" y="-152"/>
      <point x="104" y="-144"/>
      <point x="104" y="-112" type="curve" smooth="yes"/>
      <point x="104" y="-56" type="line"/>
      <point x="96" y="-48" type="line"/>
      <point x="40" y="-48" type="line"/>
      <point x="32" y="-56" type="line"/>
      <point x="32" y="-136" type="line" smooth="yes"/>
      <point x="32" y="-192"/>
      <point x="48" y="-232"/>
    </contour>
  </outline>
</glyph>
<glyph name="meem-ar" format="2">
  <advance width="512"/>
  <unicode hex="0645"/>
  <outline>
    <contour>
      <point x="40" y="-256" type="line"/>
      <point x="96" y="-256" type="line"/>
      <point x="104" y="-248" type="line"/>
      <point x="104" y="-64" type="line" smooth="yes"/>
      <point x="104" y="-16"/>
      <point x="120" y="0"/>
      <point x="168" y="0" type="curve" smooth="yes"/>
      <point x="472" y="0" type="line"/>
      <point x="480" y="8" type="line"/>
      <point x="480" y="224" type="line" smooth="yes"/>
      <point x="480" y="328"/>
      <point x="424" y="384"/>
      <point x="320" y="384" type="curve" smooth="yes"/>
      <point x="216" y="384"/>
      <point x="160" y="328"/>
      <point x="160" y="224" type="curve" smooth="yes"/>
      <point x="160" y="192" type="line"/>
      <point x="168" y="184" type="line"/>
      <point x="224" y="184" type="line"/>
      <point x="232" y="192" type="line"/>
      <point x="232" y="224" type="line" smooth="yes"/>
      <point x="232" y="275"/>
      <point x="267" y="304"/>
      <point x="320" y="304" type="curve" smooth="yes"/>
      <point x="376" y="304"/>
      <point x="408" y="272"/>
      <point x="408" y="216" type="curve" smooth="yes"/>
      <point x="408" y="80" type="line"/>
      <point x="160" y="80" type="line" smooth="yes"/>
      <point x="64" y="80"/>
      <point x="32" y="48"/>
      <point x="32" y="-48" type="curve" smooth="yes"/>
      <point x="32" y="-248" type="line"/>
    </contour>
  </outline>
</glyph>
<glyph name="heh-ar" format="2">
  <advance width="512"/>
  <unicode hex="0647"/>
  <anchor x="256" y="0" name="bottom"/>
  <anchor x="257" y="384" name="top"/>
  <outline>
    <contour>
      <point x="432" y="128" type="curve" smooth="yes"/>
      <point x="432" y="256" type="line" smooth="yes"/>
      <point x="432" y="344"/>
      <point x="392" y="384"/>
      <point x="304" y="384" type="curve" smooth="yes"/>
      <point x="208" y="384" type="line" smooth="yes"/>
      <point x="120" y="384"/>
      <point x="80" y="344"/>
      <point x="80" y="256" type="curve" smooth="yes"/>
      <point x="80" y="128" type="line" smooth="yes"/>
      <point x="80" y="40"/>
      <point x="120" y="0"/>
      <point x="208" y="0" type="curve" smooth="yes"/>
      <point x="304" y="0" type="line" smooth="yes"/>
      <point x="392" y="0"/>
      <point x="432" y="40"/>
    </contour>
    <contour>
      <point x="152" y="144" type="curve" smooth="yes"/>
      <point x="152" y="240" type="line" smooth="yes"/>
      <point x="152" y="288"/>
      <point x="168" y="304"/>
      <point x="216" y="304" type="curve" smooth="yes"/>
      <point x="296" y="304" type="line" smooth="yes"/>
      <point x="344" y="304"/>
      <point x="360" y="288"/>
      <point x="360" y="240" type="curve" smooth="yes"/>
      <point x="360" y="144" type="line" smooth="yes"/>
      <point x="360" y="96"/>
      <point x="344" y="80"/>
      <point x="296" y="80" type="curve" smooth="yes"/>
      <point x="216" y="80" type="line" smooth="yes"/>
      <point x="168" y="80"/>
      <point x="152" y="96"/>
    </contour>
  </outline>
</glyph>
<glyph name="alefMaksura-ar" format="2">
  <advance width="512"/>
  <unicode hex="0649"/>
  <anchor x="276" y="-126" name="bottom"/>
  <anchor x="69" y="0" name="top"/>
  <outline>
    <contour>
      <point x="112" y="-168" type="curve" smooth="yes"/>
      <point x="400" y="-168" type="line" smooth="yes"/>
      <point x="464" y="-168"/>
      <point x="480" y="-128"/>
      <point x="480" y="-72" type="curve" smooth="yes"/>
      <point x="480" y="-16" type="line" smooth="yes"/>
      <point x="480" y="40"/>
      <point x="464" y="80"/>
      <point x="400" y="80" type="curve" smooth="yes"/>
      <point x="288" y="80" type="line" smooth="yes"/>
      <point x="256" y="80"/>
      <point x="248" y="88"/>
      <point x="248" y="120" type="curve" smooth="yes"/>
      <point x="248" y="128" type="line" smooth="yes"/>
      <point x="248" y="160"/>
      <point x="256" y="168"/>
      <point x="288" y="168" type="curve" smooth="yes"/>
      <point x="400" y="168" type="line"/>
      <point x="408" y="176" type="line"/>
      <point x="408" y="240" type="line"/>
      <point x="400" y="248" type="line"/>
      <point x="256" y="248" type="line" smooth="yes"/>
      <point x="192" y="248"/>
      <point x="176" y="208"/>
      <point x="176" y="152" type="curve" smooth="yes"/>
      <point x="176" y="96" type="line" smooth="yes"/>
      <point x="176" y="40"/>
      <point x="192" y="0"/>
      <point x="256" y="0" type="curve" smooth="yes"/>
      <point x="368" y="0" type="line" smooth="yes"/>
      <point x="400" y="0"/>
      <point x="408" y="-8"/>
      <point x="408" y="-40" type="curve" smooth="yes"/>
      <point x="408" y="-48" type="line" smooth="yes"/>
      <point x="408" y="-80"/>
      <point x="400" y="-88"/>
      <point x="368" y="-88" type="curve" smooth="yes"/>
      <point x="144" y="-88" type="line" smooth="yes"/>
      <point x="112" y="-88"/>
      <point x="104" y="-80"/>
      <point x="104" y="-48" type="curve" smooth="yes"/>
      <point x="104" y="-8" type="line"/>
      <point x="96" y="0" type="line"/>
      <point x="40" y="0" type="line"/>
      <point x="32" y="-8" type="line"/>
      <point x="32" y="-72" type="line" smooth="yes"/>
      <point x="32" y="-128"/>
      <point x="48" y="-168"/>
    </contour>
  </outline>
</glyph>
<glyph name="hamzaabove-ar" format="2">
  <unicode hex="0654"/>
  <anchor x="256" y="600" name="_top"/>
  <outline>
    <contour>
      <point x="192" y="649" type="line"/>
      <point x="320" y="649" type="line"/>
      <point x="328" y="657" type="line"/>
      <point x="328" y="688" type="line"/>
      <point x="320" y="696" type="line"/>
      <point x="266" y="696" type="line"/>
      <point x="258" y="704" type="line"/>
      <point x="258" y="720" type="line" smooth="yes"/>
      <point x="258" y="729"/>
      <point x="263" y="734"/>
      <point x="273" y="734" type="curve" smooth="yes"/>
      <point x="300" y="734" type="line"/>
      <point x="308" y="742" type="line"/>
      <point x="308" y="776" type="line"/>
      <point x="300" y="784" type="line"/>
      <point x="263" y="784" type="line" smooth="yes"/>
      <point x="224" y="784"/>
      <point x="214" y="763"/>
      <point x="214" y="728" type="curve" smooth="yes"/>
      <point x="214" y="704" type="line"/>
      <point x="206" y="696" type="line"/>
      <point x="192" y="696" type="line"/>
      <point x="184" y="688" type="line"/>
      <point x="184" y="657" type="line"/>
    </contour>
  </outline>
</glyph>
<glyph name="hamzabelow-ar" format="2">
  <unicode hex="0655"/>
  <anchor x="263" y="0" name="_bottom"/>
  <outline>
    <contour>
      <point x="192" y="-196" type="line"/>
      <point x="320" y="-196" type="line"/>
      <point x="328" y="-188" type="line"/>
      <point x="328" y="-157" type="line"/>
      <point x="320" y="-149" type="line"/>
      <point x="266" y="-149" type="line"/>
      <point x="258" y="-141" type="line"/>
      <point x="258" y="-125" type="line" smooth="yes"/>
      <point x="258" y="-116"/>
      <point x="263" y="-111"/>
      <point x="273" y="-111" type="curve" smooth="yes"/>
      <point x="300" y="-111" type="line"/>
      <point x="308" y="-103" type="line"/>
      <point x="308" y="-69" type="line"/>
      <point x="300" y="-61" type="line"/>
      <point x="263" y="-61" type="line" smooth="yes"/>
      <point x="224" y="-61"/>
      <point x="214" y="-82"/>
      <point x="214" y="-117" type="curve" smooth="yes"/>
      <point x="214" y="-141" type="line"/>
      <point x="206" y="-149" type="line"/>
      <point x="192" y="-149" type="line"/>
      <point x="184" y="-157" type="line"/>
      <point x="184" y="-188" type="line"/>
    </contour>
  </outline>
</glyph>
<glyph name="percent-ar" format="2">
  <advance width="512"/>
  <unicode hex="066A"/>
  <outline>
    <contour>
      <point x="256" y="96" type="curve" smooth="yes"/>
      <point x="397" y="96"/>
      <point x="512" y="211"/>
      <point x="512" y="352" type="curve" smooth="yes"/>
      <point x="512" y="493"/>
      <point x="397" y="608"/>
      <point x="256" y="608" type="curve" smooth="yes"/>
      <point x="115" y="608"/>
      <point x="0" y="493"/>
      <point x="0" y="352" type="curve" smooth="yes"/>
      <point x="0" y="211"/>
      <point x="115" y="96"/>
    </contour>
    <contour>
      <point x="256" y="136" type="curve" smooth="yes"/>
      <point x="137" y="136"/>
      <point x="40" y="233"/>
      <point x="40" y="352" type="curve" smooth="yes"/>
      <point x="40" y="471"/>
      <point x="137" y="568"/>
      <point x="256" y="568" type="curve" smooth="yes"/>
      <point x="375" y="568"/>
      <point x="472" y="471"/>
      <point x="472" y="352" type="curve" smooth="yes"/>
      <point x="472" y="233"/>
      <point x="375" y="136"/>
    </contour>
  </outline>
</glyph>
<glyph name="behDotless-ar" format="2">
  <advance width="512"/>
  <unicode hex="066E"/>
  <anchor x="306" y="0" name="bottom"/>
  <anchor x="310" y="312" name="top"/>
  <outline>
    <contour>
      <point x="104" y="0" type="curve" smooth="yes"/>
      <point x="496" y="0" type="line" smooth="yes"/>
      <point x="560" y="0"/>
      <point x="576" y="40"/>
      <point x="576" y="96" type="curve" smooth="yes"/>
      <point x="576" y="280" type="line"/>
      <point x="568" y="288" type="line"/>
      <point x="456" y="288" type="line"/>
      <point x="448" y="280" type="line"/>
      <point x="448" y="248" type="line" smooth="yes"/>
      <point x="448" y="216"/>
      <point x="440" y="208"/>
      <point x="408" y="208" type="curve" smooth="yes"/>
      <point x="192" y="208" type="line" smooth="yes"/>
      <point x="160" y="208"/>
      <point x="152" y="216"/>
      <point x="152" y="248" type="curve" smooth="yes"/>
      <point x="152" y="280" type="line"/>
      <point x="144" y="288" type="line"/>
      <point x="32" y="288" type="line"/>
      <point x="24" y="280" type="line"/>
      <point x="24" y="96" type="line" smooth="yes"/>
      <point x="24" y="40"/>
      <point x="40" y="0"/>
    </contour>
  </outline>
</glyph>
<glyph name="noonghunna-ar" format="2">
  <advance width="512"/>
  <unicode hex="06BA"/>
  <anchor x="256" y="208" name="top"/>
  <outline>
    <contour>
      <point x="216" y="-208" type="curve" smooth="yes"/>
      <point x="336" y="-208" type="line" smooth="yes"/>
      <point x="432" y="-208"/>
      <point x="464" y="-176"/>
      <point x="464" y="-80" type="curve"/>
      <point x="464" y="200" type="line"/>
      <point x="456" y="208" type="line"/>
      <point x="312" y="208" type="line"/>
      <point x="304" y="200" type="line"/>
      <point x="304" y="0" type="line" smooth="yes"/>
      <point x="304" y="-32"/>
      <point x="296" y="-48"/>
      <point x="264" y="-48" type="curve" smooth="yes"/>
      <point x="248" y="-48" type="line" smooth="yes"/>
      <point x="216" y="-48"/>
      <point x="208" y="-32"/>
      <point x="208" y="0" type="curve" smooth="yes"/>
      <point x="208" y="104" type="line"/>
      <point x="200" y="112" type="line"/>
      <point x="56" y="112" type="line"/>
      <point x="48" y="104" type="line"/>
      <point x="48" y="-40" type="line" smooth="yes"/>
      <point x="48" y="-168"/>
      <point x="88" y="-208"/>
    </contour>
  </outline>
</glyph>
<glyph name="endash" format="2">
  <advance width="512"/>
  <unicode hex="2013"/>
  <outline>
    <contour>
      <point x="89" y="225" type="line"/>
      <point x="424" y="225" type="line"/>
      <point x="432" y="233" type="line"/>
      <point x="432" y="297" type="line"/>
      <point x="424" y="305" type="line"/>
      <point x="88" y="305" type="line"/>
      <point x="80" y="297" type="line"/>
      <point x="81" y="233" type="line"/>
    </contour>
  </outline>
</glyph>
<glyph name="quotedblright" format="2">
  <advance width="512"/>
  <unicode hex="201D"/>
  <outline>
    <contour>
      <point x="140" y="512" type="line"/>
      <point x="219" y="512" type="line"/>
      <point x="219" y="704" type="line"/>
      <point x="140" y="704" type="line"/>
    </contour>
    <contour>
      <point x="293" y="512" type="line"/>
      <point x="372" y="512" type="line"/>
      <point x="372" y="704" type="line"/>
      <point x="293" y="704" type="line"/>
    </contour>
  </outline>
</glyph>
<glyph name="guilsinglleft" format="2">
  <advance width="512"/>
  <unicode hex="2039"/>
  <outline>
    <contour>
      <point x="351" y="112" type="line"/>
      <point x="351" y="194" type="line"/>
      <point x="191" y="349" type="line"/>
      <point x="351" y="504" type="line"/>
      <point x="351" y="586" type="line"/>
      <point x="150" y="391" type="line"/>
      <point x="150" y="307" type="line"/>
    </contour>
  </outline>
</glyph>
<glyph name="guilsinglright" format="2">
  <advance width="512"/>
  <unicode hex="203A"/>
  <outline>
    <contour>
      <point x="150" y="112" type="line"/>
      <point x="351" y="307" type="line"/>
      <point x="351" y="391" type="line"/>
      <point x="150" y="586" type="line"/>
      <point x="150" y="504" type="line"/>
      <point x="310" y="349" type="line"/>
      <point x="150" y="194" type="line"/>
    </contour>
  </outline>
</glyph>
<glyph name="fraction" format="2">
  <advance width="512"/>
  <unicode hex="2044"/>
  <outline>
    <contour>
      <point x="88" y="-208" type="line"/>
      <point x="143" y="-208" type="line"/>
      <point x="151" y="-200" type="line"/>
      <point x="432" y="752" type="line"/>
      <point x="432" y="760" type="line"/>
      <point x="424" y="768" type="line"/>
      <point x="369" y="768" type="line"/>
      <point x="361" y="760" type="line"/>
      <point x="80" y="-192" type="line"/>
      <point x="80" y="-200" type="line"/>
    </contour>
  </outline>
</glyph>
<glyph name="foursuperior" format="2">
  <advance width="512"/>
  <unicode hex="2074"/>
  <outline>
    <contour>
      <point x="223" y="554" type="line"/>
      <point x="220" y="558" type="line"/>
      <point x="268" y="672" type="line"/>
      <point x="271" y="672" type="line"/>
      <point x="271" y="558" type="line"/>
      <point x="268" y="554" type="line"/>
    </contour>
    <contour>
      <point x="274" y="448" type="line"/>
      <point x="294" y="448" type="line"/>
      <point x="297" y="451" type="line"/>
      <point x="297" y="522" type="line"/>
      <point x="300" y="525" type="line"/>
      <point x="317" y="525" type="line"/>
      <point x="320" y="528" type="line"/>
      <point x="320" y="551" type="line"/>
      <point x="317" y="554" type="line"/>
      <point x="300" y="554" type="line"/>
      <point x="297" y="558" type="line"/>
      <point x="297" y="701" type="line"/>
      <point x="294" y="704" type="line"/>
      <point x="261" y="704" type="line"/>
      <point x="258" y="701" type="line"/>
      <point x="193" y="554" type="line"/>
      <point x="193" y="528" type="line"/>
      <point x="195" y="525" type="line"/>
      <point x="268" y="525" type="line"/>
      <point x="271" y="522" type="line"/>
      <point x="271" y="451" type="line"/>
    </contour>
  </outline>
</glyph>
<glyph name="allah-ar" format="2">
  <advance width="512"/>
  <unicode hex="FDF2"/>
  <outline>
    <contour>
      <point x="152" y="0" type="curve" smooth="yes"/>
      <point x="180" y="0" type="line" smooth="yes"/>
      <point x="212" y="0"/>
      <point x="244" y="16"/>
      <point x="252" y="32" type="curve"/>
      <point x="268" y="32" type="line"/>
      <point x="276" y="16"/>
      <point x="292" y="0"/>
      <point x="324" y="0" type="curve" smooth="yes"/>
      <point x="328" y="0" type="line" smooth="yes"/>
      <point x="424" y="0"/>
      <point x="440" y="32"/>
      <point x="440" y="128" type="curve" smooth="yes"/>
      <point x="440" y="600" type="line"/>
      <point x="432" y="608" type="line"/>
      <point x="384" y="608" type="line"/>
      <point x="376" y="600" type="line"/>
      <point x="376" y="144" type="line" smooth="yes"/>
      <point x="376" y="96"/>
      <point x="368" y="80"/>
      <point x="320" y="80" type="curve" smooth="yes"/>
      <point x="296" y="80"/>
      <point x="288" y="88"/>
      <point x="288" y="112" type="curve" smooth="yes"/>
      <point x="288" y="504" type="line"/>
      <point x="280" y="512" type="line"/>
      <point x="240" y="512" type="line"/>
      <point x="232" y="504" type="line"/>
      <point x="232" y="112" type="line" smooth="yes"/>
      <point x="232" y="88"/>
      <point x="208" y="80"/>
      <point x="184" y="80" type="curve" smooth="yes"/>
      <point x="152" y="80"/>
      <point x="144" y="88"/>
      <point x="144" y="120" type="curve" smooth="yes"/>
      <point x="144" y="408" type="line"/>
      <point x="136" y="416" type="line"/>
      <point x="96" y="416" type="line"/>
      <point x="88" y="408" type="line"/>
      <point x="88" y="376" type="line"/>
      <point x="80" y="368" type="line"/>
      <point x="56" y="368" type="line" smooth="yes"/>
      <point x="-24" y="368"/>
      <point x="-56" y="320"/>
      <point x="-56" y="240" type="curve" smooth="yes"/>
      <point x="-56" y="96" type="line" smooth="yes"/>
      <point x="-56" y="32"/>
      <point x="-48" y="0"/>
      <point x="24" y="0" type="curve" smooth="yes"/>
      <point x="85" y="0" type="line"/>
      <point x="93" y="8" type="line"/>
      <point x="93" y="27" type="line"/>
      <point x="101" y="27" type="line"/>
      <point x="113" y="10"/>
      <point x="128" y="0"/>
    </contour>
    <contour>
      <point x="0" y="112" type="curve" smooth="yes"/>
      <point x="0" y="224" type="line" smooth="yes"/>
      <point x="0" y="272"/>
      <point x="16" y="288"/>
      <point x="64" y="288" type="curve" smooth="yes"/>
      <point x="80" y="288" type="line"/>
      <point x="88" y="280" type="line"/>
      <point x="88" y="88" type="line"/>
      <point x="80" y="80" type="line"/>
      <point x="32" y="80" type="line" smooth="yes"/>
      <point x="8" y="80"/>
      <point x="0" y="88"/>
    </contour>
    <contour>
      <point x="520" y="0" type="line"/>
      <point x="560" y="0" type="line"/>
      <point x="568" y="8" type="line"/>
      <point x="568" y="728" type="line"/>
      <point x="560" y="736" type="line"/>
      <point x="520" y="736" type="line"/>
      <point x="512" y="728" type="line"/>
      <point x="512" y="8" type="line"/>
    </contour>
    <contour>
      <point x="218" y="611" type="curve" smooth="yes"/>
      <point x="232" y="611"/>
      <point x="247" y="618"/>
      <point x="257" y="628" type="curve"/>
      <point x="266" y="618"/>
      <point x="281" y="611"/>
      <point x="296" y="611" type="curve" smooth="yes"/>
      <point x="337" y="611"/>
      <point x="350" y="644"/>
      <point x="350" y="676" type="curve" smooth="yes"/>
      <point x="350" y="682"/>
      <point x="346" y="687"/>
      <point x="339" y="687" type="curve" smooth="yes"/>
      <point x="323" y="687" type="line" smooth="yes"/>
      <point x="316" y="687"/>
      <point x="312" y="682"/>
      <point x="312" y="676" type="curve" smooth="yes"/>
      <point x="312" y="658"/>
      <point x="314" y="647"/>
      <point x="296" y="647" type="curve" smooth="yes"/>
      <point x="278" y="647"/>
      <point x="280" y="658"/>
      <point x="280" y="676" type="curve" smooth="yes"/>
      <point x="280" y="682"/>
      <point x="276" y="687"/>
      <point x="269" y="687" type="curve" smooth="yes"/>
      <point x="245" y="687" type="line" smooth="yes"/>
      <point x="238" y="687"/>
      <point x="234" y="682"/>
      <point x="234" y="676" type="curve" smooth="yes"/>
      <point x="234" y="658"/>
      <point x="236" y="647"/>
      <point x="218" y="647" type="curve" smooth="yes"/>
      <point x="200" y="647"/>
      <point x="202" y="658"/>
      <point x="202" y="676" type="curve" smooth="yes"/>
      <point x="202" y="682"/>
      <point x="198" y="687"/>
      <point x="191" y="687" type="curve" smooth="yes"/>
      <point x="175" y="687" type="line" smooth="yes"/>
      <point x="168" y="687"/>
      <point x="164" y="682"/>
      <point x="164" y="676" type="curve" smooth="yes"/>
      <point x="164" y="644"/>
      <point x="176" y="611"/>
    </contour>
    <contour>
      <point x="272" y="744" type="line"/>
      <point x="280" y="888" type="line"/>
      <point x="272" y="896" type="line"/>
      <point x="248" y="896" type="line"/>
      <point x="240" y="888" type="line"/>
      <point x="248" y="744" type="line"/>
      <point x="256" y="736" type="line"/>
      <point x="264" y="736" type="line"/>
    </contour>
  </outline>
</glyph>
<glyph name="kaf-ar.init" format="2">
  <advance width="512"/>
  <unicode hex="FEDB"/>
  <outline>
    <contour>
      <point x="40" y="0" type="line"/>
      <point x="368" y="0" type="line" smooth="yes"/>
      <point x="440" y="0"/>
      <point x="464" y="32"/>
      <point x="464" y="96" type="curve" smooth="yes"/>
      <point x="464" y="176" type="line" smooth="yes"/>
      <point x="464" y="272"/>
      <point x="432" y="304"/>
      <point x="336" y="304" type="curve" smooth="yes"/>
      <point x="240" y="304" type="line" smooth="yes"/>
      <point x="228" y="304"/>
      <point x="224" y="308"/>
      <point x="224" y="320" type="curve" smooth="yes"/>
      <point x="224" y="328" type="line" smooth="yes"/>
      <point x="224" y="344"/>
      <point x="232" y="352"/>
      <point x="248" y="352" type="curve" smooth="yes"/>
      <point x="336" y="352" type="line"/>
      <point x="344" y="360" type="line"/>
      <point x="344" y="504" type="line"/>
      <point x="336" y="512" type="line"/>
      <point x="216" y="512" type="line" smooth="yes"/>
      <point x="104" y="512"/>
      <point x="64" y="472"/>
      <point x="64" y="360" type="curve" smooth="yes"/>
      <point x="64" y="304" type="line" smooth="yes"/>
      <point x="64" y="240"/>
      <point x="88" y="208"/>
      <point x="160" y="208" type="curve" smooth="yes"/>
      <point x="272" y="208" type="line" smooth="yes"/>
      <point x="296" y="208"/>
      <point x="304" y="200"/>
      <point x="304" y="176" type="curve" smooth="yes"/>
      <point x="304" y="172" type="line" smooth="yes"/>
      <point x="304" y="164"/>
      <point x="300" y="160"/>
      <point x="292" y="160" type="curve" smooth="yes"/>
      <point x="40" y="160" type="line"/>
      <point x="32" y="152" type="line"/>
      <point x="32" y="8" type="line"/>
    </contour>
  </outline>
</glyph>
<glyph name="kaf-ar.medi" format="2">
  <advance width="512"/>
  <unicode hex="FEDC"/>
  <outline>
    <contour>
      <point x="40" y="0" type="line"/>
      <point x="296" y="0" type="line" smooth="yes"/>
      <point x="328" y="0"/>
      <point x="352" y="16"/>
      <point x="360" y="32" type="curve"/>
      <point x="376" y="32" type="line"/>
      <point x="384" y="16"/>
      <point x="408" y="0"/>
      <point x="440" y="0" type="curve" smooth="yes"/>
      <point x="472" y="0" type="line"/>
      <point x="480" y="8" type="line"/>
      <point x="481" y="148" type="line"/>
      <point x="473" y="156" type="line"/>
      <point x="464" y="156" type="line" smooth="yes"/>
      <point x="452" y="156"/>
      <point x="448" y="160"/>
      <point x="448" y="172" type="curve" smooth="yes"/>
      <point x="448" y="200" type="line" smooth="yes"/>
      <point x="448" y="272"/>
      <point x="432" y="304"/>
      <point x="336" y="304" type="curve" smooth="yes"/>
      <point x="240" y="304" type="line" smooth="yes"/>
      <point x="228" y="304"/>
      <point x="224" y="308"/>
      <point x="224" y="320" type="curve" smooth="yes"/>
      <point x="224" y="328" type="line" smooth="yes"/>
      <point x="224" y="344"/>
      <point x="232" y="352"/>
      <point x="248" y="352" type="curve" smooth="yes"/>
      <point x="336" y="352" type="line"/>
      <point x="344" y="360" type="line"/>
      <point x="344" y="504" type="line"/>
      <point x="336" y="512" type="line"/>
      <point x="216" y="512" type="line" smooth="yes"/>
      <point x="104" y="512"/>
      <point x="64" y="472"/>
      <point x="64" y="360" type="curve" smooth="yes"/>
      <point x="64" y="304" type="line" smooth="yes"/>
      <point x="64" y="240"/>
      <point x="88" y="208"/>
      <point x="160" y="208" type="curve" smooth="yes"/>
      <point x="256" y="208" type="line" smooth="yes"/>
      <point x="280" y="208"/>
      <point x="288" y="200"/>
      <point x="288" y="176" type="curve" smooth="yes"/>
      <point x="288" y="172" type="line" smooth="yes"/>
      <point x="288" y="164"/>
      <point x="284" y="160"/>
      <point x="276" y="160" type="curve" smooth="yes"/>
      <point x="40" y="160" type="line"/>
      <point x="32" y="152" type="line"/>
      <point x="32" y="8" type="line"/>
    </contour>
  </outline>
</glyph>
<glyph name="ain-ar.medi" format="2">
  <advance width="512"/>
  <anchor x="256" y="336" name="top"/>
  <outline>
    <contour>
      <point x="40" y="0" type="line"/>
      <point x="168" y="0" type="line" smooth="yes"/>
      <point x="188" y="0"/>
      <point x="196" y="4"/>
      <point x="210" y="18" type="curve" smooth="yes"/>
      <point x="252" y="61" type="line"/>
      <point x="260" y="61" type="line"/>
      <point x="302" y="18" type="line" smooth="yes"/>
      <point x="316" y="4"/>
      <point x="324" y="0"/>
      <point x="344" y="0" type="curve" smooth="yes"/>
      <point x="472" y="0" type="line"/>
      <point x="480" y="8" type="line"/>
      <point x="480" y="72" type="line"/>
      <point x="472" y="80" type="line"/>
      <point x="368" y="80" type="line" smooth="yes"/>
      <point x="347" y="80"/>
      <point x="337" y="80"/>
      <point x="324" y="93" type="curve" smooth="yes"/>
      <point x="308" y="109" type="line"/>
      <point x="308" y="117" type="line"/>
      <point x="401" y="212" type="line" smooth="yes"/>
      <point x="428" y="239"/>
      <point x="433" y="256"/>
      <point x="433" y="272" type="curve" smooth="yes"/>
      <point x="433" y="312"/>
      <point x="409" y="336"/>
      <point x="369" y="336" type="curve" smooth="yes"/>
      <point x="143" y="336" type="line" smooth="yes"/>
      <point x="103" y="336"/>
      <point x="79" y="312"/>
      <point x="79" y="272" type="curve" smooth="yes"/>
      <point x="79" y="256"/>
      <point x="84" y="239"/>
      <point x="111" y="212" type="curve" smooth="yes"/>
      <point x="204" y="117" type="line"/>
      <point x="204" y="109" type="line"/>
      <point x="188" y="93" type="line" smooth="yes"/>
      <point x="175" y="80"/>
      <point x="166" y="80"/>
      <point x="147" y="80" type="curve" smooth="yes"/>
      <point x="40" y="80" type="line"/>
      <point x="32" y="72" type="line"/>
      <point x="32" y="8" type="line"/>
    </contour>
    <contour>
      <point x="178" y="248" type="curve" smooth="yes"/>
      <point x="178" y="256"/>
      <point x="182" y="264"/>
      <point x="194" y="264" type="curve" smooth="yes"/>
      <point x="318" y="264" type="line" smooth="yes"/>
      <point x="330" y="264"/>
      <point x="334" y="256"/>
      <point x="334" y="248" type="curve" smooth="yes"/>
      <point x="334" y="242"/>
      <point x="331" y="238"/>
      <point x="325" y="232" type="curve" smooth="yes"/>
      <point x="260" y="166" type="line"/>
      <point x="252" y="166" type="line"/>
      <point x="187" y="232" type="line" smooth="yes"/>
      <point x="181" y="238"/>
      <point x="178" y="242"/>
    </contour>
  </outline>
</glyph>
<glyph name="alef-ar.fina" format="2">
  <advance width="512"/>
  <anchor x="300" y="0" name="bottom"/>
  <anchor x="240" y="768" name="top"/>
  <outline>
    <contour>
      <point x="280" y="0" type="curve" smooth="yes"/>
      <point x="488" y="0" type="line"/>
      <point x="496" y="8" type="line"/>
      <point x="496" y="72" type="line"/>
      <point x="488" y="80" type="line"/>
      <point x="312" y="80" type="line" smooth="yes"/>
      <point x="280" y="80"/>
      <point x="272" y="88"/>
      <point x="272" y="120" type="curve" smooth="yes"/>
      <point x="272" y="696" type="line"/>
      <point x="264" y="704" type="line"/>
      <point x="208" y="704" type="line"/>
      <point x="200" y="696" type="line"/>
      <point x="200" y="96" type="line" smooth="yes"/>
      <point x="200" y="40"/>
      <point x="216" y="0"/>
    </contour>
  </outline>
</glyph>
<glyph name="behDotless-ar.medi" format="2">
  <advance width="512"/>
  <anchor x="256" y="0" name="bottom"/>
  <anchor x="256" y="384" name="top"/>
  <outline>
    <contour>
      <point x="176" y="376" type="line"/>
      <point x="176" y="192" type="line" smooth="yes"/>
      <point x="176" y="168"/>
      <point x="168" y="160"/>
      <point x="144" y="160" type="curve" smooth="yes"/>
      <point x="40" y="160" type="line"/>
      <point x="32" y="152" type="line"/>
      <point x="32" y="8" type="line"/>
      <point x="40" y="0" type="line"/>
      <point x="184" y="0" type="line" smooth="yes"/>
      <point x="216" y="0"/>
      <point x="236" y="16"/>
      <point x="244" y="32" type="curve"/>
      <point x="252" y="40" type="line"/>
      <point x="260" y="40" type="line"/>
      <point x="268" y="32" type="line"/>
      <point x="276" y="16"/>
      <point x="296" y="0"/>
      <point x="328" y="0" type="curve" smooth="yes"/>
      <point x="472" y="0" type="line"/>
      <point x="480" y="8" type="line"/>
      <point x="480" y="152" type="line"/>
      <point x="472" y="160" type="line"/>
      <point x="368" y="160" type="line" smooth="yes"/>
      <point x="344" y="160"/>
      <point x="336" y="168"/>
      <point x="336" y="192" type="curve" smooth="yes"/>
      <point x="336" y="376" type="line"/>
      <point x="328" y="384" type="line"/>
      <point x="184" y="384" type="line"/>
    </contour>
  </outline>
</glyph>
<glyph name="dal-ar.fina" format="2">
  <advance width="512"/>
  <anchor x="308" y="384" name="top"/>
  <outline>
    <contour>
      <point x="176" y="0" type="curve" smooth="yes"/>
      <point x="236" y="0" type="line" smooth="yes"/>
      <point x="268" y="0"/>
      <point x="292" y="16"/>
      <point x="300" y="32" type="curve"/>
      <point x="316" y="32" type="line"/>
      <point x="324" y="16"/>
      <point x="348" y="0"/>
      <point x="380" y="0" type="curve" smooth="yes"/>
      <point x="472" y="0" type="line"/>
      <point x="480" y="8" type="line"/>
      <point x="480" y="72" type="line"/>
      <point x="472" y="80" type="line"/>
      <point x="376" y="80" type="line" smooth="yes"/>
      <point x="352" y="80"/>
      <point x="344" y="88"/>
      <point x="344" y="112" type="curve" smooth="yes"/>
      <point x="344" y="376" type="line"/>
      <point x="336" y="384" type="line"/>
      <point x="280" y="384" type="line"/>
      <point x="272" y="376" type="line"/>
      <point x="272" y="112" type="line" smooth="yes"/>
      <point x="272" y="88"/>
      <point x="264" y="80"/>
      <point x="240" y="80" type="curve" smooth="yes"/>
      <point x="184" y="80" type="line" smooth="yes"/>
      <point x="156" y="80"/>
      <point x="152" y="92"/>
      <point x="152" y="112" type="curve" smooth="yes"/>
      <point x="152" y="136" type="line"/>
      <point x="144" y="144" type="line"/>
      <point x="88" y="144" type="line"/>
      <point x="80" y="136" type="line"/>
      <point x="80" y="96" type="line" smooth="yes"/>
      <point x="80" y="32"/>
      <point x="112" y="0"/>
    </contour>
  </outline>
</glyph>
<glyph name="dotabove-ar" format="2">
  <anchor x="256" y="512" name="_top"/>
  <outline>
    <contour>
      <point x="256" y="592" type="curve" smooth="yes"/>
      <point x="296" y="592"/>
      <point x="328" y="624"/>
      <point x="328" y="664" type="curve" smooth="yes"/>
      <point x="328" y="704"/>
      <point x="296" y="736"/>
      <point x="256" y="736" type="curve" smooth="yes"/>
      <point x="216" y="736"/>
      <point x="184" y="704"/>
      <point x="184" y="664" type="curve" smooth="yes"/>
      <point x="184" y="624"/>
      <point x="216" y="592"/>
    </contour>
  </outline>
</glyph>
<glyph name="dotaccentcomb.case" format="2">
  <anchor x="256" y="700" name="_top"/>
  <anchor x="256" y="843" name="top"/>
  <outline>
    <contour>
      <point x="220" y="768" type="line"/>
      <point x="292" y="768" type="line"/>
      <point x="300" y="776" type="line"/>
      <point x="300" y="848" type="line"/>
      <point x="292" y="856" type="line"/>
      <point x="220" y="856" type="line"/>
      <point x="212" y="848" type="line"/>
      <point x="212" y="776" type="line"/>
    </contour>
  </outline>
</glyph>
<glyph name="fehDotless-ar.init" format="2">
  <advance width="512"/>
  <anchor x="256" y="512" name="top"/>
  <outline>
    <contour>
      <point x="40" y="0" type="line"/>
      <point x="368" y="0" type="line" smooth="yes"/>
      <point x="440" y="0"/>
      <point x="464" y="32"/>
      <point x="464" y="96" type="curve" smooth="yes"/>
      <point x="464" y="352" type="line" smooth="yes"/>
      <point x="464" y="456"/>
      <point x="408" y="512"/>
      <point x="304" y="512" type="curve" smooth="yes"/>
      <point x="208" y="512" type="line" smooth="yes"/>
      <point x="104" y="512"/>
      <point x="48" y="456"/>
      <point x="48" y="352" type="curve" smooth="yes"/>
      <point x="48" y="304" type="line" smooth="yes"/>
      <point x="48" y="232"/>
      <point x="72" y="208"/>
      <point x="144" y="208" type="curve" smooth="yes"/>
      <point x="296" y="208" type="line"/>
      <point x="304" y="200" type="line"/>
      <point x="304" y="176" type="line" smooth="yes"/>
      <point x="304" y="164"/>
      <point x="300" y="160"/>
      <point x="288" y="160" type="curve" smooth="yes"/>
      <point x="40" y="160" type="line"/>
      <point x="32" y="152" type="line"/>
      <point x="32" y="8" type="line"/>
    </contour>
    <contour>
      <point x="232" y="264" type="line" smooth="yes"/>
      <point x="208" y="264"/>
      <point x="200" y="272"/>
      <point x="200" y="296" type="curve" smooth="yes"/>
      <point x="200" y="304" type="line" smooth="yes"/>
      <point x="200" y="336"/>
      <point x="208" y="352"/>
      <point x="248" y="352" type="curve" smooth="yes"/>
      <point x="256" y="352" type="line" smooth="yes"/>
      <point x="296" y="352"/>
      <point x="304" y="336"/>
      <point x="304" y="304" type="curve" smooth="yes"/>
      <point x="304" y="272" type="line"/>
      <point x="296" y="264" type="line"/>
    </contour>
  </outline>
</glyph>
<glyph name="fehDotless-ar.medi" format="2">
  <advance width="512"/>
  <anchor x="256" y="384" name="top"/>
  <outline>
    <contour>
      <point x="40" y="0" type="line"/>
      <point x="184" y="0" type="line"/>
      <point x="216" y="0"/>
      <point x="236" y="16"/>
      <point x="244" y="32" type="curve"/>
      <point x="252" y="40" type="line"/>
      <point x="260" y="40" type="line"/>
      <point x="268" y="32" type="line"/>
      <point x="276" y="16"/>
      <point x="296" y="0"/>
      <point x="328" y="0" type="curve"/>
      <point x="472" y="0" type="line"/>
      <point x="480" y="8" type="line"/>
      <point x="480" y="71" type="line"/>
      <point x="472" y="80" type="line"/>
      <point x="376" y="80" type="line"/>
      <point x="376" y="88" type="line"/>
      <point x="384" y="96"/>
      <point x="400" y="112"/>
      <point x="400" y="144" type="curve" smooth="yes"/>
      <point x="400" y="256" type="line" smooth="yes"/>
      <point x="400" y="336"/>
      <point x="352" y="384"/>
      <point x="272" y="384" type="curve" smooth="yes"/>
      <point x="240" y="384" type="line" smooth="yes"/>
      <point x="160" y="384"/>
      <point x="112" y="336"/>
      <point x="112" y="256" type="curve" smooth="yes"/>
      <point x="112" y="144" type="line" smooth="yes"/>
      <point x="112" y="112"/>
      <point x="128" y="96"/>
      <point x="136" y="88" type="curve"/>
      <point x="136" y="80" type="line"/>
      <point x="40" y="80" type="line"/>
      <point x="32" y="72" type="line"/>
      <point x="32" y="8" type="line"/>
    </contour>
    <contour>
      <point x="248" y="80" type="line" smooth="yes"/>
      <point x="200" y="80"/>
      <point x="184" y="112"/>
      <point x="184" y="176" type="curve" smooth="yes"/>
      <point x="184" y="240" type="line" smooth="yes"/>
      <point x="184" y="288"/>
      <point x="200" y="304"/>
      <point x="248" y="304" type="curve" smooth="yes"/>
      <point x="264" y="304" type="line" smooth="yes"/>
      <point x="312" y="304"/>
      <point x="328" y="288"/>
      <point x="328" y="240" type="curve" smooth="yes"/>
      <point x="328" y="176" type="line" smooth="yes"/>
      <point x="328" y="112"/>
      <point x="312" y="80"/>
      <point x="264" y="80" type="curve" smooth="yes"/>
    </contour>
  </outline>
</glyph>
<glyph name="gaf-ar.init" format="2">
  <advance width="512"/>
  <outline>
    <contour>
      <point x="72" y="544" type="line"/>
      <point x="280" y="544" type="line"/>
      <point x="288" y="552" type="line"/>
      <point x="288" y="583" type="line"/>
      <point x="280" y="592" type="line"/>
      <point x="72" y="592" type="line"/>
      <point x="64" y="584" type="line"/>
      <point x="64" y="552" type="line"/>
    </contour>
    <component base="kaf-ar.init"/>
  </outline>
</glyph>
<glyph name="hah-ar.init" format="2">
  <advance width="512"/>
  <anchor x="240" y="0" name="bottom"/>
  <anchor x="239" y="336" name="top"/>
  <outline>
    <contour>
      <point x="40" y="0" type="line"/>
      <point x="368" y="0" type="line" smooth="yes"/>
      <point x="416" y="0"/>
      <point x="432" y="16"/>
      <point x="432" y="64" type="curve" smooth="yes"/>
      <point x="432" y="208" type="line" smooth="yes"/>
      <point x="432" y="304"/>
      <point x="400" y="336"/>
      <point x="304" y="336" type="curve" smooth="yes"/>
      <point x="136" y="336" type="line"/>
      <point x="128" y="328" type="line"/>
      <point x="128" y="264" type="line"/>
      <point x="136" y="256" type="line"/>
      <point x="296" y="256" type="line" smooth="yes"/>
      <point x="344" y="256"/>
      <point x="360" y="240"/>
      <point x="360" y="192" type="curve" smooth="yes"/>
      <point x="360" y="96" type="line" smooth="yes"/>
      <point x="360" y="84"/>
      <point x="356" y="80"/>
      <point x="344" y="80" type="curve" smooth="yes"/>
      <point x="40" y="80" type="line"/>
      <point x="32" y="72" type="line"/>
      <point x="32" y="8" type="line"/>
    </contour>
  </outline>
</glyph>
<glyph name="heh-ar.medi" format="2">
  <advance width="512"/>
  <outline>
    <contour>
      <point x="208" y="-256" type="curve" smooth="yes"/>
      <point x="272" y="-256" type="line" smooth="yes"/>
      <point x="368" y="-256"/>
      <point x="400" y="-224"/>
      <point x="400" y="-128" type="curve" smooth="yes"/>
      <point x="400" y="-64" type="line" smooth="yes"/>
      <point x="400" y="-40"/>
      <point x="384" y="-16"/>
      <point x="368" y="-8" type="curve"/>
      <point x="368" y="0" type="line"/>
      <point x="472" y="0" type="line"/>
      <point x="480" y="8" type="line"/>
      <point x="480" y="72" type="line"/>
      <point x="472" y="80" type="line"/>
      <point x="336" y="80" type="line"/>
      <point x="336" y="88" type="line"/>
      <point x="352" y="96"/>
      <point x="368" y="120"/>
      <point x="368" y="144" type="curve" smooth="yes"/>
      <point x="368" y="208" type="line" smooth="yes"/>
      <point x="368" y="304"/>
      <point x="336" y="336"/>
      <point x="240" y="336" type="curve" smooth="yes"/>
      <point x="208" y="336" type="line" smooth="yes"/>
      <point x="144" y="336"/>
      <point x="112" y="304"/>
      <point x="112" y="240" type="curve" smooth="yes"/>
      <point x="112" y="88" type="line"/>
      <point x="104" y="80" type="line"/>
      <point x="40" y="80" type="line"/>
      <point x="32" y="72" type="line"/>
      <point x="32" y="8" type="line"/>
      <point x="40" y="0" type="line"/>
      <point x="104" y="0" type="line"/>
      <point x="112" y="-8" type="line"/>
      <point x="112" y="-160" type="line" smooth="yes"/>
      <point x="112" y="-224"/>
      <point x="144" y="-256"/>
    </contour>
    <contour>
      <point x="216" y="-176" type="line" smooth="yes"/>
      <point x="192" y="-176"/>
      <point x="184" y="-168"/>
      <point x="184" y="-144" type="curve" smooth="yes"/>
      <point x="184" y="-8" type="line"/>
      <point x="192" y="0" type="line"/>
      <point x="296" y="0" type="line" smooth="yes"/>
      <point x="320" y="0"/>
      <point x="328" y="-8"/>
      <point x="328" y="-32" type="curve" smooth="yes"/>
      <point x="328" y="-112" type="line" smooth="yes"/>
      <point x="328" y="-160"/>
      <point x="312" y="-176"/>
      <point x="264" y="-176" type="curve" smooth="yes"/>
    </contour>
    <contour>
      <point x="192" y="80" type="line"/>
      <point x="184" y="88" type="line"/>
      <point x="184" y="224" type="line" smooth="yes"/>
      <point x="184" y="248"/>
      <point x="192" y="256"/>
      <point x="216" y="256" type="curve" smooth="yes"/>
      <point x="232" y="256" type="line" smooth="yes"/>
      <point x="280" y="256"/>
      <point x="296" y="240"/>
      <point x="296" y="192" type="curve" smooth="yes"/>
      <point x="296" y="112" type="line" smooth="yes"/>
      <point x="296" y="88"/>
      <point x="288" y="80"/>
      <point x="264" y="80" type="curve" smooth="yes"/>
    </contour>
  </outline>
</glyph>
<glyph name="kaf-ar.fina" format="2">
  <advance width="512"/>
  <outline>
    <contour>
      <point x="200" y="0" type="curve" smooth="yes"/>
      <point x="324" y="0" type="line" smooth="yes"/>
      <point x="356" y="0"/>
      <point x="376" y="16"/>
      <point x="384" y="32" type="curve"/>
      <point x="392" y="40" type="line"/>
      <point x="400" y="40" type="line"/>
      <point x="408" y="32" type="line"/>
      <point x="415" y="19"/>
      <point x="432" y="0"/>
      <point x="456" y="0" type="curve" smooth="yes"/>
      <point x="472" y="0" type="line"/>
      <point x="480" y="8" type="line"/>
      <point x="480" y="72" type="line"/>
      <point x="472" y="80" type="line"/>
      <point x="464" y="80" type="line" smooth="yes"/>
      <point x="440" y="80"/>
      <point x="432" y="90"/>
      <point x="432" y="112" type="curve" smooth="yes"/>
      <point x="432" y="728" type="line"/>
      <point x="424" y="736" type="line"/>
      <point x="368" y="736" type="line"/>
      <point x="360" y="728" type="line"/>
      <point x="360" y="112" type="line" smooth="yes"/>
      <point x="360" y="88"/>
      <point x="352" y="80"/>
      <point x="328" y="80" type="curve" smooth="yes"/>
      <point x="200" y="80" type="line" smooth="yes"/>
      <point x="128" y="80"/>
      <point x="104" y="104"/>
      <point x="104" y="176" type="curve" smooth="yes"/>
      <point x="104" y="248" type="line"/>
      <point x="96" y="256" type="line"/>
      <point x="40" y="256" type="line"/>
      <point x="32" y="248" type="line"/>
      <point x="32" y="168" type="line" smooth="yes"/>
      <point x="32" y="40"/>
      <point x="72" y="0"/>
    </contour>
    <contour>
      <point x="268" y="168" type="line"/>
      <point x="268" y="312" type="line"/>
      <point x="260" y="320" type="line"/>
      <point x="204" y="320" type="line"/>
      <point x="196" y="312" type="line"/>
      <point x="196" y="168" type="line"/>
      <point x="204" y="160" type="line"/>
      <point x="260" y="160" type="line"/>
    </contour>
  </outline>
</glyph>
<glyph name="lam-ar.init" format="2">
  <advance width="512"/>
  <outline>
    <contour>
      <point x="368" y="0" type="line" smooth="yes"/>
      <point x="432" y="0"/>
      <point x="448" y="40"/>
      <point x="448" y="96" type="curve" smooth="yes"/>
      <point x="448" y="592" type="line"/>
      <point x="440" y="600" type="line"/>
      <point x="384" y="600" type="line"/>
      <point x="376" y="592" type="line"/>
      <point x="376" y="120" type="line" smooth="yes"/>
      <point x="376" y="88"/>
      <point x="368" y="80"/>
      <point x="336" y="80" type="curve" smooth="yes"/>
      <point x="24" y="80" type="line"/>
      <point x="16" y="72" type="line"/>
      <point x="16" y="8" type="line"/>
      <point x="24" y="0" type="line"/>
    </contour>
  </outline>
</glyph>
<glyph name="lam_alef-ar" format="2">
  <advance width="512"/>
  <anchor x="157" y="0" name="bottom"/>
  <anchor x="157" y="736" name="top"/>
  <outline>
    <contour>
      <point x="159" y="0" type="curve" smooth="yes"/>
      <point x="353" y="0" type="line" smooth="yes"/>
      <point x="393" y="0"/>
      <point x="417" y="40"/>
      <point x="417" y="72" type="curve" smooth="yes"/>
      <point x="417" y="96"/>
      <point x="410" y="122"/>
      <point x="377" y="156" type="curve" smooth="yes"/>
      <point x="316" y="219" type="line"/>
      <point x="316" y="227" type="line"/>
      <point x="361" y="283" type="line" smooth="yes"/>
      <point x="381" y="307"/>
      <point x="400" y="322"/>
      <point x="400" y="354" type="curve" smooth="yes"/>
      <point x="400" y="728" type="line"/>
      <point x="392" y="736" type="line"/>
      <point x="336" y="736" type="line"/>
      <point x="328" y="728" type="line"/>
      <point x="328" y="370" type="line" smooth="yes"/>
      <point x="328" y="354"/>
      <point x="326" y="349"/>
      <point x="310" y="330" type="curve" smooth="yes"/>
      <point x="260" y="271" type="line"/>
      <point x="252" y="271" type="line"/>
      <point x="202" y="330" type="line" smooth="yes"/>
      <point x="187" y="347"/>
      <point x="184" y="354"/>
      <point x="184" y="370" type="curve" smooth="yes"/>
      <point x="184" y="727" type="line"/>
      <point x="176" y="736" type="line"/>
      <point x="120" y="737" type="line"/>
      <point x="112" y="727" type="line"/>
      <point x="112" y="354" type="line" smooth="yes"/>
      <point x="112" y="322"/>
      <point x="128" y="308"/>
      <point x="149" y="283" type="curve" smooth="yes"/>
      <point x="196" y="227" type="line"/>
      <point x="196" y="219" type="line"/>
      <point x="135" y="156" type="line" smooth="yes"/>
      <point x="102" y="122"/>
      <point x="95" y="96"/>
      <point x="95" y="72" type="curve" smooth="yes"/>
      <point x="95" y="40"/>
      <point x="119" y="0"/>
    </contour>
    <contour>
      <point x="194" y="80" type="line" smooth="yes"/>
      <point x="182" y="80"/>
      <point x="178" y="88"/>
      <point x="178" y="96" type="curve" smooth="yes"/>
      <point x="178" y="102"/>
      <point x="181" y="106"/>
      <point x="187" y="112" type="curve" smooth="yes"/>
      <point x="252" y="178" type="line"/>
      <point x="260" y="178" type="line"/>
      <point x="325" y="112" type="line" smooth="yes"/>
      <point x="331" y="106"/>
      <point x="334" y="102"/>
      <point x="334" y="96" type="curve" smooth="yes"/>
      <point x="334" y="88"/>
      <point x="330" y="80"/>
      <point x="318" y="80" type="curve" smooth="yes"/>
    </contour>
  </outline>
</glyph>
<glyph name="noonghunna-ar.fina" format="2">
  <advance width="512"/>
  <anchor x="256" y="208" name="top"/>
  <outline>
    <contour>
      <point x="216" y="-208" type="curve" smooth="yes"/>
      <point x="320" y="-208" type="line" smooth="yes"/>
      <point x="416" y="-208"/>
      <point x="448" y="-176"/>
      <point x="448" y="-80" type="curve" smooth="yes"/>
      <point x="448" y="-8" type="line"/>
      <point x="456" y="0" type="line"/>
      <point x="472" y="0" type="line"/>
      <point x="480" y="8" type="line"/>
      <point x="480" y="152" type="line"/>
      <point x="472" y="160" type="line"/>
      <point x="456" y="160" type="line"/>
      <point x="448" y="168" type="line"/>
      <point x="448" y="200" type="line"/>
      <point x="440" y="208" type="line"/>
      <point x="312" y="208" type="line"/>
      <point x="304" y="200" type="line"/>
      <point x="304" y="0" type="line" smooth="yes"/>
      <point x="304" y="-32"/>
      <point x="296" y="-48"/>
      <point x="264" y="-48" type="curve" smooth="yes"/>
      <point x="248" y="-48" type="line" smooth="yes"/>
      <point x="216" y="-48"/>
      <point x="208" y="-32"/>
      <point x="208" y="0" type="curve" smooth="yes"/>
      <point x="208" y="104" type="line"/>
      <point x="200" y="112" type="line"/>
      <point x="56" y="112" type="line"/>
      <point x="48" y="104" type="line"/>
      <point x="48" y="-40" type="line" smooth="yes"/>
      <point x="48" y="-168"/>
      <point x="88" y="-208"/>
    </contour>
  </outline>
</glyph>
<glyph name="ringcomb.case" format="2">
  <anchor x="256" y="704" name="_top"/>
  <anchor x="256" y="931" name="top"/>
  <outline>
    <contour>
      <point x="256" y="768" type="curve" smooth="yes"/>
      <point x="300" y="768"/>
      <point x="336" y="799"/>
      <point x="336" y="843" type="curve" smooth="yes"/>
      <point x="336" y="887"/>
      <point x="300" y="918"/>
      <point x="256" y="918" type="curve" smooth="yes"/>
      <point x="212" y="918"/>
      <point x="176" y="887"/>
      <point x="176" y="843" type="curve" smooth="yes"/>
      <point x="176" y="799"/>
      <point x="212" y="768"/>
    </contour>
    <contour>
      <point x="256" y="813" type="curve" smooth="yes"/>
      <point x="239" y="813"/>
      <point x="226" y="826"/>
      <point x="226" y="843" type="curve" smooth="yes"/>
      <point x="226" y="860"/>
      <point x="239" y="873"/>
      <point x="256" y="873" type="curve" smooth="yes"/>
      <point x="273" y="873"/>
      <point x="286" y="860"/>
      <point x="286" y="843" type="curve" smooth="yes"/>
      <point x="286" y="826"/>
      <point x="273" y="813"/>
    </contour>
  </outline>
</glyph>
<glyph name="sad-ar.init" format="2">
  <advance width="512"/>
  <anchor x="320" y="308" name="top"/>
  <outline>
    <contour>
      <point x="160" y="80" type="line"/>
      <point x="152" y="88" type="line"/>
      <point x="152" y="96" type="line"/>
      <point x="152" y="112" type="line" smooth="yes"/>
      <point x="152" y="188"/>
      <point x="245" y="228"/>
      <point x="296" y="228" type="curve" smooth="yes"/>
      <point x="344" y="228"/>
      <point x="360" y="212"/>
      <point x="360" y="164" type="curve" smooth="yes"/>
      <point x="360" y="112" type="line" smooth="yes"/>
      <point x="360" y="88"/>
      <point x="352" y="80"/>
      <point x="328" y="80" type="curve" smooth="yes"/>
    </contour>
    <contour>
      <point x="40" y="0" type="line"/>
      <point x="336" y="0" type="line" smooth="yes"/>
      <point x="408" y="0"/>
      <point x="432" y="24"/>
      <point x="432" y="96" type="curve" smooth="yes"/>
      <point x="432" y="180" type="line" smooth="yes"/>
      <point x="432" y="276"/>
      <point x="400" y="308"/>
      <point x="304" y="308" type="curve" smooth="yes"/>
      <point x="245" y="308"/>
      <point x="184" y="277"/>
      <point x="152" y="232" type="curve"/>
      <point x="144" y="232" type="line"/>
      <point x="152" y="264" type="line"/>
      <point x="152" y="376" type="line"/>
      <point x="144" y="384" type="line"/>
      <point x="88" y="384" type="line"/>
      <point x="80" y="376" type="line"/>
      <point x="80" y="88" type="line"/>
      <point x="72" y="80" type="line"/>
      <point x="40" y="80" type="line"/>
      <point x="32" y="72" type="line"/>
      <point x="32" y="8" type="line"/>
    </contour>
  </outline>
</glyph>
<glyph name="seen-ar.fina" format="2">
  <advance width="512"/>
  <anchor x="313" y="0" name="bottom"/>
  <anchor x="315" y="336" name="top"/>
  <outline>
    <contour>
      <point x="76" y="376" type="line"/>
      <point x="76" y="-129" type="line" smooth="yes"/>
      <point x="76" y="-177"/>
      <point x="56" y="-193"/>
      <point x="24" y="-193" type="curve" smooth="yes"/>
      <point x="16" y="-193" type="line" smooth="yes"/>
      <point x="-32" y="-193"/>
      <point x="-48" y="-177"/>
      <point x="-48" y="-129" type="curve" smooth="yes"/>
      <point x="-48" y="-72" type="line"/>
      <point x="-56" y="-64" type="line"/>
      <point x="-112" y="-64" type="line"/>
      <point x="-120" y="-72" type="line"/>
      <point x="-120" y="-145" type="line" smooth="yes"/>
      <point x="-120" y="-241"/>
      <point x="-88" y="-273"/>
      <point x="8" y="-273" type="curve" smooth="yes"/>
      <point x="32" y="-273" type="line" smooth="yes"/>
      <point x="112" y="-273"/>
      <point x="144" y="-241"/>
      <point x="144" y="-145" type="curve" smooth="yes"/>
      <point x="144" y="-40" type="line"/>
      <point x="128" y="24" type="line"/>
      <point x="128" y="32" type="line"/>
      <point x="136" y="40" type="line"/>
      <point x="144" y="40" type="line"/>
      <point x="152" y="32" type="line"/>
      <point x="160" y="8"/>
      <point x="180" y="0"/>
      <point x="200" y="0" type="curve" smooth="yes"/>
      <point x="224" y="0"/>
      <point x="236" y="16"/>
      <point x="244" y="32" type="curve"/>
      <point x="252" y="40" type="line"/>
      <point x="260" y="40" type="line"/>
      <point x="268" y="32" type="line"/>
      <point x="276" y="16"/>
      <point x="296" y="0"/>
      <point x="328" y="0" type="curve" smooth="yes"/>
      <point x="360" y="0"/>
      <point x="380" y="16"/>
      <point x="388" y="32" type="curve"/>
      <point x="396" y="40" type="line"/>
      <point x="404" y="40" type="line"/>
      <point x="412" y="32" type="line"/>
      <point x="419" y="17"/>
      <point x="435" y="0"/>
      <point x="464" y="0" type="curve" smooth="yes"/>
      <point x="488" y="0" type="line"/>
      <point x="496" y="8" type="line"/>
      <point x="496" y="72" type="line"/>
      <point x="488" y="80" type="line"/>
      <point x="464" y="80" type="line" smooth="yes"/>
      <point x="440" y="80"/>
      <point x="436" y="88"/>
      <point x="436" y="112" type="curve" smooth="yes"/>
      <point x="436" y="376" type="line"/>
      <point x="428" y="384" type="line"/>
      <point x="376" y="384" type="line"/>
      <point x="368" y="376" type="line"/>
      <point x="368" y="112" type="line" smooth="yes"/>
      <point x="368" y="88"/>
      <point x="352" y="80"/>
      <point x="328" y="80" type="curve" smooth="yes"/>
      <point x="304" y="80"/>
      <point x="288" y="88"/>
      <point x="288" y="112" type="curve" smooth="yes"/>
      <point x="288" y="376" type="line"/>
      <point x="280" y="384" type="line"/>
      <point x="232" y="384" type="line"/>
      <point x="224" y="376" type="line"/>
      <point x="224" y="112" type="line" smooth="yes"/>
      <point x="224" y="88"/>
      <point x="208" y="80"/>
      <point x="184" y="80" type="curve" smooth="yes"/>
      <point x="160" y="80"/>
      <point x="144" y="88"/>
      <point x="144" y="112" type="curve" smooth="yes"/>
      <point x="144" y="376" type="line"/>
      <point x="136" y="384" type="line"/>
      <point x="84" y="384" type="line"/>
    </contour>
  </outline>
</glyph>
<glyph name="seen-ar.init" format="2">
  <advance width="512"/>
  <anchor x="256" y="0" name="bottom"/>
  <anchor x="256" y="384" name="top"/>
  <outline>
    <contour>
      <point x="40" y="0" type="line"/>
      <point x="48" y="0" type="line" smooth="yes"/>
      <point x="80" y="0"/>
      <point x="92" y="17"/>
      <point x="100" y="32" type="curve"/>
      <point x="108" y="40" type="line"/>
      <point x="116" y="40" type="line"/>
      <point x="124" y="32" type="line"/>
      <point x="132" y="16"/>
      <point x="152" y="0"/>
      <point x="184" y="0" type="curve" smooth="yes"/>
      <point x="216" y="0"/>
      <point x="236" y="16"/>
      <point x="244" y="32" type="curve"/>
      <point x="252" y="40" type="line"/>
      <point x="260" y="40" type="line"/>
      <point x="268" y="32" type="line"/>
      <point x="276" y="16"/>
      <point x="296" y="0"/>
      <point x="328" y="0" type="curve" smooth="yes"/>
      <point x="408" y="0"/>
      <point x="436" y="32"/>
      <point x="436" y="112" type="curve" smooth="yes"/>
      <point x="436" y="376" type="line"/>
      <point x="428" y="384" type="line"/>
      <point x="376" y="384" type="line"/>
      <point x="368" y="376" type="line"/>
      <point x="368" y="112" type="line" smooth="yes"/>
      <point x="368" y="88"/>
      <point x="352" y="80"/>
      <point x="328" y="80" type="curve" smooth="yes"/>
      <point x="304" y="80"/>
      <point x="288" y="88"/>
      <point x="288" y="112" type="curve" smooth="yes"/>
      <point x="288" y="376" type="line"/>
      <point x="280" y="384" type="line"/>
      <point x="232" y="384" type="line"/>
      <point x="224" y="376" type="line"/>
      <point x="224" y="112" type="line" smooth="yes"/>
      <point x="224" y="88"/>
      <point x="208" y="80"/>
      <point x="184" y="80" type="curve" smooth="yes"/>
      <point x="160" y="80"/>
      <point x="144" y="88"/>
      <point x="144" y="112" type="curve" smooth="yes"/>
      <point x="144" y="376" type="line"/>
      <point x="136" y="384" type="line"/>
      <point x="84" y="384" type="line"/>
      <point x="76" y="376" type="line"/>
      <point x="76" y="112" type="line" smooth="yes"/>
      <point x="76" y="88"/>
      <point x="64" y="80"/>
      <point x="48" y="80" type="curve" smooth="yes"/>
      <point x="40" y="80" type="line"/>
      <point x="32" y="72" type="line"/>
      <point x="32" y="8" type="line"/>
    </contour>
  </outline>
</glyph>
<glyph name="tah-ar.medi" format="2">
  <advance width="512"/>
  <anchor x="304" y="312" name="top"/>
  <outline>
    <contour>
      <point x="160" y="80" type="line"/>
      <point x="152" y="88" type="line"/>
      <point x="152" y="96" type="line"/>
      <point x="152" y="112" type="line" smooth="yes"/>
      <point x="152" y="176"/>
      <point x="221" y="232"/>
      <point x="296" y="232" type="curve" smooth="yes"/>
      <point x="344" y="232"/>
      <point x="360" y="216"/>
      <point x="360" y="168" type="curve" smooth="yes"/>
      <point x="360" y="112" type="line" smooth="yes"/>
      <point x="360" y="88"/>
      <point x="352" y="80"/>
      <point x="328" y="80" type="curve" smooth="yes"/>
    </contour>
    <contour>
      <point x="40" y="0" type="line"/>
      <point x="328" y="0" type="line" smooth="yes"/>
      <point x="360" y="0"/>
      <point x="380" y="16"/>
      <point x="388" y="32" type="curve"/>
      <point x="404" y="32" type="line"/>
      <point x="412" y="16"/>
      <point x="432" y="0"/>
      <point x="464" y="0" type="curve" smooth="yes"/>
      <point x="472" y="0" type="line"/>
      <point x="480" y="8" type="line"/>
      <point x="480" y="72" type="line"/>
      <point x="472" y="80" type="line"/>
      <point x="464" y="80" type="line" smooth="yes"/>
      <point x="440" y="80"/>
      <point x="432" y="88"/>
      <point x="432" y="112" type="curve" smooth="yes"/>
      <point x="432" y="184" type="line" smooth="yes"/>
      <point x="432" y="280"/>
      <point x="400" y="312"/>
      <point x="304" y="312" type="curve" smooth="yes"/>
      <point x="245" y="312"/>
      <point x="184" y="273"/>
      <point x="152" y="220" type="curve"/>
      <point x="144" y="220" type="line"/>
      <point x="152" y="268" type="line"/>
      <point x="152" y="728" type="line"/>
      <point x="144" y="736" type="line"/>
      <point x="88" y="736" type="line"/>
      <point x="80" y="728" type="line"/>
      <point x="80" y="88" type="line"/>
      <point x="72" y="80" type="line"/>
      <point x="40" y="80" type="line"/>
      <point x="32" y="72" type="line"/>
      <point x="32" y="8" type="line"/>
    </contour>
  </outline>
</glyph>
